<mxfile host="Electron" modified="2024-06-12T03:31:18.168Z" agent="Mozilla/5.0 (Windows NT 10.0; Win64; x64) AppleWebKit/537.36 (KHTML, like Gecko) draw.io/24.5.3 Chrome/124.0.6367.207 Electron/30.0.6 Safari/537.36" etag="caM34Pcomu1JJXYwOcNi" version="24.5.3" type="device">
  <diagram name="Page-1" id="7dILay24Z9OHven0k7w1">
    <mxGraphModel dx="1421" dy="2121" grid="0" gridSize="10" guides="1" tooltips="1" connect="1" arrows="1" fold="1" page="1" pageScale="1" pageWidth="850" pageHeight="1100" background="#ffffff" math="0" shadow="0">
      <root>
        <mxCell id="0" />
        <mxCell id="1" parent="0" />
        <mxCell id="mZAhdl8hGZGRWwnMFbeF-83" value="" style="rounded=0;whiteSpace=wrap;html=1;sketch=1;hachureGap=4;jiggle=2;curveFitting=1;fontFamily=Architects Daughter;fontSource=https%3A%2F%2Ffonts.googleapis.com%2Fcss%3Ffamily%3DArchitects%2BDaughter;" vertex="1" parent="1">
          <mxGeometry x="816" y="-189" width="1209" height="521" as="geometry" />
        </mxCell>
        <mxCell id="mZAhdl8hGZGRWwnMFbeF-9" value="HDFS" style="shape=cylinder3;whiteSpace=wrap;html=1;boundedLbl=1;backgroundOutline=1;size=15;" vertex="1" parent="1">
          <mxGeometry x="90" y="140" width="130" height="130" as="geometry" />
        </mxCell>
        <mxCell id="mZAhdl8hGZGRWwnMFbeF-10" value="Raw data" style="whiteSpace=wrap;html=1;aspect=fixed;" vertex="1" parent="1">
          <mxGeometry x="115" y="360" width="80" height="80" as="geometry" />
        </mxCell>
        <mxCell id="mZAhdl8hGZGRWwnMFbeF-11" value="" style="shape=flexArrow;endArrow=classic;html=1;rounded=0;exitX=0.5;exitY=1;exitDx=0;exitDy=0;exitPerimeter=0;entryX=0.5;entryY=0;entryDx=0;entryDy=0;" edge="1" parent="1" source="mZAhdl8hGZGRWwnMFbeF-9" target="mZAhdl8hGZGRWwnMFbeF-10">
          <mxGeometry width="50" height="50" relative="1" as="geometry">
            <mxPoint x="160" y="400" as="sourcePoint" />
            <mxPoint x="210" y="350" as="targetPoint" />
          </mxGeometry>
        </mxCell>
        <mxCell id="mZAhdl8hGZGRWwnMFbeF-12" value="Extract" style="text;strokeColor=none;align=center;fillColor=none;html=1;verticalAlign=middle;whiteSpace=wrap;rounded=0;" vertex="1" parent="1">
          <mxGeometry x="40" y="300" width="60" height="30" as="geometry" />
        </mxCell>
        <mxCell id="mZAhdl8hGZGRWwnMFbeF-13" value="Transform" style="text;strokeColor=none;align=center;fillColor=none;html=1;verticalAlign=middle;whiteSpace=wrap;rounded=0;" vertex="1" parent="1">
          <mxGeometry x="30" y="480" width="60" height="30" as="geometry" />
        </mxCell>
        <mxCell id="mZAhdl8hGZGRWwnMFbeF-14" value="Processed data" style="whiteSpace=wrap;html=1;aspect=fixed;" vertex="1" parent="1">
          <mxGeometry x="115" y="510" width="80" height="80" as="geometry" />
        </mxCell>
        <mxCell id="mZAhdl8hGZGRWwnMFbeF-15" value="" style="shape=flexArrow;endArrow=classic;html=1;rounded=0;entryX=0.5;entryY=0;entryDx=0;entryDy=0;" edge="1" parent="1">
          <mxGeometry width="50" height="50" relative="1" as="geometry">
            <mxPoint x="155" y="440" as="sourcePoint" />
            <mxPoint x="154.5" y="510" as="targetPoint" />
          </mxGeometry>
        </mxCell>
        <mxCell id="mZAhdl8hGZGRWwnMFbeF-16" value="SQL Server" style="shape=cylinder3;whiteSpace=wrap;html=1;boundedLbl=1;backgroundOutline=1;size=15;" vertex="1" parent="1">
          <mxGeometry x="92.5" y="660" width="125" height="160" as="geometry" />
        </mxCell>
        <mxCell id="mZAhdl8hGZGRWwnMFbeF-17" value="" style="shape=flexArrow;endArrow=classic;html=1;rounded=0;entryX=0.5;entryY=0;entryDx=0;entryDy=0;" edge="1" parent="1">
          <mxGeometry width="50" height="50" relative="1" as="geometry">
            <mxPoint x="155" y="590" as="sourcePoint" />
            <mxPoint x="154.5" y="660" as="targetPoint" />
          </mxGeometry>
        </mxCell>
        <mxCell id="mZAhdl8hGZGRWwnMFbeF-18" value="Load" style="text;strokeColor=none;align=center;fillColor=none;html=1;verticalAlign=middle;whiteSpace=wrap;rounded=0;" vertex="1" parent="1">
          <mxGeometry x="30" y="610" width="60" height="30" as="geometry" />
        </mxCell>
        <mxCell id="mZAhdl8hGZGRWwnMFbeF-20" value="PowerBI&amp;nbsp;" style="whiteSpace=wrap;html=1;aspect=fixed;" vertex="1" parent="1">
          <mxGeometry x="115" y="890" width="80" height="80" as="geometry" />
        </mxCell>
        <mxCell id="mZAhdl8hGZGRWwnMFbeF-21" value="" style="shape=flexArrow;endArrow=classic;html=1;rounded=0;exitX=0.5;exitY=1;exitDx=0;exitDy=0;exitPerimeter=0;entryX=0.5;entryY=0;entryDx=0;entryDy=0;" edge="1" parent="1" source="mZAhdl8hGZGRWwnMFbeF-16" target="mZAhdl8hGZGRWwnMFbeF-20">
          <mxGeometry width="50" height="50" relative="1" as="geometry">
            <mxPoint x="400" y="870" as="sourcePoint" />
            <mxPoint x="450" y="820" as="targetPoint" />
          </mxGeometry>
        </mxCell>
        <mxCell id="mZAhdl8hGZGRWwnMFbeF-24" value="Data lakehouse" style="shape=cylinder3;whiteSpace=wrap;html=1;boundedLbl=1;backgroundOutline=1;size=15;" vertex="1" parent="1">
          <mxGeometry x="230" y="1180" width="125" height="150" as="geometry" />
        </mxCell>
        <mxCell id="mZAhdl8hGZGRWwnMFbeF-25" value="Logs" style="whiteSpace=wrap;html=1;aspect=fixed;" vertex="1" parent="1">
          <mxGeometry x="120" y="1380" width="80" height="80" as="geometry" />
        </mxCell>
        <mxCell id="mZAhdl8hGZGRWwnMFbeF-26" value="" style="endArrow=classic;html=1;rounded=0;exitX=0;exitY=1;exitDx=0;exitDy=-15;exitPerimeter=0;entryX=0.5;entryY=0;entryDx=0;entryDy=0;" edge="1" parent="1" source="mZAhdl8hGZGRWwnMFbeF-24" target="mZAhdl8hGZGRWwnMFbeF-25">
          <mxGeometry width="50" height="50" relative="1" as="geometry">
            <mxPoint x="400" y="1440" as="sourcePoint" />
            <mxPoint x="450" y="1390" as="targetPoint" />
          </mxGeometry>
        </mxCell>
        <mxCell id="mZAhdl8hGZGRWwnMFbeF-27" value="Processed_data" style="whiteSpace=wrap;html=1;aspect=fixed;" vertex="1" parent="1">
          <mxGeometry x="320" y="1372.5" width="95" height="95" as="geometry" />
        </mxCell>
        <mxCell id="mZAhdl8hGZGRWwnMFbeF-28" value="" style="shape=flexArrow;endArrow=classic;html=1;rounded=0;exitX=1;exitY=0.5;exitDx=0;exitDy=0;entryX=0;entryY=0.5;entryDx=0;entryDy=0;" edge="1" parent="1" source="mZAhdl8hGZGRWwnMFbeF-25" target="mZAhdl8hGZGRWwnMFbeF-27">
          <mxGeometry width="50" height="50" relative="1" as="geometry">
            <mxPoint x="400" y="1440" as="sourcePoint" />
            <mxPoint x="450" y="1390" as="targetPoint" />
          </mxGeometry>
        </mxCell>
        <mxCell id="mZAhdl8hGZGRWwnMFbeF-29" value="PowerBI&amp;nbsp;" style="whiteSpace=wrap;html=1;aspect=fixed;" vertex="1" parent="1">
          <mxGeometry x="520" y="1372.5" width="80" height="80" as="geometry" />
        </mxCell>
        <mxCell id="mZAhdl8hGZGRWwnMFbeF-30" value="" style="shape=flexArrow;endArrow=classic;html=1;rounded=0;exitX=1;exitY=0.5;exitDx=0;exitDy=0;entryX=-0.117;entryY=0.581;entryDx=0;entryDy=0;entryPerimeter=0;" edge="1" parent="1" source="mZAhdl8hGZGRWwnMFbeF-27" target="mZAhdl8hGZGRWwnMFbeF-29">
          <mxGeometry width="50" height="50" relative="1" as="geometry">
            <mxPoint x="400" y="1210" as="sourcePoint" />
            <mxPoint x="450" y="1160" as="targetPoint" />
          </mxGeometry>
        </mxCell>
        <mxCell id="mZAhdl8hGZGRWwnMFbeF-31" value="Azure Synapse / Oracle / Clickhouse ..." style="text;strokeColor=none;align=center;fillColor=none;html=1;verticalAlign=middle;whiteSpace=wrap;rounded=0;" vertex="1" parent="1">
          <mxGeometry x="380" y="1230" width="100" height="70" as="geometry" />
        </mxCell>
        <mxCell id="mZAhdl8hGZGRWwnMFbeF-32" value="ETL&amp;nbsp;" style="text;strokeColor=none;align=center;fillColor=none;html=1;verticalAlign=middle;whiteSpace=wrap;rounded=0;" vertex="1" parent="1">
          <mxGeometry x="80" y="1600" width="60" height="30" as="geometry" />
        </mxCell>
        <mxCell id="mZAhdl8hGZGRWwnMFbeF-33" value="Transform trực tiếp trong database" style="text;strokeColor=none;align=center;fillColor=none;html=1;verticalAlign=middle;whiteSpace=wrap;rounded=0;" vertex="1" parent="1">
          <mxGeometry x="400" y="1650" width="120" height="30" as="geometry" />
        </mxCell>
        <mxCell id="mZAhdl8hGZGRWwnMFbeF-34" value="ELT" style="text;strokeColor=none;align=center;fillColor=none;html=1;verticalAlign=middle;whiteSpace=wrap;rounded=0;" vertex="1" parent="1">
          <mxGeometry x="430" y="1600" width="60" height="30" as="geometry" />
        </mxCell>
        <mxCell id="mZAhdl8hGZGRWwnMFbeF-35" value="Transform không trực tiếp trong database" style="text;strokeColor=none;align=center;fillColor=none;html=1;verticalAlign=middle;whiteSpace=wrap;rounded=0;" vertex="1" parent="1">
          <mxGeometry x="50" y="1650" width="120" height="30" as="geometry" />
        </mxCell>
        <mxCell id="mZAhdl8hGZGRWwnMFbeF-36" value="&lt;b&gt;Transform&lt;/b&gt;" style="text;strokeColor=none;align=center;fillColor=none;html=1;verticalAlign=middle;whiteSpace=wrap;rounded=0;" vertex="1" parent="1">
          <mxGeometry x="640" y="1650" width="120" height="30" as="geometry" />
        </mxCell>
        <mxCell id="mZAhdl8hGZGRWwnMFbeF-37" value="High performance" style="text;strokeColor=none;align=center;fillColor=none;html=1;verticalAlign=middle;whiteSpace=wrap;rounded=0;" vertex="1" parent="1">
          <mxGeometry x="400" y="1690" width="120" height="30" as="geometry" />
        </mxCell>
        <mxCell id="mZAhdl8hGZGRWwnMFbeF-38" value="Resource efficiency" style="text;strokeColor=none;align=center;fillColor=none;html=1;verticalAlign=middle;whiteSpace=wrap;rounded=0;" vertex="1" parent="1">
          <mxGeometry x="400" y="1720" width="120" height="30" as="geometry" />
        </mxCell>
        <mxCell id="mZAhdl8hGZGRWwnMFbeF-39" value="separation of architecture" style="text;strokeColor=none;align=center;fillColor=none;html=1;verticalAlign=middle;whiteSpace=wrap;rounded=0;" vertex="1" parent="1">
          <mxGeometry x="30" y="1700" width="150" height="30" as="geometry" />
        </mxCell>
        <mxCell id="mZAhdl8hGZGRWwnMFbeF-40" value="" style="shape=image;verticalLabelPosition=bottom;labelBackgroundColor=default;verticalAlign=top;aspect=fixed;imageAspect=0;image=https://d2908q01vomqb2.cloudfront.net/b6692ea5df920cad691c20319a6fffd7a4a766b8/2019/12/12/ETLandELTRedshift1.png;" vertex="1" parent="1">
          <mxGeometry x="217.5" y="1760" width="800" height="295" as="geometry" />
        </mxCell>
        <mxCell id="mZAhdl8hGZGRWwnMFbeF-48" style="edgeStyle=orthogonalEdgeStyle;rounded=0;sketch=1;hachureGap=4;jiggle=2;curveFitting=1;orthogonalLoop=1;jettySize=auto;html=1;fontFamily=Architects Daughter;fontSource=https%3A%2F%2Ffonts.googleapis.com%2Fcss%3Ffamily%3DArchitects%2BDaughter;exitX=0.47;exitY=-0.017;exitDx=0;exitDy=0;exitPerimeter=0;" edge="1" parent="1" source="mZAhdl8hGZGRWwnMFbeF-57">
          <mxGeometry relative="1" as="geometry">
            <mxPoint x="1047.6544827586206" y="68.00000000000011" as="targetPoint" />
            <mxPoint x="985.62" y="50" as="sourcePoint" />
          </mxGeometry>
        </mxCell>
        <mxCell id="mZAhdl8hGZGRWwnMFbeF-63" style="edgeStyle=orthogonalEdgeStyle;rounded=0;sketch=1;hachureGap=4;jiggle=2;curveFitting=1;orthogonalLoop=1;jettySize=auto;html=1;entryX=0.47;entryY=1.003;entryDx=0;entryDy=0;entryPerimeter=0;fontFamily=Architects Daughter;fontSource=https%3A%2F%2Ffonts.googleapis.com%2Fcss%3Ffamily%3DArchitects%2BDaughter;exitX=0.996;exitY=0.381;exitDx=0;exitDy=0;exitPerimeter=0;" edge="1" parent="1" source="mZAhdl8hGZGRWwnMFbeF-46" target="mZAhdl8hGZGRWwnMFbeF-60">
          <mxGeometry relative="1" as="geometry">
            <mxPoint x="1517.62" y="23.5" as="sourcePoint" />
          </mxGeometry>
        </mxCell>
        <mxCell id="mZAhdl8hGZGRWwnMFbeF-73" value="" style="group" vertex="1" connectable="0" parent="1">
          <mxGeometry x="1370" y="-35.74" width="130" height="154.5" as="geometry" />
        </mxCell>
        <mxCell id="mZAhdl8hGZGRWwnMFbeF-60" value="" style="rounded=0;whiteSpace=wrap;html=1;sketch=1;hachureGap=4;jiggle=2;curveFitting=1;fontFamily=Architects Daughter;fontSource=https%3A%2F%2Ffonts.googleapis.com%2Fcss%3Ffamily%3DArchitects%2BDaughter;rotation=90;" vertex="1" parent="mZAhdl8hGZGRWwnMFbeF-73">
          <mxGeometry x="7.5" y="32" width="115" height="130" as="geometry" />
        </mxCell>
        <mxCell id="mZAhdl8hGZGRWwnMFbeF-54" value="" style="shape=image;verticalLabelPosition=bottom;labelBackgroundColor=default;verticalAlign=top;aspect=fixed;imageAspect=0;image=data:image/png,iVBORw0KGgoAAAANSUhEUgAAAKQAAAClCAYAAADS6VbkAAAAAXNSR0IArs4c6QAAAARnQU1BAACxjwv8YQUAAAAJcEhZcwAADsMAAA7DAcdvqGQAAClzSURBVHhe7X0JfFTVvf931sxk30ggCSFsLggIuIBbC+5Sa7FarbXP5V/1X+2irdpa625tq22t7aeLtT6fPPte3StiEWu1VbFWRQFlCwkxrAkkJGSZyezzft8zc8IQs0HmJjPhfvE4N3c5yz3f81vOdi1dXV1RmDCRIrDGf02YSAmYhDSRUjAJaSKlYBLSRErBJKTBiEQiCIfD6pchGjV9yP5gEnIYYZJxYAx7tw8rxWKxqF9KDv4yWK2ju22wzERiOfU5E/swbITU0oFqy+v1Yu/evdi5cyc6Ojq6iWm329U9oxE2mw3jxo3DpEmT1DHfA39He0M8UAwbIUk6Ytu2bXjxxRfx5ptv4vXXX4ekr84fCpg7dy7uvvtu9csGSAnpcrniV00Qw0ZISoSamhrcc889eP7559W5rKwslJSUdEtGLUVHG6gFWlpaEAwGcfzxx6t3cMwxxyAjIwMOhyN+lwnCcEJqkrW1teHqq6/GSy+9pAj4uc99DtOnT1eBUoL3jVZCrlixAk8++SQaGhrU38cddxxuvvlmnHnmmYqUutymTWkgIfVLpmSknfTXv/4Vl19+ubIfv/SlL+Guu+5CeXm5qpDRjqefflpJxa1bt8LtdqOzs1M1xNtvvx1nnXWWaqDapBnNdvRgYKhFTVKy1QcCAfz5z3+G3+9X52+77TZl3B8KZCR0/2N+fj4uu+w/MGZMMT766CPVKJ955hmEQiF1XZPyUIZhhOQLTiTk6tWr1QufPv0oTJ06VVXSoQD9Hgh61YsWLcINN3xHkXPdunV44IEHlPZgY+X1Qx2GEZJEJOl0ICmJyZOnqF9dSaMdieVkg8zOzsHFF18s3vZd6tymTZtw//3344UXXlBOz6EOQwmp+9kSjXVdQYdK/xvLnlh+IjMzExdccAEWL/4v9T4+/vhj/OxnP8MTTzyhbGwSV4dDpeFqGMqKnmQk+IJ7q6TRit7KSaLJFZxxxll45JFHVC9DbW0tfv/73+PZZ5+Fz+fr1iyHGg4NMZVi0NqBZGX3129+8xvlfVdXVyubkl1EdHQOFS2SCJOQIwBKPnaIU1Lyl/2Rv/71r5Uq37x5M37xi18oR4ekPFQ0iYahhOSLp4o+FFVPf0gcy6YjQ1KyP/Khhx5CWVkZ6uvrceedd6j+y/b2dkVMqnH+jnaYEnKEwY5wNlqS8uyzz8aPfvQjTJ48WUi5RXWcP/fcc/B4PPG7Rz9MQo4wKCkZKP2cTqci5S233ILDDjsMe/bswU9+8hP85S9/Uf2Uh4L67peQbLm62yHxeDDgvWn7AlnMPoJ+D+pd9Pg75j0fOHRvhLYZScpvf/vbOPLII9X4949//GOlvqneE9MbjRiQkGy9uk+M4N/q5WNguzDxuZ7QcR9MGKgyensmMajnGUVvQcB7eMz7ohEexK/xUP5W1/lfVCRbNLY8IRQMdcd/oOAzJKL2qqnGzzvvPHznO9/BzJkz0djYqNT34sWL1cwhnc7BpJXqGJTK7o0Anz6zP/iCtYTUv8nCQIQcMphdvhn5jVokLR7Hg8UaL5f8F5a3EOlRtGTkjUQjKU8//XR885vfxOzZs1WHOe3LP/7xj6Papuxztg9fbFgkAOHzdom319bdIq1Rq1RE/62TktFms0vlAU1NzTj//PNVSz/nnLNVF8dogMVmRX5BAdzO2PQ5Do9ywkjP/kP2K957771Kui1duhRVVVW9N3I5pxuvPqYa52RmjuSsWbMGBZLe9ddfj2984xtqPuloQ7+EDMrLqK7eiCUvLFHDW7rbwRK1xCRHPyB5tW3k9Xrwzjv/Vl0XZWXjMGvW7Phd6Q2W76ijjsINN9yA7OxsiNKG02o/aEImQl/XXUNvv/22miXFSc6lpaW49tprlfRk3yXv7ZlmuqLf+ZAs/C9/+Us1w5v9YQO9xEMROTk5WLhwIR75r0dhFf1tizfCRBwMITV4H0lJYbBq1Srlga9duxbFxcW47LLLcOONNyIvL0/dy3TTnZh9E1LOvrz8Zfzwhz/EJ1vrcPiJ01AwcYw0WQvskTBCUnC/5eDn79nlUZtIE42omAc9jfSwTc73sNH4px1SQeJM2A4y+YjUGcNQ4JKsbv2gHvWr6+GwObCpZhMKCwp7JcVQCcnAfkpKyk8++QRf//rX1dS1oqIiXHXVVUpScjrbqCZkOBTGkheX4I47bscuTxNO+f9nIvfoUoQjIimdNkStIeHs4F5qb4jxrAfbesTXV+ziVqi0ez49WAyca4k5yrUuwjpLz9ERUcmBMPLDLlQv24T3nnoXAW9svueUKVNgtYiEFMcnEUMhJAnGhqodHZKSmutb3/qWIiXV99e+9jVlU2pSpjP6bE58qTYx2hXkOJwZRHtuOzoKuuDJ3ov2vDZ0ZXZK8MCb6YPX5YNPgl8Cj1WQ812Z3vh9nfG/9bEHHlcXvG6vHHfEg5x3d+2Lg/HGQ5f8HXB5EYjfH4tjX/DJeb9cj+Vn33m/un//e3Ue+gpeyVeXuwNBdyeCkq7Kj1vnRe7J86I1LwhfdqRbglucMenExpJMaK1Bomm7nP2Tv/rVr9SsezqKv/vd79SwI9ct8Z7Bkj0VMWj5ziLaokFRltSTYtcEraoy5EhdZMOkYFAVpINciMqFqEUkqkgW3heN2tVxVDx18Y7kWF60xd4dmA4dJhudJvkvaBVVZXOq7pWQSB9m2SZxRBjU/YzLLg6FFUG5HpH8RHme8cn5oJzXcYctTgRsmWJuOOQ602EZ5B6rS51n4H3MO/MQlF+GsAQFZk4QljKFrUH5M36C4D0Mg36jBwYt+WhP8phrcrgsZN68ucq+59S1n//852hublbevmi+bjKnE/p9fZ9qaPK3yIEYqVhxJFm8Ilg5IWtUbDPepENELsUNvXhcVIR2HituUSXyktxlEZLwpJyLWGmj8iaxncIB+ZG4xU4LMlidQjmX2Jfx+1UmmS7NiFil6XO8h8+FJO6QIqRUplwjicUfllt4f+xe9Qw7ulW5+oHcZpNgVSo9nl4cAV1WA0GVrQccOBHjnnvuxUknnQSfr0uR8sEHH0Rra6uyOdNRffdJSIr9vlpYWJyR/SqO5VYxsUIkxMnI2pMjqTw6QkJGniIHJVijNuGeEEREn0MecYeDQtRYhfIZ3hiTdxF5LghnSIJUhisosjAURab8OkO8JvFK/A5xtKx6VIXPigR2y/3kfIY874j64IwEkCW2cZY8T8dMZUby65TKVXHLdWfExwhiZdIhAVz1ooqq+mhjOdWgwjYalJAE64fHHMn53ve+p0jJ+nr00Ufxhz/8AQ0NO7vVtw7pgD4JydbVbUP2gC0SUiTZBxY2Jh2VhJT/IkJK4ZzoWRuyw7nIjxajCGMxzl6hQqWtCmMt5cgOZMEeEmmj6pfP0mGhZBMJx/iENw6/BYX+fJSGx6AcZSixlKDCWo7iaCnyUSyEconXLonJvVS1TlG9xdZilebYUB5yozki1VgWSkCRvhZRtyKF2XAo6fKtBRJXMUqtZci3FcIhDY5tKl6s/UgZOyX/D0j5e1SyQ9HVeJBcerksj7nO+9Zbf4gFCxYoEv70pz/Fb3/7W7EvG7qHbtNFfdtuu+222GqjHmBBN22qVtudeEJejJ9XBfs4IQ5VqpIcrH3eKX+oCosZ+LZwzMazBe2KbOPt4zGjcAbmjT0Ws0tmYe64Y3HMmFk4IvswTMirRLZVbDep3IBIQFa0UvLSGEhLW8guUjAHU51TML/8ZHluNo7h8+WzMaNoBg7POxwVmWXIDLsREtJ2ifQLidU4Pq8KJ46ZizlFszC5YAoyRc3v7mhRJA9JHknGiJSD+cyJFGBeyfE4oXQuJudNRVXOBDSGd6PT27nPW+ZP/FBpecmbNFe017Rj96oGRIJhXPvNa1GUX6Tu6Qn2G3K0hbbdV77yFeUNDwUUFqwfrZL5S297woQJas8kblfz1lsreEWt8MzNzVX3pEOX0MERMnZHLEgNkTysMKpiu1SyI+xAVjAbM/KPxGkTP4OTK07A1LzJKM8qRVFGAcZmlKIsU0J2CSYUVqI4p1iMI8Dr7UDAEpAoI8gQQuf4M3Fi+Qk4Z+oCzBw3GxPzJqAoswCFEkexuxjjs8tQlV+JCRJyHLlo7eyEx9+OHGsWzpt6NmbkHYHy3HIUuPOwsakW4juL1A3HpKNk2BlwosxRjtOrTsVxxUejNKcUY3OL8caWFejy+6RU0jwSSZkAh8WF9uq92LVKVGOckIV5hfsRRSPZhExEYlpjx45VpGxqasKOHTtURzqnsM2YMUMNOTJvOhA985kKOOgmQydEaktVlPI/5IAOj01UZ3Y4C7NKpuPMw07HzDEzkGPLlitR+ODHDk8j6j3b4JV/JG+xrQjHFR6NsyYtwMSsycig+pXYXCEXphdOw2lVJ2FyThXcohA7wh3Y1LoZG1prUbe3Hq0+Md5FUo11lWBe5TE4Zux0FNsL0NrUglbPXpWjLHGAih1FmFRQJVI7ZjtSHXNURUxGjMssQZ4zV/JnpZuDna2N8LS3we2g06PcphhYdxIiUomUj9KW4yf3h67s4QDTokqmOmagBORQ5nXXXaeWRfA6VzLqXTP0MzqkIoYmw2mXSbmUChdpwkp1hzMwyT0BJ5TPw4TsSqk2B0RuYXXjR1hevQxPrX0eT218Dq9sfgW1HfXimfrhirowMbsKx1Ycp2w/e9CBTDk3e/wclFlLxdnIRHu4Cy+v/zueX7cUL9YsxV+ql2DZ5ldR01kvwlUcFWTi6PHTUJJTIqUKYd22tXI2IAS0Is+Rh6mFU+CyZCnpzrF4R8SB7Kgbk0S6Fol0tbEQUpaPtq6R3Iq/LHamw5Hwelh/LKcEno31Hny6UodT6mg1rNPUpOTsIM6nPPfcc9WKxqeeego/+MEPFCl5b+L9DKlEzoMjpJSH3q/+IxozrMSstEBcCBxZPA1VuSKRRNaRjCt3fYQXNryMNxreQ7WnGh941+G17W8qcq3ZvQFeqXyRragsKhdClSpVmiOOSaGrAHabS0m0be0N+OemFaj1fYJ17euxvms9VjS+g/d3foi2SDuCFj8cTlHz+bmIZAArt66SlKl2xcuWRlHuKkWuSGo75a/kNyrGZEn2WFTmVMJtcyvbsEOe+HDHGlidUTEdaI+yme0PSnpVWtWLsD9iOmJobfxgkUg0EmzatGm46aab1CwrOkDciIAbXNXV1an7EiVl+hMyAVRcyrcUlzoihMxxF6KyeAIy7W6eRHuwHW/XvoPGaCNaHW3wu/1igAXR4tiDmkA1/t3wPuq66tBsaVEq2eWgh8vOXyGOvF+LLfaSg+L0jBOnISKOC+26sCMEj60DHzd/jGUblmHp2pfwZt3b2La3CVGHBa1C0pr2OpHeQhx535n2LJRmjVUd+oyY4+BlOWPFphWvOmITmRjA2j0bsCfcJoawVJgkq4JKXRDLRkpDE4u/VOW0J7/73e/iwgsvVOdfeeUVNTmDKxu1ZE0kcSpgSIS0qPER/sb+OSw2FIrTUeDOh5N9jNEItuzagjZ/M4JOn3i2flGFAbkzCL8zgE53B9Z2rsH/rvofPPzvx/DUquexrrla7qXX7UUwQs87JokmFpThi8edj4VTzsKxOaLKw+Vwh9xo9TZj5a6VeGPPu3hrxzto7tqJkNUHe64Va2tXC81i/YpZGZmoLBgvqjlDbF4LcsVunCgOVT7tR/lb3B28J+oaeZIm60gTUP+mjhAZECQZ+yhJSu4wxwkyX/7yl1Wn+quvvqpIyY0JtHTUIRWQNP0SDkmBxKEZk1WEfHus388fDeGTlga0R7oQtLLfMq7uBHR+yLUOixefRLdhc6gaWyKbRYo2I+D0oBVt+Pe2D9Ac9sizYeTZc3FEzlQsqjoHV8y8DFfM+hounnYJTqlagJLcSvgCYUnPhy6bWIDWAII2H9a21InJ0CUNAci2ZaFMJGShNQ+2LhsKnGNQ5q4Qlyc2LLkr0IDNzZsR5TSknmQkWF9pREptHxKcqkbH5tJLL1We/t/+9jfceuutauaQBglJAuswUgRNGiFjkJYpqoD/KDFZpFCkDXa6r6xcCRy2Q8QualKCeNnsVWEHuN8agd8eRER0aViOOZlhVeMa/L3uNey2CElF0jlEjefbcjHWXoTp2ZPwmbLjceGUhfjmcVfi8mMuRoWjAnY18CwtXgzPZt8eVLdsFntQ7EuLA+PcYjPmT4TLl4WxQsgxGcVw2JxCYD827dqMoD0+SqPRk4Q9/05x6OFDqmdO5OV20ldeeaWSlNw4ljOEOHNIq+1UQFIJyeE6uxCNiNVbvPakvEGrWyo+U4248Q4q46CQhvZilnjRTrgRsmTKuUwRnDZRu2H4XB68smE5HlnxKF7a+ipqg/UiRXeI8+FVTodN/rkj2SiMFOH4wmNwwfQvoMo2BdmhPOVJuzOs2NqwVVq7ZEH+znFlixNTgUIUY1LeJBS4chGSDDG+zbs3ScOxSh7klWjixbPfDdZb6tTdgKCkI0hAkpNLHujYkJT8m32jlJRcDZD+Kjue/+56k5giQpKAeMyqwVH0sXW6cuSYFORdEYTE44vdH1WTFFxBN7L8OSgPjkVVsAylEbE/wzE16qVkK7Bhi7ceS9b+Fb9e8TCeWb8UT29chjWtG7DdtwOdEY/qDnVFMzAxdwJOnniiqOQMRcBghgMbdtWhXZwlu9i0udZclGeUY2p+OSpEfWdEnYpfXSEfGrxNYkXGHKB9heoHvUyuUH8mtYkPDbobiPYkSUlwUi/X5Hz1q19VIzgc+HjggQewYcOGblWdSM7hJuoBvb7uruB4HjnjJyQxUOVy2Nsi6rbV2wZfKCBksyBTpN6E3HJkyJEzzFEPIY/YeH5OoRLJZJWHK1xluOLYS/H/Zl+BS2d8EceMPRo54RyM8Y9BZXg8yu3jkesqhjPHimZHI95oehP/2PMaHlv1GB57fzH+ufUtNPlbRPJG4CYpi8Yjz5kNm8WFtuBeNAd3ob5pqxpjzxQCThDPenrJkShyFMAhspok3Li9Fi3+Nvgt8S9C8K30FnrwL9VBImo7Ujs5BD9Pwgm+3BKQmxNwiYomJTck0DOKSEbdTzlcxORrPmioCQhxcWKRig2LE7O1dTu27N0mKjmkbMSp2VUi9Qrg7nJBdDYsYar1gNiQTuSKaj0suxJT86owKbdM1Ok4uH2iiD0WsQ9PxvXzrsXVcy/Ht0+6RtRsAew0CdxheJyt2JWzB+sjn+C1jf9E9c5qBKIxpynfmScvVTx4caKcbgt8mSHUtNbFhg0lj8U5RZgzdQ7G5peqfv1OIeFHu9bD7xLpzSEnsV9HKygtNcE4dY3rvrkup7CwUG0DeMcdd+CDDz7oJqCWsPzVxDYaQyIkVS5BMkoRVGytoRbUtW1GG/vzpFDlOaU4depnUGGvRFZ7AZwdGbB3OVEQyEdlxkRMK50hdqCoWHGFW7s60OjZjZAtBEvIombpjMc4lFtK8dmJ81ESKpZnRa6FbBJEIkrauVnZyHRliVUg8lvS7/B3qgX89oiYDkKuDslHXcdW7I20IywmBUdo3FGR2CItQ9KAdnl3YU+gEV6R3GrCiGpgoxOUkiQapR8JNmbMGGVP0vumJ07vmzOFaFPyHjo7vJ+/w+X4DImQn4JIGK94rOvaa1DjqYPPEpAEHJg5dgY+f8RCnFu5EHNz52GehLMqFuCcw8/CEWMOk3vs8IQ9qG3+BNs9u9Bh78SW9i3YI+QWn1tUbRZOGjcX88efjqMzZ2G6cwaOds6SeObis1WnYGLhBIlDHBKRyzWNm8T+pMkQz5IzitbOJmzfu11i4oiQRSS3kFeu++WJmqZasUM76EbJ3fLS1Zy55EFLG4IjJvrv4ZI4iWCa2uvWBKuoqFBrci655BIlKf/xj3/gvvvuU5vy876QXvocvz+xPEYgqYQMWyJiH/qww7MNq7Z/iK3e7WKX+USSZeDo0iNx7rQz8NXpF+MrR12EMyaejmnFUxQZ28XLre6sxYc7V2NPtA1hdwS1nTVY2SR/o1U0fRCFlnzMn/RZXDTti7hg6vm4aMoFWDR1EeaWHY/cjFzVLbTFs0PiWKM61rl0grBIIwnYfdi0c6Mobb/cJ/ZRhNQMoE2I2NC2A11Rn+IirWTOKk8m+qo8knMkSJkI3TBoU15xxRXK0SEp2XnOL0RwthCJSFLqvKY0IWMmsmRShdgoL9Vih1BsdfNHWLbxJby981/YGtwh9mVAqCc2njsLefxQkhSUkx+agnuwsvEDvL7p79jWVS9eOPsCQ2h3evHG9rfwas3r2NRWK3d2wSktdlxuKaoKxmN8/jgUZ+fB6rCiSSTpqpZ1eKn6b9jkr4XH4RNHi3ODxa4V9d9h8WBTRz22+RrQYulAq6VTQhtqxbTY4dkOn42fK5F740scjAKXFjBo54IqdCRBsmk1zhGda665RgVuekBJSRvzX//6l5KUxHA0oAOaD+kY5xBHID4fkhJFB0VJAftfBBwZCYrabPHvxZaOHWjyNKHF1y4yTAgoHvGuwG40+HdjdeM6vLPjfXzY+CF2hBrgdXQhIgQiOaJCpkDYj9a9e7CtbTe2tDSi1d8qzopH4mhWYWdXI6p3b8KH21biw4YPUNu1GT4hMudTMkcW8brCEg+Hs8XkxB5PO5paGySueqxtrsbqXWskH43osnslz0IS8XIcSgLwYZakd9D3sYsN2lYtzlXCfMi+JuhyBzNWLOcociLtvHnzuj1grQpHCjp9NhJuK83FYzy3cuVKNTto48aNapXj+PHjFSf0/Ublu8912XxZS5e+qMZBd3U1Y+71J8A9J0sqTiQJa4sZUk4ArTJuuyR/d9tf8qLlDK9EhZ3WgAN5tlxkOlzxgkRVh3RbyIOQxS/qUySUEEfRSK6HLZSlsfFxZyCi5jyGfXYUZeQgR+KIyIsJSP6iYih6gqKIIyQyhwtjfW2cCMfVilxzGLWEJACOkEvIliGOUia4dCcs573iYYdEOvJYkpK8crKcRRqTRMLQG+Jvyx1xYduSenz02EoEPQGs2bAGh1UdFrvYA/zqLTuklyxZolQibbTTTjuteyZ3KkCrYTYULqf905/+pHZco3TkdxmZZzYk3sd7mG8tOZOJQRPy+OvnCiGzlXgQH1gRJyZKEqFfrlbgvC5HIp0UYRPAonCrAQu9DzWVi9flrBwqx0PsTtp7nK1Dd4XaIiPqEO9YCBmmpygnxGEJiSRmI2EflJpOS/YJVHOgKFPOijohscq5CGcTyVW5jc0otkpSrksUbE5MO0brT4N5ZoxMwhXJwPYlWwYkJN8jAzUNR0W4uJ8zu7nZPbteUhUc8+Z6b25uQAIee+yxqlFxRzbavyNOyBOunw/37AxlkylCEvGf3hGLlisUrewUj/8dG1jsponUcmLylI7S+iRtZ0RIJ2fYV6g6PNVtIjOFOIxDfuTe+DVC5yVOSJWCHCZmMdZ+5MwAnjSX2/YHWzSEzHCmELJOCPn+gIRkRzN/X3vtNTVKQonJSjWiQpMJ5ltLThLwtNNOVYvHyssrDCPkAcWoJIyu4ria6zvI/yTYRD8qSSUpkUi8RHZxZXRskm/iQ1LZYstY5SUoOzBOtqA1Q8XFW6im2U9JW9NiZR7kHl7Tcagf7kQbO2QMTE0UTTxLzIuk21fJ5bwjymWzvQQup434JKYgbP6AJM38x+BUCyD2B0moK5Q2GlcFspGz348TaCmFUjnovBM89ni88Hq75B3yzRqDASTkUpGQtyoJeaJIyLyjC+C3c3qXkk+iirW8GwTikpBzKGOQQonNRtUuFIyfSwDv5yPdEk/AQ5IqJh8lyNMi7SKUqnIzJauCRMd0mD8t6xgVVxxalHmgn5UbE+OXNGPP9SMh5RGbEDGzKwN7X2/Cikfehq/Tp7pIuMLPZhXpmxBlIikJShVWKHeboJOT6giFQmrnXkrGE044Qalx7n9ODLvK5rdSuCfhzvYGnHzN6SiYVixk7EQ4vtmURU0w6B/dkVt6t8wsSifvr0LVM5TAQrZuiZwAWouxTaBIKN4zeIjVKM+SkPyDz+57qdF4HvsrF/NmFVWWJ05S7fJavPf0e2qzKXqjlZWV8qzkJqGe+B4JVh6PSUYjJUyyQUlJEnJNzogSkq2aU95vv/021NTVoHJWJdyl2VKHIosoZeSdcrhvIOh7ewV5pQi5P/bFzwd7e1goqW3PPuLoC4qQ+naVzL5n2aVF9FcunTebD2ipb8XODTvgznArQqrdx2yx2aCjBZxswR2POc6tCXnEEUfEryYf/RKSC4L42TNuJ8cF6CY+DXbjcNYMN3YlD9mGuJRjtCClCMmFVdUbq9XHe9avX48IveWEu7ldSl+wWkWSUnqJeqLY52RQbunMAf25c+d2q7J0A00IVWzRFCwb++g4usEZ2bp/jr+jBSlDSIKb3pM4AZ8fHR3tiARJon3qiBNy+4KVxr2yuKC8M346jSMWp556Kv7zPx/tHrRPN9A8UKQkIaXRccKrJiA9adpVJiEPHv0SkmTUHmJvhvhgjFrGwc9YUJJwz5nPf/7z6iNAjFfHnW6g3xLrbRJ/P+6ocOdcVSb5Z4SxP1IYbkIO+s0NhTyUHInPpzMZpYmCX1sIiXPDX5ZClUX+o+SkS2Pi4HFAb09JAmn9OgyE/uzEnnGlU6CyUFIyoQzd+LQiMXEA6JdVB0rA3sA4eoLnejufDqAFya9AcMKH6sXUZWFxdDBx0BiQkD2DCXlpESGiiEj+64ZJxqTg4MTeoQxthdB45HF6msIpC5OQBwq+scRgSsWkImUJSc88MZgYOtLhnaYsIYfiSJlIX/TbMT5U6E5jTonnlwK2b9/e3TE+ENiC+bzkT01oZV+fkU4Vyd9fN1WyYXR5egPfKdfNcPydHw0dzIhSSo3UDBVDJSSHFzmhdfHi/wY/YM5Z1kZBf9xyuMCyGVme3sB3SjJyGQKXvXIblYFgEjIOVhif5VYf3HtmNIPEZHmHCyQWF5xRSg4Ek5BxUFpRpVx++WV49tnnVGvmrBojQVI8/PDDSn3zUxqnnHJK/Iox4NbKL7/8spqgwS9xcYKvkeCekPX19Wr1IAnJVY8DwSRkHHqs+7LL/kMRkh8ppy3J+HjNCIeH0+SYDtU3v9jPfW6SnZa2U1mOF198UW21zDXPnHfKT3kYCc7bXLZsmZr+R0LqD7/3h5SdXDHcYIUx2Gz77CxNUv2bbPRm5DMPyYRuUCMBbSPrd5uKSMt+leHqDjKi4hjfcOW/J7R0TmWkHSFTuXUPFqOhDEYhLSVkOoNdLyOlsgfTzTPSMAk5AqDqHAlSpoNUNglpIqWQdoSkZDFCuvQWp1FpjZRTkw5IuzdjhLpjnDoQVG0ZGRnqWJ9LJmhHjgSMKEuykVaEpGQhWZItYfQwZeLwXSI5k42RIuRwDk8eLNKGkJSK/Do+t0TmbzIDN35qbm5Wceu0uC9iS0tL0tNjnJ2dnepX7wZCgjK93u5PVmhr27tfIzOioSUDKTt0qMFZKfwAOVUov81nlP2lK+vBBx9UacyZMxvz5y9Q55IJkl2TgR8q4oZeHFM+44wzMHHiRHXeCLhcTjzxxP9gy5Yt5lh2MghpInkwCZkEQnLCw8KFC6Wlu5SUSbYdxnFsvnxWFCUk93rkBvBGgGnxvXDmzbvvvqsmzXJnD36eQ0vqZECno8EvK+zevdskZDIIybl73LCKxCQhGZIJkpCTD2bPnq3S4DxMbr+cbPCdaKJwu8Mbb7xR7Tl+55134uSTT05quZhGIiH5fUOSksQiIc35kEMgpJHTz3Q+GS8/4cshtuuuu059eSDZNquW7Ix3uKefLVq0SDWCVJaQaeNlE7q1J1s66vgSfzVJRxPSoTxpRUiShEi21OoLo42Qw/XehoK0IiRBkiSbKMNZUUxrpIhB9Uvw/aUqOdOOkEbACJL3BZ3WcKWXCD0cmsowCTnMoFPDkGw7+ECgbeRUhElIEymFtCMkW/dISpdkYCTUdbogLSVkstVNT5KTMDT6jSJ/ujcoI5FWhNRETLaE0QRJHI5kGkYQkvGOlITU5TOiXMlC2ozUcLz33nvvjZ81DjfddJMa2uOuFV/4whf2I2mysXbtWjz++OPqC2AXXXRR9yfbjMKjjz6qvjjGkZoXXnghJTcKSBtCMp6CggJDJ5lyjx3OUyQ4iYONwEhCsizcRIvmAdNiQzAS/HAVd+cwx7KTQEgTyYM52ycJhOSkh2effdbQEQa+/PPOO09JSv5effXVSU9PvxOGFStWKDOEn9u74YYb1Ff7jcQtt9yiPqNsSsgkzfbhp+l0nMkkio6T6pmVxNk+nKp19913J12N0plgesz/cM/2Of/887F8+XJztk+ywIokdKUmA4xHx0dSaujjZKWj0V98ySxXbzAXeRkALRkTyTMUaGmbKHFJDBr/PJesdAYLI9PjxONUR9oRkhXWc2r+UMB4dOiJvs4PFX0R3aj0NIyMO1lIO0KOFlAKm/g0TEKOAIy0E9MdJiFNpBRMQppIKZiEHAGkg3MxUkgrQhpdkTp+/ho1rsy4ddDg8XB2yfRMP5WQNiM12dnZ6jsrRk5A4EjN/Pnz1dAhZ9/w0yBG4vXXX1cbBJSWluLWW2/FnDlz4leMATcleO+999SIC0eJ+E4Hgjl02AOakCQi40jswE42SEhubcI8c1uTqqqq+BVj0NTUhJqaGjUsWl5erqahGYn169erGT/cncMcyx4iIUcz2NiMnOaWCN2wzdk+QyQk5yfedddd8bPGgTNiWGn82hVn/BiJ1atX48knn1SS8cILL8SUKVPiV4zB4sWL1RaAJJYpIYdISKo1fhvQSDC/JSUlarYP7cfbb789fsUY0CZm+aiuH3roISxYkPz9KBNx6aWXqr19SKxUtSHTysumlOS8yGQHxpuZmakCwWE9ht7uTWZgugTtYjaC3u5JZjDSIUwWzH7IYYYmu4neYRJSQMlBdT0c0OmYpOwdJiHjGE51Nlzk7wtsDCOdh75gEtJESsEkpImUQloRkl1IRjgFw63CRmJpRLog7SQkyZPsxUokY7JJ3h+MaFSjBWlJSKPQk+hMywjJOdJkpHROVQmddiqb6o6zcZIJxqkDwXR0GsmuuMR0NJjGcOxuy8+eaKQqIVN26FA/e+WVV3bP9jnxxBPjV43DW2+9pdKtqKgwfLYPv0HIGTgcsTn88MMHNdlhKPj444/V9xXNrVQOgpCc/UJJoglpInkwCXmQhKRNx0ms3EZuJMC8UzKnw44PgwHNEJbpggsuUNuqDMb0MQkZB18EJSRfGuNJBM/3PDcUMD7mU89JTIw/2Wlp6Hj1CJFRDlQimAYbF5dL8Hcwdqs52ycOErEnGVh5iRWZrKDJyLj5t05TX0u8d6ihJ0gSpp3sMvUWWBa9didVt1VJWUL29kIJTZBkg3Eybn1sRBqEjluXI5HwRoMNjmBa+jjVkLKENGEMUpWIGiYhDzGMdKf8QDAJeQiB5oEpIU2YOACYhDSRUjAJaSKlYBLSRErBJKSJlIJJSBMpBZOQJlIKJiFNpBRMQppIKRhKSD1ZQf9qcPgq1YewTIzMMKOhhNTESySkPjZ67p+JoYH1puuo53CjrlcjYCghWaCeGefUJ6MKYyJ50ISkAOk5szxtCakzzQJxuzmirq5O/ZpIfXBWOUm5e/du9Tcl5WCWPQwFhhJSTzrl7GTua82/16xZo/bV7mlXmkg9kIAk46uvvqoESllZmdrt10gNZyghSTot8i+55JLuNRz33Xcf6uvr1XoNE6kJLqvYs6dZrafh8tnCwkK1pkZvA22UQDF0kVci2tvb8f3vfx+PP/64Iuipp56KmTNnqqDXd5hSc+RBFc0NBWhavf/++2rVJ88tWrRI7fHO9eoE69CI+ho2QrJQW7duxf33369IycKwtY0ZMyblJ40eaqB05IYCLS0tinjc/P/mm2/GUUcdpeqNKtuodTnDRkgWkiq6tbUVy5cvxzPPPINVq1YpyWki9cA9yY888ghcddVVOOmkk1FZWamECklIMpKYaU1Itip6bSwEicmPBnV0dKhCmkg9sJ74EQB+lcLtdsfPxuqRZEx7QhLaO9Nin2TUnriJ1AO1GkHiJQoOTUiGZGNYCdkbNDGNanEmDh4k5HALjBFnAIlolIFsYmgYCe1lssBESsEkpImUgklIEykE4P8ACQ3PyYdOsrcAAAAASUVORK5CYII=;imageBorder=default;dashed=1;" vertex="1" parent="mZAhdl8hGZGRWwnMFbeF-73">
          <mxGeometry x="33.19999999999982" y="66" width="63.61" height="64" as="geometry" />
        </mxCell>
        <mxCell id="mZAhdl8hGZGRWwnMFbeF-61" value="Output" style="text;html=1;align=center;verticalAlign=middle;resizable=0;points=[];autosize=1;strokeColor=none;fillColor=none;fontFamily=Architects Daughter;fontSource=https%3A%2F%2Ffonts.googleapis.com%2Fcss%3Ffamily%3DArchitects%2BDaughter;fontStyle=1;fontSize=15;" vertex="1" parent="mZAhdl8hGZGRWwnMFbeF-73">
          <mxGeometry x="34.5" width="64" height="30" as="geometry" />
        </mxCell>
        <mxCell id="mZAhdl8hGZGRWwnMFbeF-74" value="" style="group" vertex="1" connectable="0" parent="1">
          <mxGeometry x="1048.02" y="-85" width="236.8499999999999" height="203.76000000000002" as="geometry" />
        </mxCell>
        <mxCell id="mZAhdl8hGZGRWwnMFbeF-45" value="" style="shape=image;verticalLabelPosition=bottom;labelBackgroundColor=default;verticalAlign=top;aspect=fixed;imageAspect=0;image=data:image/png,iVBORw0KGgoAAAANSUhEUgAAAP8AAACQCAYAAADHqr1FAAAAAXNSR0IArs4c6QAAAARnQU1BAACxjwv8YQUAAAAJcEhZcwAADsMAAA7DAcdvqGQAACQhSURBVHhe7Z0JeBTF1oYPkJAFEsCEhLCDooIgKiiLgKAgogjuyFVEBK6AIosbuxEUURRFEFBEBEQUhesOioD3isqmvwsooLKEJSQsCUlISALk76+mO+npqeqZSUIyTp/3eeaZdE+np2amvjqnTp2qqpCTk1NADMM4jor6M8MwDoPFzzAOhcXPMA6Fxc8wDoXFzzAOhcXPMA6Fxc8wDoXFzzAOhcXPMA6Fxc8wDoXFzzAOhcXPMA6Fxc8wDoXFzzAOhcXPMA6Fxc8wDoXFzzAOhcXPMA6Fxc8wDoXFzzAOhcXPMA6Fxc8wDoXFzzAOhcXPMA6Fxc8wDoXFzzAOhcXPMA6Fxc8wDoXFzzAOhcXPMA6Fxc8wDoXFzzAOhcXPMA6Fxc8wDoXFzziKMxlH6djcsZR0W4R4HBzaik7+sEp/1VlUyMnJKdD/Zpig5kx6KiWPbE8FOQepQkQd18mzp+lsVgpF3ZpINfo96TrnENjyM47hyLQHqCA/o0j4oGIIVYyuQ5n/SaSMzxboJ50Bi59xBJnrP6S8v9ZShdBo/Yw7aADS33qY8pP36GeCHxY/4whOLBpDFSPj9SM5FSKi6NjM4fpR8MPiZ4Ke3D3btX79QeHi2wGvAN6BUwKALH4m6MndvpEqVNIPvADvIO314XTq1Cn9TPDC4meCnrzd24lCovQjL2jeAUYDcj6YqZ8IXlj8TNCTv/83zfJH6kfewWhA1meJorsQzLD4maAG7vvppA3ColvBsB/G+aVonsLxOSP1g+CExc8ENRWS/9ZErh+YgPAjOwykClVipA0Agn/5ezaIIcLSBBmGp/7YKoKKeC7P2AJn+DFBDUR2/JXb3BN7NBD9j5vyrfg7dXxHMc7vgdYoFOSfoJoLkyk8PFw/6R8Qe/7BvZSzdS1lf7+czqT8LkwuApAFZ7QLzlK5ZRey5WeCmvykXVotlwhXE11oQn0Kb9qawlvf5eoCWEFX4ewpv4J/sOSIFSBbMOWpu+jQ0GaUOrEjZX0xjQpOHhONTMWqdURjhOfyzC5ky88ENalT+1Pu9lXumX26mx/7xg5h0ZHVd3hkMw/vwADR/7hpWyms0SX6GXfw/6d2/Eg5W9ZS3u9rhFcBy14hTE8q8pJfgIan8gWdKf7p5fqZsoEtPxPU5O/fJo30h9RuXujKhyY0oqjbNMusiVxKSBSlvV7klmOCELoTmB144P4LKPmhZpQ+rx/l/rJCNCyGZRei9yL88oQtPxO0QKSHHmzgYdGNYF/M0Of0My4wvReuuWpkANb5zPF9dCb1V9dJrVEQDUsJBY5GB41P9T4j9DNlA1t+JmjJT05yBdWsnM6kyhe30g+KqDFoupjeK8MV/d9MZ0+kiMZEPNCVKKllR1BRK2NUj3v0E2UHi58JWvIP7xV9bysQW2ithvpREZGtrqWwFjfLg3/gHLjxaGyq3z+bKkXH6mfKDhY/E7Tk7fhRntaLSH8dT/GD2FGzNTc8Uz/yEzE0mCHc+LMZiviBCVwX2XkoRfccqJ8pW1j8TNCSt3urZ7APAbnoOkpLW6l6HEX3sQn+mcGoAQSfe6xQ7GGX9KDqQ5ZQwmu/U/QdY8VrMtBIhDa6jmIfmaGfKXs44McELYjEC4GaXHWILqzl7RT3xFz9jJxDw9uI/r2Hmy+s+wnt+ZT2WjiFNriawi/vRhFXdaWChPMLRxCQvXcksaN8+FC7BzILaz3/Zbm4+wYsfibowLh71tfLKWv1S+7j+xqwxFG3JHqNrGf/uI6OPnsTVawaTwVnskWQEGnCIXUu1YR+G4U1u5LCmlwqFS/eP3l4M9fiIZLG42x2CiXM+l0MMZYnLH4mKBB58r9+Rye/WSxSaCuEhWuPGP3VIuDOnzdyJVVp10M/owYJQnm7vqOINndS+GWdKLxpK9EtsAPpvMmPtPXwOAyMtGJkFpY3LH7mH4mYELNnmyb2FZrov6IzRzTBG1l1NhF5iC9+ujpbr6QcHtOT8vdv9vA4AN67xkNLKKrLHfqZ8oXFz/yjgDue/cMXdGrrRyLIhnX3/Em0geWvuSit2BN17Eh9YSjl/vi2tJ8P4Uf1DqzlwVn8TEAjpsBu30I5W9ZQzndzxRh9hbBiZNbpgTp0Beq+/Zd+svRIW/I8ZX6cKFJ7raDBCWt1v9cgY1nD4mcCEuTOn1z/HuX+ok92QSqtxJW2BYI/k00FuZmiwUCUP/rmgaXe38ac/7RZ/aTTgjG6EFK7JSVMX6OfCRxY/ExAAbc+/e2xdDr5V5eFL4HgYYXDW99Cke1uVEbmS0rhkJ4s1qAH/RJe3ViuQ3oqWPxMwIA57dg4A8NrxXHpC/JPiQYDk3aqdL6dqFHRzL1zgZgKPPoKrYGqJhV+QW6K7VTg8obFzwQEhePqshV1ZOjiwth76PkdKKJ1T5FoU1ZCw2jD0SHNC627FQQjY8d/LuYLBCosfiYgwKo3eX99493N10WP1NjIDrdShCau8kiWsStvoA3pqWDxMwGB3Vz6QjThIy029onF5epKYxGP7G9ekQ7pIYOw6o1j/hE7/rL4y5Fvv91ASfuS6IpWV1DTphfrZz354otVlHY8Tfxd47wa1LZtGzrvvPPEsYyDBw/SN+v/S1WrVqHet/TWz8rJyMig9evW0+7deygsLEy7vhfVqeNZqT/+6GPxbL4fXN8VH64UZbrxRs+MuR+3/kg7duwU5QBZWSepc5drpPdX5tJbgeXX+vcR7QZQ1M0Dy7wRwNDjocH15AE+DQzr1Z6/PyADfFZY/OXE8ePH6crL21IVTRi33t6bnp6cqL/iDgR2U4+b6djRY5SZkUVh4WGUeyqXPlv9ibLBePyxJ+jLVWuoclhlWvfNGoqOlrvSaFQeG/WEuB84pT0/9uQoGjXafb16NBBNm7Sg3rf2pDnzXtPPEv3xxw664orL6aUXZ9Cwh4bqZ4tAOdZ8+bUoNziUup9++un/pOVOf38mZa4cI58II0FMndUj+pg9V6VT7zITnF1ZIf7yWJWnOPCU3nJi/htvUs34WKpWPZr27t2nn/UkOzubjqQepW7duwrBP/zIMIqKrkqrV63Wr3AHgoTwcd+zZ89qXsAh/RV3IPzhQ0dQQu1aNGvuTHHv+Qvn0UUXX6RfUQTuEa41Os1bNNfPuNi1cyfVjqtHDRvJ58bv0z5X9RrVxb2Xr1hGGzRPp5HiWqxkI8SEAJoPoK8tEmq0608seVhY46OvjhZDb+caUVZYfklZcR4NAzyEQIfFXw7ALV+0cAl17NSBGp/fmA7sP+DKVZewR3PHT2ru8mWXXSYsZps2V1FenmQXCp1ZM2dRSGgI9f3X3XQq5xTt2eO53zze66XpM6hajWq0+J23hcuOe+NZ5r4b92hxaQvxbCC6Clqj0KiRZ8ANnk1S0n5q1qypuHer1q3EQzX0Bqtd86mPSSyj5WMDINBcbzQaEF3OpnfEGvzJj3cTw4bnSoAoa/RdE0Xg0QO9K5C5aql4DmRY/BYgDPRV57w2V7it/e8bQHfd0Uc8cIzzsK4l4dkpU8XzAwMf0ETdkpIPHaZjx+SLPhw4cECI9OeffxbvPWH8JOGm39DjBv2KIhBDgNXvc/edou+O6/bu2au/WsSWLVtp7+591O++e6T9byu4B7yUxElP03VduhU+Pv7oE4qLr6ndo7Z+ZREpKami8dm5c5e4tvUVbYS3YQf671gEo2K1eBEx97sRgDcQXYfOpPwpvIEDt9Q7Z+vhi9V3sEqQzPprjVHGB5r1T0/VzwQmLH4dWOOnJiVS507X0uBBQ+idJUtp4w+bhOuamnpEPHC8eNES6nvXv0RjgEbCX9BwbPj2e7qyTWuKj48TQTbwyy/6irAW0EeGyw1Rv/TCy5STk0MzZk6X9pth9WvE1KD2V7enw8mHhWC3/bZNf7WI41pDA4vduLFvQ2S4R8WKFaluvbpujzNnzlBcXE1pTAHeQsVKlSgm5jxxbT3tIfMQrGDYrvasTWKozGgE0L/3B1cOfzzFPruycIks/FYq76q4VB80R279NSqEhlP6spf1o8CEA34asKhvzn9LiCwiIkI/aw8q/vFjaTRgYH+PAJkd8CT+3PWn6I8fSTkqxBoSUon+/eBgzRMYoF9VBK7f/fduem/5u+I4JiZG6jrDqk4YN0l8hqzMk3T69GlhlVHhN27+Xr/KhRHou7PP7cpAowH+/9bet2tdjTxau74oPx2NZY/re1L3Ht1o+osv6GeLwHc6+9U5tGbdap+8CxVI/sn8ZB7l7fjUe36/ZoWxUEb4VfdTzJApwj1H+efOmUcfLP+Q1n3ztbLbUVzshijRcAXCoh0qHG35EcWGBX9rwdtUo0Z1n4UPKmlWrWZcLC19Z5noDvgC3PItm7ZSkwub0PBHHqbxk8bSPff2Fa/98ccf4tkMKi48j4SEWkJAeKgq7wvTplOVKpF0b797aOToR2j8xLHCKmecyBRCNYOhwuhqUfT5Z6u08r8rXkfZjOE8Mwg4HjxwiDp0vFo/4wKehRGLkLFp02aqrnVXEBeA1S2u5UWGHHayQZpsRJt7ReYcIupWdxvj68jpjx37uZg9B+HjPdFwLVm8VHSvzkWqb/X7nhENjgykGqct8WwYAwXHih8BKQyhJWuVuFo1L1llNuB/16/7Lz0/zfuPPOPFl+lEegZNfe4ZTfT/EpZ+6LAh4rVv/7dBPJvZo/W1/9z5NzVt1lQ/I+etBQvFdT1vvkkMueG+uH+79u3E+0GoZpAjMP2lFyj7ZDY9O+U56tS+C11/fTcxDm8FAcc/d++gCy+8UD/jAt0UDN1dLBkdAGjkEJi8/94HqNdNt1G/e+7XXykeiAdgscs6b+1z7a6DXH6tEUCXAA1CZKchVG9pqmgs0KijQR7Qf5DoJsEbatCwgX6n0gUrAoU26iDv+2teyqnNbwfsPv+VJkyYYO/3BSGwQPfde7+wapUrV9bPFh9Urs2btlD9hvWpSZMm+ll3YF0jIyPprr53UqtWV+hnNU82JIRq1oylyy+/XBNYE3FskJeXS/Ub1KMeN/YQ16hISkqia7p0oj533+XmvVSvXp2at7hEu0cDj/9v0KA+3XJbbxF3aNrsYrr33n50c6+ehTEIgxMnMujSFi3pqjZXud0j6+RJatumnRixsP4Pvt9Y7dp27dpSl+s6i2HK3rf2oqZN7RsxX6gYXoXCm7elsJ4jKTSqHhWcOkMxIxZQdI/7xOvo0gwb8rDwmKpVryZiFeiydOvWlS61jFaUFqH1mlHW6lmapZcYkQpE+Un7qGqXO/UTgYMj+/ywCrC0Vaq4Ms9KCyTiLNP65rJgHHNugSf33NRpIqkIuQXolhmgAXt55kvUsaNmoX0AXaHb77hNdBNgtX3JIsTyXacPbZP3/TXPJO7ZwFi3z4zj3H5YBlQQlfARyDupWTUk1kDMeEblwXk78D8XXtSEoqMlm0Qw55wJ4yaKBj0mNsZN+OB0fj7FxvqW/Yf6MWjwQOEVgmMzHqD9fWuIBCIs2qEavqveP9GVoyABS42lLwo8B9tR4oc7OjlxirAMMiBwPMaOe5K++XYt/fzbT7Thh/8Kq1GjRg3Rf7SC69FAwOVe/uH7JYpsM8UH8RFVQO/s2QKfGmUEPTEK0vSi5iLWAbBMt9ijf9M7Yifeg4MaiAg/lu3CSISRSGS3zz/6/nm71orrAwlHiX/duvV0+vQZD8sAIGKcx5AaJq8YE2cwhg13cdn7roixuQHI1ywK+pPTpk/1a7iPKX2OHDkq/V0NvDXKyL8YNeJRke5cuXKoSK4ClS+4VDxDwEjeQUoxhvayvphGR5+7iZIfbi2m9yKZKKLdzVpDIc++xAIlJ95z3xW4vHGU+DF7LSJCbh0Q6X708dHKSgKrMuOVlyg+Pl40FHDza9WKpw9WvC9NiWXKDvT383Lz9CN38FvVqeuZgWgGwdiBAwYVzj5EkBCzEUFIrfpi0VA3kE0YFuOaW6CBef3IKIRnINsrQKD9T/7fGwLK+jtK/MjQU0X30S9s2dLVyqtAAzB12rO0acsP58TNR7cEFREPWCI8Y9iqvDHKZDwCoUxm4KJXrFhBP3IH4seIhwp8lnv69hP1wvAc8Pfvv7vyLkJi4kW2nhI9rVjML8DEJBvQ98/6cpF+VP44JtoPYbW9sr0ICMnwJyIMYZZGRB9l2r5tu0iIwQOZfK6uhMt1hAWCCwpvo9M1HUU+f1mMJCA5xigThIWuDbpLyEo0l6ltuzbUtet1YsJOaYNGBvkJ2ZI4CzD/TgjSTZqQKM3XQDcNiU+yKcf4/u+7t7/I9TAbBaML+PmqT0WD79NCI76g5wLUXew536I8cIz40cJ3urqzUvz4wRHUQ99eFTgqLVCWDz9YIVJOkw8lU2SVSDfLYwVlgwCRlIMRheEjhvs8bOUrEMK7S5fRp598JgTvT5kaNW5Egx8cVOLuj7UMmBuAxsYMPLSE2gm06svP9TOuVGLMuZCN4KB7hmxKJD1ZGTbkIfr551+kmZ0I4q766jPh2fm8xJg3Akz8jnH7UZFRoVWgkqekpNDECZP0M+cGjCFf3/UGeuP1+cIqoTFC5VOJDOA1XINrMcHooSHDRa5CabnfSOu9tnNXUaa0tDS/y4T/GffkeCEm9L+LAyLt3a7r7lYGpFzDmpsfUdFRHm48frfQ0FD9yB14LPUb1NePisD3h0lTMuGjwcCcBaNLV/WGAUL4RmqxvxONzFSKlyeBlQeOET+sOaL1cKtVoCIgVfflGa/oZ0oPuLGYR/DyjJnCQuFhJy4V+B/MKfhuw/d0w/U3ii5IcTHK9HTiM6JxLEmZINbffttGN97Q0+8yIT35wUFDxX28lQG/nzVT8IjWIFaoIO/zo6tiHeNHKjZ+Z5WngKxF82QlpPBilx+kFlfrN1vswS8aAaMhkKT2ykAeQPRto/Wj8sdRAb+rO1wtXFU7YF0wEQQWurSAVbvz9j50+HCKuH9pgIYKgh3Q/4FiNQDo16NM6O/CwhZH9FZQHjSyKBMaFl+A1/HqK7PEEJsvZYAlr5VQSz9ydRXwGazdAwNXfKJoZ100NMuWvif9HeCJYVky2SxFgB16MUU4btwiwjp92O0Xk40QCxBTj3OPyRsC7Rxej+w81KfdgcsKR6X3wiXt0O4aUdG8gT4fxu9L2o+F8OGmnxdTo1QEZsXoe6/+6gvlWn1WUKYRw0eJxJdzVSY0Tu9/sMy2TGggMC0YnoyvpKWl0/w35xUGGdH16dzpOtGAWUE58PmMwB0amqcmPi28FCsQPmZbvv7GXL9jPmiAsGNwzta1dHLtfJdHgD0Fta/WeA7Edf0cl9sPl+8/Kz+SunxW0AC8Nm9WsYNrEBncWW+NDSopKhBWvkE2GsDQVXhEuLCmqv6sASouujTmxTVVwOJjhp2vZcLIw+l8lzVDmUK0siBXAuWyA2W6ukN7pRUF6HfbDb/KMAfiALweLK4iEzQ+A6Y1Y0jWaIRlDQ0aT0ybXvzOIr+FLwM7+ZxJP6Y9jmjeQk0KrdOwzBYX9QfHiR8VGnO8UTl9sXrI758151W/GwBUyn739Ld189F/TU87QZe3ukxMqcUS3oaLimWwsEDml6u/ou+/+8FjsooViGLhojdth918sbQoU8aJDGp5eUu65ppOIvcBbjYsOcqEFXo2bdwk1gKIjIywbZjsGk9vZYFwMzIy3dx59N/RECHl2vAoIGpk5sm+Z4j62uu60N1976Y+d/RVCh8xgUVLFvrsOQULjhM/gDDRL0Ur760BMCqh2dX0BhoYjB+jj68SB/IKrrqqtRi28zZ2D2uNtfuysrKUVhKibd78Elvrj+BeaZUJ4h03doJYlUgWMQdmy2sFLviUyVOVosXCpmPGPqlZeM/sPLNIcZ/npj4v9eTw/ldqn2fbb9uljT1exzlkadrtgxCsOCrgZ4CK/dqcWZSackQ/owaVA33jgQMG+xxYw1j17t17lSKDRRw1eoQQqi9JO2h00H+GhVKNVuC9Nm7crAy0IYDprUzDHhric5ngdi9avFD0kyFWGfjudu38U1omrPCDYJwVCBIN3KzZM0U5IHTrwwzuowr24f23bN6qFD7KjdWLnSh84EjxAwjqxZdfEJXeG6g4cLvhxntrABBUfHbyc0p333CFZUkndqDSL1g4nwoKCkTFlQERbN3iuW49yjTr1dnKMiGIhuCmbA1Bb7z8ykvKBgkgboHdg6wguUbmxeCzYckwq8hVHDp0yEPYZvCaSviw+KWZnv1Pw7HiB4jkPzn2cdGv9wYqECZ+PDxsuG0iy6K3F1N8QtHQkhmIbMqzicUOIMJCPfb4aOlyWwCW1JiQYua9ZZ5utwHK9Ohjo4o9qoEyIYMO4+My4Glg2XErqSnyefFoSKxLhtmBFXvsxC8D3bgFC990tPCBo8UPYIH/PWSwEIE3UMlgMUaNfFQ/4w76+kjZlfWB8X9t217lde88b3S/obuw4DLrD0tqTEgxQJmwQKmsT2yUyV8vxAr238NCoTLwnUGgZtB4In4hE60qI08GhvmQ8eiv+LHsGmZ4Oh3Hix9g0gc2ukDAyxsQ2C//94sINFnBZhjY707GyZPZIpBWUhCkhFuscv2tFhVlQpRcRqZmAUujTLCgF118obJMx465e0rog+P7kOHPqjuZmZmicfMXNM5vzJsvAqlOhsWv8+SYJ6jLtdco3Vcz6P+/OH2GR8X7eg2WB/OcPwBXFhbWl0CaLzRo0EDZz4awzHz/3ffC0lmBUDGcV1plwqxDeBK+YF1N2AzyHMwZeXbAfbfbugyfUdUg4Tcc/vAI4T04FRa/CSSkIL3TKiArcDNhubAykJk/NJdb5oJCFEgtLi3M6a1WrO+vSqJBw4XcgtIiLi5O6WFYg3dYJUcW6QeRVSJ8jr6LXYEUkX6IHvsEYqamrAEwvqcxT4wVz06ExW8Bq/XUrVvHqxWDhTf3G+36n7BOqvXti4Od5cT2WAYQ+N9/7VaWCUlFZUG0ZZRBNTwHkdavX08/8k7a8TSx25EMfHY0uKMfGyV2VpIB9x8JVLIunBNg8VtAn3reG3PF3yqXEUBQ5kAWtrGGGyoDWWl21tpf9u3bJx2vR3nNG3yoNv8EEF9ZrDSMMiHRx4xqeM5afm/s2rVLafmNwCFGVjA9V+XNIS0YsxpV+RHBDItfAtzOV2bOoHQvIwCZmVmF/f6jR48qKyJQZcEVB2wQIhOPdZjMlR4rn+pa2pw4cUJpzWvXds/SQ8adSvxYIchX0M2SdWmAOXA4cdIE0SXB/WVgCHfUiMCZaltWsPgVIAmo/dXtbBNYzCTtS1K6oBAg8uJLA0SosfqPTDyYGOSrKw8xqDyV4oAFNWRlwvsgHmBm394k5bWydF4VSUn7pfcB5sAhYg6TEicq8yPgReFe52Idh0DGMeLH2LK/Qzs9e/W07fuji2DMAkMQS2X5keWGSTqlwYI33/LoQwNYtYTaCdSoUUP9DCp9lBCBDATcfvrxJ/2o5KiDne7xDrvoOq6tW7eufmQPPC5VbgGoGlXFLXCIJCaM5qjcf+RBLFywyFHDf0EvflQSLODQ9dru9NAw/8a0o6KiRN9RBqwUpoEaILnGvM+eGbimK1d+pB8VHyxUiQCVrL+Pz4m99ozGCGA7b2zVLQPXYR3B0gI5/CorbI53IDaiivSf1RowX2MjiGeo7oOGEEFbK2PHjdH/koM1F0Zq7r9Thv+CWvyI4mKpK6wLh8UeIGQIyFcwRq6qYNbhOyTXqCw/xPrbr9vE9NPigjkFWKFWNm8d4LPd3bePfuQCAm/eopm0rwuh7tO6KiUpkxHvgFhU4+34TtCIGiA2gjUBVJivtQMjHljgUwY+r2xXXngCEyaNV87nwHeC/50y+Rn9THATlOKHwDFnH1NGgZHaisDOrJmzCyutHYj+frB8hTJQl30yR6S1AlR+LDqpsnwALvj4sRNs5wWogPDNm0pYQWLSAwPvl46PY5tuVdcFZRo3ZnyxIt0o04oPV4q/7aw5Fv4wj/PbxUawwKqvE3pSUtWNLQTcqFEj/cgduP8dOrZXfif4vbGXoxOG/4JK/KjEED1WkoUYkQNvFiT+RlTa2wq9qNjYwlslNgQBUYGMiSFIM1V1DwyMcmCDCH/Ehqm41k0lzKCio3GTrUsPOnXqSFmZ8kAX7ocHPqu32Ypm0Lh27dy9MAc/W2t8ZFYYZbOm6qpiI7gW04N9Ze+everug5fA4TNTp2h9f7UBgHcFwxHsw39BJX602nBl8ePJhAJwDXZz7X/fAI8Kjx8ba8BDbKiMqnscPXLMLSceLigqnDfg/iPgdPNNt4j3UVUueCZwx9GQYbVfuwU2MRw5e84s/cgTjFqcf0Fj8Xlk4L54DUthIdqtKhO8G4geC4JMGDeJasbFFApblbGH+17Q5Hz9yAXcftlngSVGRp6vILtP9Z14CxzCQ5o4aZztZC7XDM5H9KPgJOhW8sEafR9/9InSXTeA9c7OzqHGjRuKSoxKeeDAQSFi2Qw4A4i32/Vd6enJRVsuQxSqHWNUGHMILrr4Imqo9U8xvp2bmytWxtm5c5eYZIQKqKrgAFORn57ylNeZgmhIsGCnbJFLM/hs+PwoE4SI/je8GiQzWcuEfjN2MoaQ0GjIZjPiftbdctCgybpI+D7+/eBgn9cUQOOtms6L7+Xz1Z96nbKLfQaw3LgqVwBlwrZswboJa9D1+Xv17qV0c83ACkOsSMlFpB7PqLx2woclQ0V59DH3hBBYflU/VgXeBw9U4DVffU3vLFkqBLRt23bxPtYuixVU8EdGDvdpijCy3K7r2qWwwVFhfH6UCQ0oyoRnWZmQu2DEGFQZe7DADU1Dj/BoVPkA6Db5kwWpEj7A8KYvgcPxE8fRiXR1ZB/fRTAP/wWd+DFLzS6d0woqkPGwA5UfSTFzX5/jEZQ6cuSIMvjkDbwvRGc80Ch5K0vyocNC+P6svDPlmcmUkJCgDHSZ8VYmfBfYostAJUR4EfGmBB8Mz6kaZuu1dqALosrXByGhIT4FDuEZYHEVO/cfw39PPD5GvGewEXTiB8Z4LippaYD7oG+NRTxlU2DhOahcx9IqA0BXBa43lh/zd8ktDPthGbCqVav63DCqwGcy+vKw5naZdmZrLjwkTZgy0Hj6avkxuqBKWxZlu6CxfuQdeE4tLm2ubBTxufB9WYf/MGqD7g66Duj24WFkCKKbhe5noBOU4oc7igUgYR1KKj64yqgAy5a/q1y9F7vrqio/ppR6c7d9AdYJ1nbJ0kUlWnILC4Eiqu7LwiUq8J0aQ2nZ2dnKTDsMJZrdb7vhOXQpfB3jt8sVgIhVv5OKqc89Y5vGDe9n7dfr3Yb/8F0OHTaEWl/ZWvwe+dr7ovuDxhDrKKqMQSARlOIHqABYxx4WuziWDv8D97r7DdeLHV9Ui17gxz52VD52D9HPnvOqWOMOATIc+9MYoSJDpHg8lThBrJZb0sU34A7jPlg9GJ+vOGVKSU4tHErDnAVkNuIe5geuQ8Nndr+Nqciya3GdL646QK4AsN7Hda98qlnTfRahN+D+4zdCHEV2TzzQkI0e8bjbaAjKjd/fAPGmuXPmiQbhn0DQih+gAfjfd99orl0vYTkhIvxgxg8KjL/R8kPwuA7P+J8161aLqL45ZdaKXZopWn9ULKyRt/nHH0Q0G1YElQxlwfugPMYDxxCjUVbsfz/5mUTa+tMmnwJ7/oAy/fTLFlEmiBSNk12ZUGY8o0xvv/NWYXlghTGUiGm75gdSny9t2UJcY4DYSL16dT2uxWiLdUjQDuRqyO6DR82asX7lCxjg++jWvav4ffB9yB4XXtxE7FVgCB6/b7Vq1cTf4JJLmonv7EpN/GFhnqsnBRqO2bQDfbSNGzeJBTgQ2Uc6LiozgllYAAMVsHmL5lr/r4X48ewEbwaR4MGDhmiVw30YDQ0KKsx/PvbMn0d+ASb6YFELuIoGmPraWHPtMUaNCuyrJSwNUCaMne/csZPS09OFOw/wvWBiDsp0SfNLfP5emMDHkTv2ALTeaKVBSUSGfqBsxxjcG1bSbq86hilPgtrttwMWzJ9+pgrVklToRlj3kWeYQMKx4i8tVAku/iatMExZw+IvIapFO/1JWmGY8oDFXwIQNziw/4B+5E5pL9rJMKUNi78EICKOITCZ5ccyUr4mrTBMecDiLwGqRTkxzIdZev+ELC/GubD4S4AqzRT9fSS58Jg4E8iw+EsA5t4nHzwssuPMj4P7D1HNOP9STBmmrHFskg/DOB22/AzjUFj8DONQWPwM41BY/AzjUFj8DONQWPwM41BY/AzjUFj8DONQWPwM41BY/AzjUFj8DONQWPwM41BY/AzjUFj8DONQWPwM41BY/AzjUFj8DONIiP4f5v4FnEqf7ZEAAAAASUVORK5CYII=;imageBorder=default;dashed=1;" vertex="1" parent="mZAhdl8hGZGRWwnMFbeF-74">
          <mxGeometry x="69.59999999999991" y="47.72" width="99.65" height="56.28" as="geometry" />
        </mxCell>
        <mxCell id="mZAhdl8hGZGRWwnMFbeF-46" value="" style="shape=image;verticalLabelPosition=bottom;labelBackgroundColor=default;verticalAlign=top;aspect=fixed;imageAspect=0;image=data:image/png,iVBORw0KGgoAAAANSUhEUgAAAXAAAACbCAYAAAB77cDKAAAAAXNSR0IArs4c6QAAAARnQU1BAACxjwv8YQUAAAAJcEhZcwAADsMAAA7DAcdvqGQAADHBSURBVHhe7Z0JmBTV9bevUYwgi4CAIIKgMIIC7nsAFxANLjGCS1Q0e4xbcIkxiRqXfERUjAsxSjSo0USNcUFU+AcXREBBhQiyCCiCOIjsOG7oV++9faZreqpu1cx0z0wz532emq7urp6uruV3zz33nHO3Kisr+8YoiqIoRce3Mo+KoihKkaECriiKUqSogCuKohQpKuCKoihFigq4oihKkaICriiKUqSogCuKohQpKuCKoihFigq4oihKkaICriiKUqSogCuKohQpKuCKoihFigq4oihKkaICriiKUqSogCuKohQpKuCKoihFigq4oihKkaICriiKUqSogCuKohQpKuCKoihFigq4oihKkaICriiKUqSogCuKohQpKuCKoihFigq4oihKkaICriiKUqSogCuKohQpKuCKoihFigq4oihKkaICriiKUqSogCuKohQpKuCKoihFigq4oihKkaICriiKUqSogCuKohQpKuCKoihFigq4oihKkaICriiKUqSogCuKohQpKuCKoihFSoMV8I0bN2bWjFm0aJFZtmxZ5lkyfDb8eUVRlLpgq7Kysm8y6w0ChHfkyJFm9913t88nTZpkzj33XNO3b1/7PBfEfeLEiWb27Nlm3rx55pNPPjELFiyw73Xv3t3stttu5vDDDzcnnniiXVcURaktGpyADxo0yFx88cXme9/7nrn77rvNWWedlXknC6L96KOPmjvuuMMKdhS77GLMBx9knmTYc889zfXXX2+/Q1EUpdA0KAF/6623zPr1680xxxxjpk6davbee+/MO46XX37ZDB8+3MyZMyfziuPyyy83hx22jena9f3Acl8fvLLSvREwf/5nwedmmbvuMmbuXPdav379zJgxY0zHjh3dC4qiKAWgQQk47hPE+LTTTqvgMkHYTz31VLN06dLMK8ZccMFZ5owzhgQi3zh4dluwLAqWZrwVC2J+0UWzzEsvuecPPPCAOeWUU9wTRVGUPNOgBjHXrl1r2rRpU0G8b7nlFnPIIYeUi/fYsSNNWdkb5sYbrwjEe37wyvnBgsUdJ94bypeSki/Nc8/1NPfea9+w7hn864qiKIWgQVngWMT4vps2bWqfn3feeea+++6z6zfccKkZPvwMu27MZ5nHHweLz+pGuHPZbP++8858c+KJzk9OA/HUU0+Vf6+iKEo+aHA+cPF7h8V72rTHTJ8+XYM1EW7YFCxY3zvYZxWJF+4wK1bMDyxwU+5SWbhwofrFFUXJGw3KhSLijdtExPvtt58LxLtDsBYWb1iTeQwj7pJcKou3MWtN+/btgu8J7HgM+YBu3brZgVJFUZR80OASeRDQ3/72t3Ydy3u33doGa9vlLNAyWNa6VUuccEeLt4CIDx9uzG2MgwYQAXP11Ve7J4qiKDWgQbhQiD4h5nvChAnmpYw/gyScYcOGmXXr1pmyshWmU6fNpmPHDYE1fojp0kXiuH8RLFHCDX7hDjN7dqkhnPz++4355z/da506dTLjx4/X5B9FUarNFi/gWNxYvUK/fsYceGAX06PHErPvvn1MixaNzE47bZ15FxBh/N6XBMv7wTImWMLvRwk3RIv32rWlplEjY7780pjGjY1ZvdqYUaOMuf12936aUENJ81f/uaIoYbZoAX/sscfKMy0J5xs9+thg7Wb73A9WNxmYfwgWfOU8r5pwJ/HCC6XmuOPcepyI03PYY489yrNByfQkQSg3AUlRlIbJFivgd911l/nVr35l10ne+cMf9g/WrgmW6LDAyZPLTNu2W5mSEnzg4jZBtLHGK4v0xo3zzdNPG9O/v/Nzx/HFF6WZtYp8+imJP+7z8Pbbb1dyp5CSj8uHl7t3N+bZZ93rUVmkiqI0PLa4QUzcDUSZVBTvAcHa74OlmRXqn/3sPXPyydNN48Zu4fmyZbOtO6UylcV71KjPA4u5+uINOwTtQtu22cHN48Qcz0ADhHj37GnMzJnGnH22MSNGuPdI91cURSlqCxwXwyuvvGIt0unTp5cPUAqkw994I0LOYKSzsgcOnG3XYcKE3qZbt23tuvODhwcso10mgwbND0TbmPvuixdu8Im38MUXxnz8cbB3we6x6+JKCfceVqww5s03jXn3XWOGDDHmu9815o03oi12RVEaFkUn4FLeFV9wbtGpMD/4wUnBNjcEa1cEiys+hbV99tntzP33l1rLt29fGcT81L7viPd1i98a0W3atGqW9zfBUd5qK7e+bdBmbNpkgt/hhLlFC2MuvNBFpjRr1qz8dyHU221HJie/2w2EBj/b/D7oTNxwww1qiStKA6doBPy5554zt956ayUru3//fcyAAUeZvfbqbh55ZLz5xz+esK89++yDwbv/Dhbi9pqZUaNKzbx5ZcF7peamm4x55hl84ljeSeKddaHcc09pINzGnH56tHgj3Ntuy3ul1rqOAt+3iHCYNm1cwwAXXGACC9yYjz4y5tBDjXnxRWP22cdZ7K+/jrvFmNatW9tjsWFDXJhjemg01JrPH7jxVq1alXlWc3S8Q4mj3gt4VKVArOuhQ48zAwc6ETbm21a8hw27zFqx8+cz2ocVi0q6VHis77fe6mPGj18XiPZ7NoSQ4lOOdBEmDz9cag4+2JguXaIE3FndGzc6kT3iCCe4uWB9L1lizH/+c6np2LGd3WcBDX3ooWBvgt2hh/Df/xozbpwxe+zh/hcWPIdBaqzkCzdOQMSNkg8Yg5FksZpC5UzJGlaUXOrtICb+beqVRFUKHDPmqkC89wpecenvEyZMKRfCqVOxvD8PFsIFnXjj+/7jH3e17pKmTUW8JeMyzuquPHjJoGVLEjQrUGpWrHBW/V7BLmE9Yy1HgRsFIcYtcs45J5ijjz4o844Dl0pZmTEzZhjz8587sS4pqdgQ8NnDDss8yRNHHXVUZk3JB4zL5IvvMuihKDHUSwscP/deqGGGESOGm4suOjPzrGLNkkWL1gfbuszJbFGqwGzNuE5g2LAF5sorO1kBX7fOWd0lJbm1T7Cw58e6R2DjxlLz1VdEkMg2peadd0zQIGSeZhg/nmQhY7bfPiu+iDdgRS9fzr7ivnGvzZ5tzBVXGPPqq8R6Z7flu2RdwGPyyCNu+zhOGvucadmld+ZZNMtfm2gmXDrMrmuRrfyB4UHJ4jjSnJs1S2abJ4a5a1oHqxUfBbfAiagIwwXOa3F1svF1i3iTuEKxKSfeCG5F0V29+qty8X7yybsz4k3Sy53Bgng7/3Dnzs4Sx9/drt2smHBBF+3hg4FLsiodWN6VxRv+9Cc36PjEE+4xl513duJNeODjj7twQlgbGP0INsLNgGWueAudO2dWYmi/dz/zrW1aRi5bb9vSNGrS0qxeTK1zd4xVvPNHaak/+qjtnvHnhqVRcG7Wf/BeZmvcaireSjwFEXAsaDj55JPNmWeK5ezEHOuEELlevXplXs2CeFOvG/Bzz5jxQHABNw+eVbaWKTp17LE/tGu4VrL+8IeDpXWwOPHGfTJgQLOMaG8OrOeDAmGcYd9zOHcJiTlTprhXfGy/vbO+iSIRVwnhiiwC46wTJpigQTGma9CmhIUYi5yoE5JyVq50A5psGyZOuAU+H0e371ae4zPMN18b06ixMe+9SC9Fu+j55k2PFbDTPv3tsfexdXCZLhz/kF3HfagoPvIu4NQeefXVV61Vd9ttt5VPYkBWIcIt4nPkkUe6lQwMVop4I4YuBDBXuPFbsywzd9xxk5k9+107EcPQofhw2fbdYHkmWLKQoEOGZTbaZINp375nZj3r58Y1QdheEkSa4EphzO+FF0jR72Nn72Expof1gRNNcumlztIO8+1vG/Ob3+CqMeaqq1w9FCJMGKOKsuTDYJUD9VRIAopjl0MOM18xBBDDVsEZ//STNWbVXBcPH9WQKtVn0qRJmbXK7DbwSPMFZeZj4Nx8tm6N+eBVV3J48ODB9lFR4si7gBPq93GgYL/73e/Ku+Z9AlOUkLeHHz4+sMr72BndiSwRCLsSawPL24nhOvvcgWhz5WM1nmmmTx9qLrvsocACP9YMH44rBvFmGwYusb6z4KoQ69vBI26WyoOUwIBkGInp5lHWaZNuvNHNTD9kyKzglc+D33WpGT/+Hfs6kSafByKaa0kToYIAn3SSsWn4l11mzEGZccwkAd9mm6yIM5AZx4577G+tbB+bVn6YWTPmYMJqlLzx2muvZdYqs30bv++L8/bFJibNduy/v/QqFSWavAo4QnzGGWfYEKqfE0YRgK97wYIFVrxPOqlNYG3OMqed1sVGluAPhx9nZjxAkIkwyYq3CDdhVMyO4wYmzzsveAgYMyYwZ+22bPffYMn6DhHqtWvnmg4d+gQiLrHSzl3iIxStaCGuW4RbwA3CglDjRhk0aN+gJ/CsDR2MEm5g8JLwQrIugZ726ae77YFDgWUtIp1L7us0HlHssOuembVosPJWzcu6kNT/nT+4nn3JZR32G2i+jjm/8K2gkf54zvTMMxr1hFZdafDk3QJv27Zt+QAlbpF//vOfNvsRq/Pdd51ajRy5xD7iXsHvLck5TpDFbYIoY81clHnEb9AsaAimm7lz3RyWrVrJHJN85qZgwfrGwnbWdmlpHzto6fALt7B4MX+zgp0r3mEQcAYycaf06JEV4ziaNMm6VQgX5DMMVgKRKN26RYt/WLz5HBY4351Li049rY/VZ4Fv8+2goZ020a4TY6zkjzc8Prhtt9/RNG7l8X0FIOAyuAw6h6qSRF4FHGuuefPm5oQTTrDPEWe46qqDzPLlWwVi9z/7nMQRwGIXvzdRJFlBRryxuqn0VLF64K9/7R7dBMTiOqFmNzdHNqZ77dr51nXiQv7SiTcwsOg6BlmXSRxY4VjNJMoliTdCzXYi2ESSyGd47N07K8oi2DzGWeRRdBt8ktfHCpuD718wjgzVyuMQSs2Yi2URw65H9DNfZy/PWJZNfdU+yj2iKD7yHgeO1Q2k/44YMcJm+L37rhP011//xpx++tM27viFF14w119/vXWl9OvXLxD70cEW4g5hyjEiWSqKN9b3D38YjgtHwJnsYGiwlARLFmaF79EjPqY7l88/L7ViLGnsVBn0CTiWMm6R8GMcYRHGl+2sfGqfuMf1611sN14nEfg44V6zJvjVwc/GXbMuPEwQQIzxjiX9vBb4Z+veN/84dg+7PmrUKLPjjjva9S2R3Xff3VsmgGt12rRpQWO/1syntm8NwQLHXRjFkdffZXYbOCzWhYJr66uytebvR7S3z+nF1lUDy3Hjuohzr3Hc1gcX7UqsHcV6HTBcOW613WsqiIDLyWedwUmyIIcO7R38wKesWN955532USYqcAk4TCwsljf+7IriDYMGUXGQRJiXA2s9UEK7PZM0VOyaYn3vsAOCnt7yxuLebz9Xk+QvfyFd3lnYUSSJNuIbHnSMQ/4P414Mtopf2/c5EfAo9+gPnp1nGrfsHCvgdNHff/mR8gSehgTzkJ5//vn2BgtXe6wthj42wzTvuGfsubFjE/NfKk/gqQ9w715zzTWmb9++9l7+85//bF2iSjzkVWCYEnVXG+TdB47lLS0363QFr7zyvcDqdAOMFPkhUeerr5x4U3iqT58ewRpijHATFJ0r3gxCbrDi3bv37hlXC9u7WOaKrK2GeDsoHJVxx8eKNyRZ3HHizWfCi7xGrROxxpNEH/GmyFUUzTvEizcgEh+9+XrmWcOCniA5CCUlJbUu3rB9WwyUeDg3axa5saH6AmWamY6QaBjEXMU7GQaxcQvX1sTlBU+lFyuc2tsTJ24ILoIlNgqF5Bpqc+P7dnVNcN4SaRK2piV6xNG4sfMxUg/FEba+RbB3MEkp8dGUmnvucWVdSWlnQDFqoBBEfOMIizDbprHWZT0JCmHNm2esKylM98HfN0dc+6D5Cq9SDFjg65bGR0lUlS82rTKfflxqNnz4oZl6CwPQlTn35WzIYl1AyOTiSY+bGaP/mHklnt4/ON90HTg4MdW9OpAB6x1cDuyRF646s3x8Igzndtf+zg2ZFGVUU9a+Nye4hsrM7IdGl+cK+GDgvOcpZ5lmHTqYJm3a2cHaQiHX23svPhV5nNiXwX993Hy5yUW31RYcs6h7ADfY6NG4hgtHrdRCabHjLmavklVmypTj7fOPPloR/LBPbDRKVoxz/d4VxRsuuGCuzVwk83LoUEpsMtNORWv7ggtKze23V8UCd6VfEWsScyjVSqIN8dmtK4aUW6oi3kK+xJsIFJKEHnuMSJ7MixmSfKxhsPbyCQ3D15s3mJev+0WFG4sb6sxnZ5rPK5/KWmXr4NxuLM36/nPZsWdvc8zNj5im7Trb4+cT2uqS9D8R8L/uWzFNE+E+4Jc32J4VyVmF2K8ouD44pwvHjzWTfufCgaNgzIWyDQyMp7nuagr7xTEg0mr9h5XPZ9iIyfc1ngTHi++cOea6CsZCoac/rJWf+a8H77FZjo0bP20OO+xp06XLDCve2fRzMigJFUS8nbukIi408Mor3TMqDy5ZgiugYoTJqFGNzckns5ZOvBmkDLtKCPMTcFUg6mHxzad4g7ha0og3UCuFWix33515IUTzXXZNfYOzXT6XzRzDb5qZAX960LTqlh0wJCrmy6DRifpMbS7c0E1ad7aCkwtW9/cfnG62axGIZLCdCHi+Fx/c+DQwYWiQOZ7sF5FFhdqvqIXv4liUHD/MHPbrazN7lGWXQ/uan71RZtr06Gf3jfMf9X/yvcgx4DsZ62HMJ0z7fY8ub0hyP1vohWPAMTvgZ7+3DYlwd9TNmkdqRcBx6NMSEXe8cWN36+iHo4/+jn00ZnKwZOuXVCQbe9W+fYm59163fswxqHnW3cJsOZMnv2eOOCLXdRKOJMmGBkZFmEhRKUDAQdwfUUIswhsnwtURfB/sE8ESudEnsEOnPpm1uoGLmBur7+8oJOZo1bXEvl4f4Mbeef9+1toWuNEOu3ykvfHqEgQ8nMAz8Kaxpttxw8xnEee5NuF87jkkW68eOH7H3fF8eWNXV3BdkdkabmDa9T6gzq83jtmhl9yReUaZjMLWcq8VAQe6EfyYWbNmlRdQateulX005pHMYxhndedC5jeJm0xocPnlLvSL9HdcH3dmtSMDIi2CnnWVJMV3A2LJ9mksaCG8rU/woariTfQJCTw5xR0tFEn6dosd6vzi5YZu16tf5pkxbfY8qN4IONAbKDn+lMwzE4j37fa1ugYBlwQeegS7DRha542KQHGtsEV5/F3P1Zt9s43yAdnJwJMGimsLEra4J2uDWhPwMP/7n0voceVfcZ/kEpXxgFvEuUZIpWe2dopBLVlSameIp65IdoZ4EWieZ8XaiXfmSQTvZTLxpeCWxGTHkSvC/H9qgPO53JnO2LYq/u5ccJ9gfUuUTJiOhxxab4TyW1s73zfgU65PAh62GA8Z/v9s6db6sH/4dMVv2uvM860VV1/Av926u6vJsv95V5ptm1aa0aRegFuHfasP55OEreY7RwygFYA6EXBh9WpGi1e7J5Zoqzvs0+7SpcQKpMwpiZDjX88mrlW0usMiLuKN0EYh4XlS7c8n4LkijDiPHetmy6FULEWrwlTV3x2G+ixY33HJebgq6rI7G4aLd93SuRWstvoCA02fb3Dm4y6HDnC++zoG65vqkIAIMWBZn2D/NpUut+slx59db6zvXNrtfXi9MhY+3+DEg7lrC0mdCnirVvw4yebyW91Z1tpkG2pt98v01keMcJMtVBRsJ9o8ItziPvFZ4YQPAgLONkR9CGHhjRLvt94y5t//NubBB12RqlwBr45wA+LdrJkxTLGI2ygKiiQlXbxEOWwX9CyquvA5buI0sN0XG50YdTx4gK27wucLuWwb9HjSgqVb+pab7ixtOB6/ie+I+u6kheiXNDADD3Q77gxvKeAw7Bf/P+qc+Rb2i4YsLfSoZP926JSucWHf+A6OW9Q++Ja0xwzs9bbJTR7d8aC+iUZMdY4XS3WO2YoZTkwGDCBSrnDUyZRqTPTwbGCmuozKR4NX8IGH478hV7grguvk2muNIbcA9wK1tnOt7bBY+4QbsLbJKj/2WAplOR842ZGtxE0fECfCCPj99xtz+OHBCQ9ONr0CmUkeXzj/u6oCLiGDRJ1QojYuh4K423Mnf+C1jLj43vy7C2+qapxu5/7Hmn3Ovci06LRn4g3C93z8Tu1mE3bud4I58rq7gu9O7tpzA9+9f2P7mcGj/5U4SMj2xPhOvWV4eY3uqkIcvC8GnGM2998jzZQ/XZWYrSkgKGsWz7Hx7QvHPWHKPkmX0o7YMeFHlyOONl2OTPazI5Cbv1hj7uvbwfrmD/7VyMRei3xmwTNjzAevvG4+emtq5p1kGrduayOXep12vveYCeHrmogUInbiYFvJQq7KPSDHbM+hP7CzKaXpteWWq5DKrIUgONz1jSiruzJMLoyoUbvEiTdUFu84q1teR2DJ6Cd9HhBwcZ2IFY2YEo0ixA1WUnJDIlmYAJl6JQw6Yjkj8vw/Hlni4LuocEijxH4xoZEvAY4iSbT4PrCEZQYeLsiqLAufecA8csr+QTe/YphbHB/Pja+HXQjef+kpM+XGC6yoJbHpY/cbOh68f/Db7Gos3PAr57xkf3t1xZuIjSat/UKElbpsmivvm2YQju2JNWa/EC7cVVHnLWoBziciRox3GmtXasfv2GOvVA34+mVzrODTIC2d8nTkfsQt/BZ+E59Ps28cCxow3BRJtdZpWCQLOeq74xbgmGGUcD3wG33w/qaV2bLWPbHmCkidWODMNk9EytSpT5m996a0aVQUip/Zs0ttsg0TCCOUuYh4y7ogr1GPm5DER4MOQDgsT9wofIZoR2rT/PnPrlqg1PvGms6NMuE1rGUKUzGNWi7UOaGkLlY5qfO4abDWQUIWeeTzFLtiv/ClJ5EmgUcsT6AGTdeoHQxgMoK4etYMYO37w997LRBuqPEXnmpFtbYhLjmpFyIW2Pcffs207NIrVli52Tlm4cQaKZGciy9MLM0xk3OD2J/66HRvryD8GwTOZ5NwAkMGisT5apMz0Hzq4zO9+8b3LRj3d/PStb9IVcslXIwLOnXqVB4ynAs9cB9J5whotDlHjLccdcODgeBm3ogAV8g9B+5SLsrVAUv86D/e7f0ejpn0CoDJbQpZ4KpOLHBOLKxcGVPUI5HS4OJ0a2RPRpEr3mJxM9EwcyZT94SsTh7xoSPmNAZbZ6xZrGUEGcEeFtwvTD5MkhDiSqQJ74WtcqxqRD13QggBK5yoGVLg+U4aZqJnfvlLYy65xE30cOKJznJnG7m+kxIBWu62r/ci58bCDSBQIZL03qjFN71ao+1IsvJDxEJdiDck9UK4scQCa7ZTzGwYGThmSyZljYrnn38+8njdiG/LQ5JfNnxuug06PTGkkQZSxLt79+5WHCjZ/HhwceYuM2bM8NZ7b9R0G/v9PjhmK974P7vesqvftcP/WjrlycwzY/7zn//YCo9R+8ZCXkhN4PtwIwHjLUnHbtPKteXiTX2mwHCNXGo66Gh7VJmSwOhcoasTJpzCwkDZRXj7bUpvIuYy4JhEdnASoSPcj5RyapjkgnCLFc4yfbqLEGGAkTmXr7vO+anxd2NZYyhgFW/e7D7HQClgWSPmhC4OGeKqAFJoDEsdwQ6LOKI+bVrmSQ7Erot1LxA9g1CzEB6IyHPSucAQDS6oI6K6FyGa7+yfUYcLPTwDjxz7KHzFitr12Se1GEWBxYdFWoil31V/sY2HDwT+wzdfDm6wHc32bf0x87icwkW/4mbGeeUVNyAax/Ztk7Nj5ZglHV9YuzTrxvpF0OIniQNz08axa//BifsG773wUqqY5vBEIZBUje/dd6PCh7O07uafqzV8XTONoA97bS6ViV38k0VLhdQokuabBazzj94MhCXgUCy1AlMnAi4Tv44bxzTwyZZdWLiF9kFPjaJOiDgFqJgkODypggg3M91gOSP4CCbWNo8DB7r3cVsg2oBLAxHHj83gpbhKeOR1RJ7PHnigq5mCyFMSGeEGxJxolCg4l/+l2GLA22+/bcWZuugsWFKyYLVQOY8SnkDd9DhIW0/ysYZvLC7cuJt+Ea2aBwo8pRWjMAgsA3nURMGdUIil++BzvK4AbuCy1WttcaY9TjotVfLO8uceto++Y+abwAGSojZwn0hDkST2/Iaq+FaZ3g03ShxpQk8/X+es1jR5BoSPSh0cn0AKkgsSBY19mpmlPpiKfgTHOcU0guGxGaqhRpF4D6To7YaLxUnCYiGpdQHnwhK/oetGhcI8Iom3zhFVGnIGHrHEeY6r8qab3EJ9b/zkWLgk+mCFY9Ai2oF+WncJkSZBb9T6pXENd+jgFhFvsbAJ5eMzDHCG56PkPkK0EXEaBOa9jIIMUvGGyAQDlN1lQSBkycXX1ew64NREMXJ+THdj+WY5f5NBgRjoVtJQ+AiLkYDfdL8f/z7Yh5bWt4vIFmJJEiIQC2ynfQ5I3J5CSWKJDaSlj2HCBEofR4NfNslao1ew7DXnK0sSe87jsunZwdS4cQzBN70bJGXJ8n1yzHAFJQl4uJZLmtn0J0+enFmrjNTQ8UGDweAiYwdJYm/dGpmBYq7luIkqfD0WqGpvdx8GvApMrQu4+HTFgBg3Lq4rVdnqjgLNe/xx58NGF/ECkOTDgoFElAquElwnCDDWNqJNI4xoY2mL/xrRlkXEm0cWMisRaIQaVwfIwBbWvfissfaJT+d7cZvQcHAvPfWU+9wN+GyqwFN8MIZUPtZQt9s3y7nPItp50OmJYoRFNPsfrgYENwlhXYQe1ofED8RIam0jXD5yLd24SnIYIjKXaxT4ZZMais/WrTGrFy6yg2NJ2yJSEkmEmy1OhAR84HFYN1JC1AaI1UrvIOk6C9dySZpNn2PnM0zS9A6kwUgzdsD7MjZzIN3nGLz7lLK3K70CaNdOEgoLR60KODOhMGM9YCHjgrj3Xlri3B+aLNwgA5SAQGNh04gi2Cw853WEF/dISYlzg4hohzMtEe0wIt6yLpEiIK6QxYsXl590voffRGz60Ue7ngHzXtKLwlC74gp34w0fPtxunwbmDPX55NL4WMNi5LPanmB0NwasVixdH5JNCEf99Xlb/S/pJqwtEBgZjEtK70fsS2dleyNx3e0kHy5+Wd/3sE+SIINv1SdCbMvxlfrcaSaj9vnnCT2lxokPxGjRhEmpxJ5jFp6MOR+9Ax/hRraqYzMyB28UU6ZkxTeXNL1doFcAPtdbPgl+Xu0QnsYKaxnr95xzsFyftcWoHOmsbgFhBhmwxDqm18I9h1gT7IKlz2vMBs9gpIgyIOJicecS3g6IywaEXK4/LDCmjxMRx+rnO/DLM/kyj2edlRXvmTNn2u3Sgq/cR1Ladbjb7es6YhHFzeUIaW6o9cuZm9T5vFt3S076qW1wI6VJ70fYlk3LdKcC4o5ZkoDjl03bUFAKOAmJxwZftJDgC9Ojd5DUo2JQmMG4NGLP+8Rjg+86E5LGDpJmlgpf10ljM7kCHnfsMJZ890Ca3i6uNyGNGykf1IqAh8X7ttuwVttZIZQAC5dEk164BRHuMCLkhMZKeCyDm2FBxvLOzY4Mv58r3jzn/+Izl54pUSzw4IMP2m42A5DH4owPYFAVtwqPuE3IxmJwsqotsu9Cp9udBN3uxRP/Zdd/9KMf2ccokiyiVFO1veVqbVMvoz4VYwLpblOUKalh+fKzDeWJO3Gx3/DMM89k1ipDTZM0ovfJAncxkeGXdHyr4lvNx2CciF6S2LMtYk8SDpxwgps5yMd0usYx0Mgmzd7PsRN3UtLYDGIfHpuJi8KiN+2jqr3dJDdSvii4gDOlWli8f/IT5y4h0gNfNP5iBiA3VfGmF+H+9NOsJR4G0c0VYiHQ2vLIESHs784l7P+m3glRZTK2RcQIIM7Et2I1EwP7wAMP2HWEvbqptOPGRc356UgKaeLGotuNjxV8VpuvoSCEjJvAB4NESyc7F0XaehnA/63pkgTbiH+W7naScK3/IBu54Yum8IZc7n14YlgjDQW9Ao5vktiHI4kgbpZ9wTcgDQzGJYmRCHiSKwjIUBTSzKTvO3ZJYweco8/WOXcS6f1pBoolooikojgjyjdmAPkeZM4XBRfwcFdTxBtIhgHRNpJq0iLijagSKcU8kWHihBuRpqEN+7OFuM+AuE/IkmTcCjcaUSkZg9u8/HL2xHFzEQN7yimn2PXq+sGSBnrS3FjhbrfPavNFU+w28MjEKdHwDWK1prmhgIudehGLJoyt8ZIk4tzw4p9NmvSCbdN2t32kidqQhoLjmyT2vE88NpB5mYRvQDpNRJEbMHWDfmkmY17/QdbyrGnvIM3MUnJdp4koQuxlHIl7Mg7fmAG93aTrOtwrgCQ3Ur4ouICHT+jGjWFft/NR46vmmsRPLEKZS9hNEl4HokqIxRYr3CfeWOucJ0lhF3ziDQg+7hNJ0vnOd5xVLgKe5NOrDkk+1jQ3Vrjb7bPafP7SnfZOLkwlopdmsJP9ouAVxX6Yb7EmC1Yp1qkPbqzZY++24WZJk16wbyJcEBeBktTdpqHwCQuNjhwzBgiTRIgaLpJFeBL1GBL429/+llmrTJdTf5Y4GMf+0TtIU8vFDnZOHJ95VvPeAe4kH+HrOmmcgW1loBh8iTW+e4DebtpeAfhcb/km+OrCEj6hTz/N36yvGyscMRUr/JZb3GMuiDPCnSvewGvh7EeEOrzg6169mpbfFYniPPGd4v9OEm+ZmAGLm4qDuE+aN3evSbamz6dXXZISHbZrkT6Bxxe1kGgRJXS3uXhFjJIGOwFxyFe1wjT+WW4sxK/DPi4xyofdfk32IqNq5tVXX11pueaaazJbVIaoDRoKH3yP+GWTSgGzbdi3SrQQPb64hTpDvsilrkeenNjISugp2ZppxD5cPgHXYdR+sTz22GPm4osvzmxZGXpw/F7f8eD75LpOSu9n23BE0crA0ovaL46Zj859T/B+D++Fe7tpEpnyRXC4Co/EPlPjY2POjP8S3ofG4AsnczKXKOEWsKpxa0j1PlmWL3eijbGEzxv3BxM2IOAiwEniDXwW63vWLBdXTuRMOPywUEi2ahQkOiR1uxkIkm73QWQzxeCziBAjGgof4QSeNDPwSEXAfIAbKckyEgssTe+A/7X7sdnsOawy6p3kLj7XFlEbSbBfpPVDkthzPBlAE4h8OuaYY2IXX3EtBBLR8xFuMJIiL4D3Kc8r/PSnP43cL5azzjrL27js++PfJp4jSJveT+8rHFHE90ftl++YUSwuaeYmGopwb9c33pRvakXAOamCuKHEokZUcVEQsQG5vQ+feMt7iDKp9YwbUD+dCB7isQk5P+MMl41JVAjp74T2IdxpxBvrGxcNg5dEnWBxU/Ob11iI8y4UEydmB61yqUoaNBxMGmgMvoaCtPOkhgLenzzJ3sRJBaUAkeemyAe4kRCcOLjpJBklKfMQrIAPGmZDIatLmkE4zg3d7bSzFuFmYaLjmsAUcodckjyBs7VwM4NxaSIvsNAPv8Jf1CsJonZI/Gq0ffK8rnJdM3bg25bjTO+ruqWAgeuU6yGpUQn3CiDO9VYIaq2cLNEo0rXA5x0YMlYEBSxxGkIq9uGRoHyrT7yBxpx6KAgzcdbgq/9ACjwiHPTkrBUeJeLh0EIGR9kvScQhiobGILzfuNUIHyQCJV8wSNatW7fMs8qkKV4fnliBSJi4wdSSoPsTd8woEkWdEZ8gff2VK/jP7OA9v39ZYsMCWO1fb04YGU3DN828NzElRMed58rbJpWbDVOT/dtqq2beYxA+N2lKAQvs0xcb1lYoypQGelFNWu9stm22QyrrlmP2ryEH2Qbml3PKAhHMvOEBseR3haNR0sJ4Ab2QNOcmfOxOGvucadOjn/fYsV+r5ld9nzhmUl8lzTHj3Pzr5P1sKCUa5zOK8k2t1gPHB0Y3RiChB+MQCxy3BKF51OZeFRiO+MdzBRzBxa8t4CLBNYJ1TQU/CekDymyGs65IaWdOSVwiIP7rMCLeJPjgehGhlvKvCH94oJX947vzfdJy9z2XJDHignrjXleTmLKjs/D/RECkS5uoA5EhqQZ0VW+o2gYxunPPxtbCG/yX5+tFfDrHTGbg4ZjtWOKPAQ/j620kkeY7+P8yA0+a2te5VHf/0v7+8HVNgbQ0szAV+phBeAYe3MVVybauKTX4eVWHMJ6w/xCfOEY51jiuFcQbF4dPvMVq5n2EHx84YGUKWPsigFj75KngUuHzxJ/7xBsWLnTijfUtCTukyedGyYgvnd+UFFpWFXw+1jTdbi5aqUl8Ojn+MSQl8KSJdAkPEtUn2LeP33GDq41bxTdStQ2Dyx/PcQ1qGhdFGLat7pIGjpmMGTRtv2sq91mYqO9Ns6QFnzbibasVNkkWb4j6vrRLGmhUVsx05WPhRIr61yK1KuAgWYsysIloE9cvBaLOPts95iLizSPijcgisESGQG98LhkkBI8AmMCYteGKDJ7yeWkAwiDeWN0gMeXiOsG/jvVO0lEUFK2CaXGFwKuBr1Jb+32PTrRyN3+5waZBg88f56u+hk9726b+wRvbUIQGieobEh1TtjrbuNcHpDrkl5s22mNYX6BxmflXN5NMfYOey6KJbpKNzt85st4cN/aDkFbAjZsURplv6uQw4I+lm4GQY22SuSg+7LhQTRFvLG7Em8iQ+fOd+MOZTB6ZQfy9CH24RngUIt4MWIbFm3hx/N7EemPERiX/gBj+1U3YicJngbfrfUCiqK6al7Ws44oxAVOoxdFhv0NSWSEySMTAV30SIywjiY5hHxnQquv94/vD9TJoYOrLMWN6svlPjy0/n4sn/Nsm9NQHOEbffLOhfDaiNPNz1gZkIDM/qXBP1MwyBaZOLx9EDwsRkZGBNIl4C1vKrCO0hAYi2kBkCD5tYPaasIAeTqhIAFZ9XI4Ngi0x3oiwjOMh3rh0JCqGHgF+dhqD3IUIGmlAdooz0asI7h8fVcmMSyos5EteSFPlTaa0Arq2X36arUhY12BNSgo1vP/yU1bU65pw2dU37r3Z7mddg3iX/u+lcksSGJDDBYXlW5dwnXHenv9VNosyTRZyoUG86RHI3JfkWvTNTMJSm9SpgAvScmHtEg6IOGJtg1jeiCg+aJJ6sL5xbyDQRIDkHjjE/NxMPCKRI7l1TxBuBBsBxurm/1JFkO9l2rRwqQasbwYqoxaiX4D05nyFDvlcMWTGSVw2F3bUwg0nIU2+wkJJDQVV3oTc75DXxEUhPP3zQWarrTfYfcj9TG0v1IEJxxwjTogUNx7vQ+5nCr0gROGyq0R6zH5opB1srW3YH84T3z3vib9HJlf9329OtZZvXYg4+8e5KlvzvnlsQMcK4YBJRkwh4ViwX6//9bryHgHeA18seSGpk1npc5FZ6knm4TggpLm+arIpEVzASn44MK5I/Ikb9Q2H4jFZ8QEHBD820xDI/xH4f1j2Mt5H0ZsxY8ZYMZ09e7ad/iy3AI/M7k4ECgOm+XKh0PDEFfshPrnXaeebbzZnWrcItmmytRlzUFu7TlZcXP0H3gvH54dhkGjIoy+arz4NxUtG8OrN55f7c8MQHtd+v/6mUV0oUwbC7aJEiUHgnkN+klgXpRA0brWD+Uufyn4J9mnvc35j2vSonTK8iBCT/H44c4J58epLyvMF4iBapl2vfqni/PPFJwvnmMWTHi+3cAWMmCEPT0+MjkFk8wnHDKNg+WsTy4Ub0IoXX3wxry7UqlAvBJz0ZDLcgAFD9Jjp0QAxB0IGxQ+dRsDhlltuKZ9AgtjycPy2EP5fQFeorlpTaExXIE/gS4/rGUijqdQviEFu1T1+3KKmlH2ysrz0a3VIkwFZE2TwPQ4SknqdcbE3PpueDnHZjVs7QyYfRO0Xxtbo0aMzz+qGeiHgxCP379/fzJmT7ZLjTiEEkOCS1q0rukEQXcYsiYJjANQ3AzY+YLrS/L+bb3buEoH/I0k6QN3u6pZ+zQfUJfENOlYVXwJPPhsKpXjBgsTQoddXDA16Uuw8rpf1y+aYR04pXD1u3LZXXXVV3tymNaFeCLhAAgtzZkYNriHmTNBAPXZmPpIQZmZ19w3UhUUR6x43CUlDFKciv0XcJnUt3kBhnVtvvdW0IBi+huCXCyc2hcG9dOGFF+ble5TiguuCxpuJDSixEL53uFeefPJJW1qV9Ua5g0cpaN68uelcwxoTvnrhSVnICPjSVx4pd3PQQNUUjhn3CrXOqWhY26GCPuqVgAtY5FxEuADEtRJFWtENZ4By7ClIhbEv1wkniBlzFEWpW5KykH8xq8zr/8Z9Mm3UZXaCbcap+H9bMvVSwHNB0MkapBzkqlWrTM+ePe0AYlWKpsddGPi8b7/99jobhFAUJcuIESNie45UUzzs8pFeAZfyCZBbXmNLpCgEPF/QECDkxJw3adLEDBgwoF51hxSlodOnT5/YyYWJbup69DBvDLgUVwNfFNaWQoMScEVR6i81La6G/5vqgxI+ypy0W7qBFvxkRVGUuidpGsE0U6hJcTWykBtC71oFXFGUeoFvGkHiz5Nqs5C8I8XVcI82BFTAFUWpF/iKuDEDT1L2JfOjSsq9bxrBLQkVcEVR6gVTSPCIoU3PA23hL6zsuGVjabbSo28awS0JHcRUFKXOSRrApMRAUs2WML4s5C0JtcAVRalzSNzzURXxhoaS16EWuKIodQ75GT4feFXo1avXFh//LaiAK4qiFCnqQlEURSlSVMAVRVGKFBVwRVGUIkUFXFEUpUhRAVcURSlSVMAVRVGKFBVwRVGUIkUFXFEUpUhRAVcURSlSVMAVRVGKFBVwRVGUIkUFXFEUpUhRAVcURSlSVMAVRVGKFBVwRVGUIkUFXFEUpUhRAVcURSlSVMAVRVGKFBVwRVGUIkUFXFEUpUhRAVcURSlSVMAVRVGKFBVwRVGUIkUFXFEUpUhRAVcURSlSVMAVRVGKFBVwRVGUIkUFXFEUpUhRAVcURSlSVMAVRVGKFBVwRVGUIkUFXFEUpUhRAVcURSlSVMAVRVGKFBVwRVGUosSY/w/5FMQOYKNVMAAAAABJRU5ErkJggg==;dashed=1;imageBorder=default;" vertex="1" parent="mZAhdl8hGZGRWwnMFbeF-74">
          <mxGeometry y="104" width="236.85" height="99.76" as="geometry" />
        </mxCell>
        <mxCell id="mZAhdl8hGZGRWwnMFbeF-69" value="&lt;font style=&quot;font-size: 15px;&quot;&gt;Transformation&lt;/font&gt;" style="text;html=1;align=center;verticalAlign=middle;resizable=0;points=[];autosize=1;strokeColor=none;fillColor=none;fontFamily=Architects Daughter;fontSource=https%3A%2F%2Ffonts.googleapis.com%2Fcss%3Ffamily%3DArchitects%2BDaughter;fontStyle=1" vertex="1" parent="mZAhdl8hGZGRWwnMFbeF-74">
          <mxGeometry x="55.92000000000007" width="127" height="30" as="geometry" />
        </mxCell>
        <mxCell id="mZAhdl8hGZGRWwnMFbeF-75" value="" style="group" vertex="1" connectable="0" parent="1">
          <mxGeometry x="864.38" y="-62" width="94" height="220.38" as="geometry" />
        </mxCell>
        <mxCell id="mZAhdl8hGZGRWwnMFbeF-57" value="" style="rounded=0;whiteSpace=wrap;html=1;sketch=1;hachureGap=4;jiggle=2;curveFitting=1;fontFamily=Architects Daughter;fontSource=https%3A%2F%2Ffonts.googleapis.com%2Fcss%3Ffamily%3DArchitects%2BDaughter;rotation=90;" vertex="1" parent="mZAhdl8hGZGRWwnMFbeF-75">
          <mxGeometry x="-37.379999999999995" y="89" width="168.76" height="94" as="geometry" />
        </mxCell>
        <mxCell id="mZAhdl8hGZGRWwnMFbeF-43" value="Input" style="text;html=1;align=center;verticalAlign=middle;resizable=0;points=[];autosize=1;strokeColor=none;fillColor=none;fontFamily=Architects Daughter;fontSource=https%3A%2F%2Ffonts.googleapis.com%2Fcss%3Ffamily%3DArchitects%2BDaughter;fontStyle=1;fontSize=15;" vertex="1" parent="mZAhdl8hGZGRWwnMFbeF-75">
          <mxGeometry x="22.5" width="50" height="30" as="geometry" />
        </mxCell>
        <mxCell id="mZAhdl8hGZGRWwnMFbeF-44" value="" style="shape=image;verticalLabelPosition=bottom;labelBackgroundColor=default;verticalAlign=top;aspect=fixed;imageAspect=0;image=data:image/png,iVBORw0KGgoAAAANSUhEUgAAAJcAAAC2CAYAAADUbx/qAAAAAXNSR0IArs4c6QAAAARnQU1BAACxjwv8YQUAAAAJcEhZcwAADsMAAA7DAcdvqGQAABkJSURBVHhe7Z0JtE3VH8c3RSr9VYqiqKQQioqUuUyJUhRSxlKWMZFZZFVmIZRZRGZCIhEaKFFJIhUpU5QypOn972fbN/eeu8+d3j3vnnPf/qx11nvnvPfu8M737v3bv2ln+fnnn9N8iMADrF8NBj9ZsmQJ+Rp4ZM2a9fT3v/32W9rZZ58tT6ycOnVK/PTTT2Lp0qVi/vz54osvvhDHjh1TPzU4Se7cuUXdunVFgwYNxK233irOP/987T1yEwxEf//9t/jzzz/leZaTJ09qhybfiCYmTpwoXnnlFbFv3z511ZDR5MiRQ7Ro0UJ06tRJ5M+f3/UC8/PPP//oxXX06FExePBgMXr0aDl6GZILAqtXr54YNmyYuPDCC9VV9xMirn///VdMnz5ddOjQQfzxxx/qqiHZYLpUr15dvP766+Kcc85RV91NVvX1P3w2mFi4cKERlsvAllm2bJmoX7+++PXXXz2x0AoZuT777DNx2223qbNgcuXKJc4991x1ZnACPtSIxw5GMIz8fv36iSuuuMLVNliIuMaOHSueeuopdXaGEiVKyOuXXHKJcU84BEJZsWKFGDVqlLqiBxvs3nvvFUOGDJH3w62EiKtjx45yhWila9euonv37vKNGZxj+PDhokePHurMHkawatWqiTlz5oizzjpLXXUXITbXt99+q74LhmVw9uzZ1ZnBKVhQRQM22FtvvSWnyF9++cWVs0mIuA4ePKi+CwZbC8+rwV2sXLlStGvXTvzwww+uE5hRi8dhBFuyZIno27ev9E+6CSMuj9CwYUNRpEgRdRYMju65c+eKli1busrpbcTlEYoVKyZtrMKFC6srwfj9YI0aNZKhOzdMkUZcHuGvv/4SF198sRyhSpcura6Ggg3WuXNn8eOPPyZdYEZcHuPaa6+VMd9y5cppHaiMYIsXLxY9e/YUhw8fVleTgxGXx2DFfuONN0pfJELTgZefFKnHH388qTaYEZcHQWDYXnjz8+bNq64G4/eDNW7cOGmxSCMuD3PZZZdJgd1yyy22Pkh+Ti5YMvxgRlwex2+D2Rn5jGALFiyQIaVwAXEnMOLyOIxYJBWQNWw3RWJ3LVq0SPrByBDNKIy4UgAEdt1114mPPvpIXHXVVbarSH8sMqP8YEZcKQQ2GG4Iu3w88PvBMsIGM+JKMQoVKiSGDh0a1gZjisyIWKQRV4rh94NNnjzZNlTkj0U+8sgjjvrBjLhSEL8NhhuiYMGC6mowjGDvvPOOo7FII64Uxm+DRYpFkmXsRCzSiCvFiSYWiR/MiVikEVeK47fBiEXmyZNHXQ3GH4ts1qxZQv1gRlyZAASGcY8fDEer3Qi2atUq8eCDDyYsJ9+IKxOBDYaNdfvtt0vB6fDHIvfs2ZNugRlxZTJi8YOlNxZpxJXJYMSKFIvEBps3b55o1apVumwwI65MiN8Phg0WKSefyu54/WBGXJkYbDA89WXKlFFXQnnvvffizsk34srk4AcbMWKErcAYwXDE9unTJ+ZYpBFXJsfvBxs/frztFIkNRk+KWOsijbg8An1GT548KU6cOJHwA/HQjgkbK1wsMtb+YCFdbsgFokeXlVdffVVG0Q3OgpugV69e6uwMN998s8yVd7KjDY1mtm3bJn1ddmTLlk06Wvv37y/y5cunruox4nIZduJyEzSlad++vQx4n3feeepqKGZaNMQM0zMN6mgjHw5Piov5HsOSFubvv/++HFX5xNMo+MCBA1H3uMpoeN3ff/+9dGDSmRkjesOGDfI1Y1PF40tKFthq5IOFw3PiwmP81VdfyZtTtWpVcdddd8nO00wljz32mKhdu7Z2WncDmzZtErVq1RJt27aVKS5MLZUrV5bXxowZI31JdAz0Cp9//rn6To/nxLV69WpZpv7CCy/IUcDK9u3bxbRp0+Tqxm307t1b+5r5sOBH4n1t3LhRXXU/u3btUt/p8ZRBv379+v9SQsJRp04d+XrdtCEALdhZ8e3du1dd0cNrJqZHYNkNHxBWh4if1aEV/GOEkOzwjLjo1XrnnXeK/fv3qyt6cAoyPdK4Vpe3lExIddm8ebM6s6dGjRrSHrv00kvVleTy2muvyVHVSiRxeWJaxHifOnWqOHLkiLpiD7tMtG7d2nXCAgRTtmxZdWYPixQ283Lj1B4LnhDX7t27xZo1a/7bDSsQHH8Y8eQf0UOfEato0aLqp+7ihhtukDMAOe0Y9IxQOtgZjl1Mfv/9d3XFm3hCXKxK2I5PB73xJ0yYIDdgaNq0qSxndzOkujRv3lx06dJF1hZ269ZN/SSYd99913UNdGPF9eLC9XDo0CHpuLPC7hHcHIxgRjA3ToU6sAvZHOqiiy4STz75pEzes0KbSrs9AbyCJ8RlNz08/PDD6jvvQviEzTp1kKTnZTwxLdoZtm5ZTaUHRjG7LW/cGmmIFk+Iy+BNjLgMjmHEZXAMIy6DYxhxhYHIADFB3AKG2DHissAKjYgA3Y8vv/xyWThKlfKgQYNstws06DHiskCvUGKThJH8jlucuISXnnjiCc/7njISIy4LpJZQCKqDbsh24RpDKEZcAdD8bPbs2epMDzG/SLnjhtMYcQXA9BcpzYVwlNcDyhmFEVcABMIjQd2gmzJc3YzrxUVFjF2MjcyCRIK4mjRpos70UHFMA49EQSYHqcQ6nGzjnRG4XlwkCNLlTkc0I02sUERB+q6OkiVLykKKRKb2MBKyA6yOSNU1bsf14sLIXrdunToL5uqrr1bfJY4CBQqIWbNmibp160ofV+7cueVIhXuCOr2cOXOq30wMjFr408iOsELzDy9no7paXIxaI0eO1JZj0TiDwwnIZp00aZLsH0qHPcrZBg4cKC644AL1G4mDUZDmH1deeaW6cgYWGC+++KJsFOJFXCuu48ePiwEDBsgUZh10vCOT0ynOP/982VKIggrElmj7LhBy/u3y/seNGydrA3SZuG7HdeLCeN+6davsif7SSy9p43pMV5SZ0RAjFWDqpcgEQVuhbJ4PGTn33333nbrqDZIuLvxGiGnIkCGyGBTRkPa7ZMkSbbUP0whl/OXLl/dMznwksLco9r3mmmvUlWAQGP0lihUrJiuGCEO9/PLLMlTlZpIuri1btshiW1ZpM2bMCFtkCcWLFxdt2rRxxP5JJv/73/+kYOwE5mft2rWyhvPpp58WDzzwgNixY4f6iftIurgwnOnvEA1UyRBQpglaKsKITYOVIkWKqCvhodyOBiZuJeniisWOwIFJSXwqU6FCBdm5J1p27tzp2kKOpIvLzmGpg7QXbLFUTd4jrknrbiqyowUzQecjcwNJf1UUhVaqVEm7UtJBQww2QPJSo7RoWb58uXTWRgPxzWrVqrk6BSjp4sIRSoMOfDn0Q3/mmWdkqyE7yEhge7dUS3vBPHjuuefUmR6arLDwwe7E/0XfCSd9fekl6eJiSMc7jT1F6yM+iez9h6HKCsoKIxY5VbStxo2RCvA+eL9ffvmluhIMK0hactJbglUi/yfCU4kMoDuBayZrfFb+6mM2naRZB32hdC4H/F+4LPDiO01GTL+Mwvj6dB8WRnZGddwOBLjpiUGw2ws+PndaggqmgX79+mkNVuJ90fTriheqfogtYmATOHcygEznPg4dTIMVK1ZUZ97C1eICWlDq4m50ctYFtBMBAWMC1Uw/GNgsIrDz8JQnGkYr7C06OlvB38WI5VVcLy6mgipVqqizYJwQFz4j7Dm85dxwAsY8Dw1+nfCG436wqyhCWNGuot2I68WFfZErVy51FgxTV6LhZiMqaxYoo5adwZ0eEDOdBHWwo5iXcb24/Ia+DiecqdxsO9GSuJhoWDDoAvSpgOvFZfAuRlwGxzDiMjiGEZfBMYy4DI5hxGVwDCMug2MYcWmw20farUl5bsX8tyyEiwjoClcN9hhxWWCnVgpArK0CCCKnamGIU3haXE7kWhFuuuOOO+SuYlRck1tGnj9l9fR0MESPJ8Rlt++zUyk3TI3sK0T7yhUrVsiDYlQnbC4C5b/++qs6C8Zu2xav4HpxcaN16c6waNEiR3PpyU+//vrrbZ8/EbBpOmnbOpxoEZWRuF5cjBY0AtFtIkUeVMOGDT27dRzl+CQi6rZWJp05f/786sybuF5c2EDU5rHLqo6PP/5Y/oy9uZ999lmZLuzWwg1eF1XSvXr1kn0f2Njzk08+UT8NhoIVGpR4GU/YXBjS1DaGa2PEpu+kJtPIxK7Vd7KheRyvb+jQoWErzZmOa9as6eksVPCEuLC7WrZsabsndCAYxzNnznRdwzSSEJ9//vmIhR4sXurVqydL+u2cuV7BE+ICbC5q+0qVKqWu6ME9QSap27I7EXs0i4/SpUvLip9U6BjtGXEBNsibb74puwqyfa8OFgDU+jm5wosHXi92lh3UZ953333S7UGxqxfqEiPhKXEBAqPMiymGqmNcBXzKuXks3amYad++vfptd0FFEf0dqGji9fK6WYzwPuiiOGXKFEfbY2Y0WU6ePBnk5mbVhXFshb4ENGlzE7/88ov45ptv5FKeEjA+/fS4crN/iNfKCpHXS9vNfPnyySoft420gVD5jsvECpGLcM36PC2uQPyhIC9MJ156rRCvuDw3LdrBjfLKzfLSa00PKSMug/sw4jI4hhGXwTGMuAyOYcRlcAwjLoNjGHEZHMOIy+AYRlwGxzDiMjiGEZfBMYy4DI5hxGVwDCMug2MYcRkcI+pkQcqh2IfZkPmYPXu26Ny5szo7Q8IyUdk5y+vl5Yb4oLJdV9WeMHEZDFYyTZqzwX0YcRkcw4jL4BhGXAbHiNqgZ79BKoMNmY/FixeL7t27q7MzZJqiWINzZPqiWIP7MOIyOIYRl8ExjLgMjmHEZXAMIy6DY7hGXETeN27cKD788MOgI17YuX/fvn2ydfiOHTtkz3cn+qTSa+vo0aOyCR2ZA3Y7+2dGXOPnwlGHL4Ub5YeW2dHukMFNplPy9u3bxYwZM8S8efPE4cOH1U/PQOoQrS3pllyyZMmYG9vSlZnHpZ/8/PnzxcSJE9VPzkBrTXLf7r//flG0aFH5HLF2ZuZ56Kt/4sQJdUXIDwdtL++5556o+3tt2bJFTJ48WWTLlk2e83+i/32TJk2ibkUer5+L9olpgYfvDxBbyOETV9DvJfqYO3dumu8mBD2nTwja37UePkGmrVq1Ks13Q4P+PtLRo0cP7ePZHb7RL23ChAlpZcuW1T6e7qhQoULalClT0nwfkjSfULSPqzuOHz+eVqBAgZDHy5s3b9rWrVu1f6M75syZE/IYdevWTTtw4ID293UH9976GBxoRff7/sPzNhe7UtAB+cknnxS+f6S6Gh033XST+i4ybErQqVMn0bFjR7FhwwZ1NTLr1q2Tf9e/f/+IPeij4ciRI2L8+PGu67Ovw/Pi2rNnj+jQoYO0q/y9RqOBOGn58uXVWXh4bDpEMw0eO3ZMXY0eGgMzfbIT2qlTp9TV+MCWXLZsmZzu3I6nxYWYhgwZEmKX0W67YsWKYtKkSdKgx9jm2Lx5sxg7dqzs+IxNhE0XCUabUaNGya1VsIP88BxsGzN48GC5ENm7d68UOjedvRlpAR64hR6i4DEY+dIrsJ07d4o33nhD+KZOdcWdeFpcBw8elAIKhJveqlUrMW3aNNGoUSO54xm7f3Gw22vTpk3F0qVLxd13363+Ijxsu0d/+EDYphgDd/369aJt27aiRIkS0ohnlw/64jOSzpo1Sxr0Vlho8DP2WUwPPIbb09E9LS5uvJUqVaqIZ555RvgMX3UlGFZZ9KunB3wkcI/069cvSAisuhj1unbtKnvI20Fv+eHDh8tVWSCMhFOnThW7d+9WV+KDPY54DYyIbsXT4tJ9clu0aKHdmzEeGLGY7gKhAoqbGk0lFL/jW5FKoQXCJgcffPBBTDaijk2bNonp06erM/fhaXHhJLWC7yoRMDKMGzdOnZ2B+j32FooWfvexxx7T2l+JWD2yCsXWcyOeFpduJ1Wcm4mATUKtBjN21UMPPaTOooNpVLfbP1sPYzPGit8Z6oeVKHanG10TnhYX28dZYdOpRIwIrCxPnjypzk7DRpzxFAYzLRYqVEidnQZ7Lh67i+hCIKw8cZG40TXhaXGxhZyV1atXi549e4YIIxYYsbZu3RriMiA0Fg9sGoUdaA3ZIOBYqV27tmjQoIE6Ow1uFgQWGCpyA54WF36qPn36BE0VeOzxYLdp00Z61eMJViNMnbOUWFo85MiRQ8YYrdvdIeBYYZXbuHHjoEULCwN8cfj03ISnxQWIiG172c0+EPxA/n0MWVXFMpIxYllHLbYHjsZ9YQd7LPIYgcTrBL399ttl8NoaDMe4d5Nj1fPiYsph9GL3WOvNY7rAT4XDs1u3buLTTz9VPwkP04t1iuF50rOhOX8fuGIE9l4M9PpHC4/VvHnzkIwOYqw4ad2C58WFHUMaDdMCu8daYZrctm2bjO0hwNatW0tjOhyMctaRjhuaM2dOdRY7urQbXCnx5pixmMGnZ2XQoEEhvrlk4XlxAQIjJNOuXTs5OrGi4jzQgEZkiIqwENMljky7UYMRxmp845tKT8gGEVmdpnb7dEcDQmXhYh29WIHyQUtveCkRpIS4AsFwxvlJgJqRShecZpVGloPdNMlNt06BuDcCExljhb9F4IHkyZMnxFaMBRYIo0ePDrIFEdXKlSvle0tvBCC9pJy4gOkLI3/MmDFy0/Lq1auH2GN+gekyXRGWVVysHtPjqMTjbxUXTlmrHRYr+N5q1Kihzk5DNu7cuXPT5Y5JBCkpLj+MWoxeuCa6dOkSstpDYNaMB8C1YfWEM4VGstXsYATBeLcGmRPRqRFbkPTzwEA9z4eNSR5arOnViSSlxQWMDEw/rCiJC1ptKUIn1qIKRj6rLQPkbcUDox6jiVVcZcqUUd/FD++vQoUKMhsk8L2x2qV5TDKzJlJeXIHQqYU4XyAY2tYwDHYQ3njr1Eg80Dq1RQMFHdZiEeyl4sWLq7P0QQpRy5YtQ+xLil7w9yWLTCUuPuXWkBFiwR6ywqhiXc0xcuHWiAWmKIxra0C9cOHCMWVXRIIPA2nUVhBYsshU4gKr3cVUorNLWHXqVpoDBgxQ30UH0xNFGtaVJosM7KVEwYIFR7FVsPGMtInCMXHxiY12KczvkX5i9c2kJ9xiB7ZPIIxmTCtWMOjJJLWydu1a8fbbb0ftWcefZs0LY5VIcUii3x8hJnL6rYuRZOGYuKg+pmAyGt8Q9gi+GWtcjAKIcPCp3LVrV9SfTlZPs2fPVmen4Tnw8OvAUKaYIxCmUGJ4rDTDCYwPDNMoBRmBIGYKW8uWLauuJJbKlSvLUdENOCIuVl8jR46UMT2OgQMHyuCxNV7HzcGG4WaRKmMd6apWraq+04OAefzevXvLYgm7oC3i4/m50Vb7iixRu5ghI8CwYcNCxOf3kS1YsEC7GuMDNWLECPnY1pGSqZYaS0YZJ2CqffTRR21rCDISR8r5+adz0/1pK6yMmHpIPSEjE3uGn/HJRohkU+puEq+D0nM7GIWo5sHe4J+KAU5JGVMO7gfsKeJsZJUuX75cjpCBAq5UqZJYuHChfF128LpwxhJqsY6QhJgY+SjYKFiwoHSysvKknQDPpXO64lerX79+RP8THzz+T9YUZpyj5HSFg2gCwtYVsADhL3x/0dp8rinn379/vywX1z1GtEf27NnTevXqleYTnfY5OHyjVFqdOnW0fx/N4RN5mk+82se2HkeOHEnr2rVrWs6cObWPFc3hu5ExtUTg/enK+Wl7oPt960F7A98HLOTvObg/niznZ5SqWbOmHBV0jshI8PfNmjWTI1KkEYUpJtZMBUa5cuXKyTwva+qxHRjeVPH4BC9uvvlmdTU6eD7sK4LJsebfpwdcKbpM3Ywk4eJCEAiDYZdVEl7xUqVKRVwZMURj6HLTuYmRfECIkMpmbLuGDRtGVU7GPxyvNa+NLjexhEZ4PopdydHHGctjWeOVgfB+Serr27evfD4yNdITpI4VXhv1mxQFJwtHWyhh35DRiRGNq4HH/frrr2WMDqMXoxbbCLsKbzXVPIx2rKiiBdsE+43HJz+K5yCOx+IBmwtjHbuIpiOMVIx26Vmq857w6vP6sefwYfH+CIBzQ3Ez8HyMVr5pTX5o4hEV74vMjkC7jedFpOHsUCtr1qyRjVP8HwReP3Yvdlu4mSGQeG0u04feEJF4xeWYn8tgMOIyOIYRl8ExohYXhnm4cIchNeGeW8vsoiXEoGf5THjDCnE2vL6stqxhGkNqwmqb6AmuFFbFVnAx0a3HjhBx4cCka50Owh1OZCoY3ItPH7bJBziFdWni/4G4Ao+ZM2ciNnOYI+KBVqz6CTxCbC7CNrVq1YrJkWnIXKANNIJWwhGiIDzkhF8Ixbgl6czgHtAE2kAjkWLHITYXYLCTKzVhwgSZPnLo0CH1E0Nmhvgtefo0NCbHLbDayArpSVlIJyEoq5sGic8dOHBANrhgAwHCQv4cLUPmgKwTwjz0BCPDlSREuzYEfrcFBzrJsnPnzjRUxmjFD/nqdzVYvxoM/tEq8CsHgxNfyTTh+6xZs4r/A1/dAlhfFJD0AAAAAElFTkSuQmCC;" vertex="1" parent="mZAhdl8hGZGRWwnMFbeF-75">
          <mxGeometry x="20.24000000000001" y="97.74000000000001" width="53.53" height="64.52" as="geometry" />
        </mxCell>
        <mxCell id="mZAhdl8hGZGRWwnMFbeF-58" value="Source" style="text;html=1;align=center;verticalAlign=middle;resizable=0;points=[];autosize=1;strokeColor=none;fillColor=none;fontFamily=Architects Daughter;fontSource=https%3A%2F%2Ffonts.googleapis.com%2Fcss%3Ffamily%3DArchitects%2BDaughter;fontStyle=1" vertex="1" parent="mZAhdl8hGZGRWwnMFbeF-75">
          <mxGeometry x="14.769999999999982" y="67.5" width="59" height="26" as="geometry" />
        </mxCell>
        <mxCell id="mZAhdl8hGZGRWwnMFbeF-77" value="" style="group" vertex="1" connectable="0" parent="1">
          <mxGeometry x="1586" y="-42.99999999999999" width="137" height="172.5" as="geometry" />
        </mxCell>
        <mxCell id="mZAhdl8hGZGRWwnMFbeF-72" value="" style="rounded=0;whiteSpace=wrap;html=1;sketch=1;hachureGap=4;jiggle=2;curveFitting=1;fontFamily=Architects Daughter;fontSource=https%3A%2F%2Ffonts.googleapis.com%2Fcss%3Ffamily%3DArchitects%2BDaughter;rotation=90;" vertex="1" parent="mZAhdl8hGZGRWwnMFbeF-77">
          <mxGeometry y="43" width="137.5" height="121.5" as="geometry" />
        </mxCell>
        <mxCell id="mZAhdl8hGZGRWwnMFbeF-53" value="" style="shape=image;verticalLabelPosition=bottom;labelBackgroundColor=default;verticalAlign=top;aspect=fixed;imageAspect=0;image=data:image/png,iVBORw0KGgoAAAANSUhEUgAAALYAAACrCAYAAADLuGZBAAAAAXNSR0IArs4c6QAAAARnQU1BAACxjwv8YQUAAAAJcEhZcwAADsMAAA7DAcdvqGQAAHVISURBVHhe7X0HoB1VtfZ3+j333F6Sm94hhZAGoUNC71UBRRQVFeXxHlhREEFQFAtKE0FEEUQQKSKhE0oSQiqQRkjv5fZ2+jn3/741Z25OLqHo4+flJnfBZM6d2bNnz+xvrf2ttct4YrFYB3qkR/Yw8eb2PdIje5T0ALtH9kjpAXaP7JHSA+we2SOlB9g9skdKD7B7ZI+UHmD3yB4pPcDukT1SeoDdI3uk9AC7R/ZI6QF2j+yR0gPsHtkjpQfYPbJHyl41uu8/fVBPbv/Bks3t3186PsCOePKu37mcO675aOXIF+Wp67nv4N7zQWXcs2zcHgvsrg/VwQPZPGR82EPng8jLxJ4uqNr5TwEmk9u74gClI5eyg/9ldwEegV2g9tm1zvU70ula97d3p6tdRejIZvlszJubh4X0eZmqs7BKw787cvvcNSb5L0DJPTqff4fuLXvOk3yI/DugluSnyb/2w+X9AOIe8xqYd+yde7mQ2wE9T14ZvMhkM0gToFJQR5xrPR4/vD4f/P4gfNzDw40isGcy3NJppNNSOkleuQzMzk8TWfQ9SPZ4KuI+3A5AfHSgylK74hrBD77UtYw7i7Lpen/lnV8Ox2Lni3eXuXl4nWXFkx0dAiwVhBTD4xWoddLzntZF8r7lVmYf/FDdUvYqYOfbwH9HRCc+DNjW2n+IEHOGvV2Jzn2QZFI7LnQoB/cu6nlthvfPsKTZHDVxxStqQvHpgg8Q2fkPKUK3kj0G2F0fomslqbLzHbR/R4wHdzGDXe/XFdjvB5L/FNj5t8+SYpiS8KBwqyx1e+3tt55V5/hb4p7Ll/y/lXUwt99TZC8BNqvWrJj2zhGTXNP9nv1OQnjYITX1dsAkPxsJKfBOshOAed1O9lL5dMlAxet66/w/XeuczWSQyqQdRZXlJq/25JnvNM9lmMasNumJ8e6c1e5aZvdvnQ1x63L7bi17AbBzpjSrFLnfnakFdIGi6z53WnsDvH47TpkL0a73S7tZ58Tl525WdpXlpx/vFRfYphC5i5wWJpexMrDrO3ivDH/6zGnsKql0yoAt0Ht8Afh9frtlXk6d4hZF2fYAezeVrg+xo5Jy1fmfANv9od2/C+zc3rXcMqjO7/wr3YvoKOaZa7udnUvb37pw9aoVaI/H0dLagqaWNrS1taI9Fjfrbc+WziBAEIfDYRSXlqKqqpJbFSoqq1FYWAhfMGBZdS23W9IA9ztK0P2l2wBbTlFLSwvKyspyRxyRdVJzm0w5ViqTTqKgoCB3FuDzsbJlj/g7GkUgQCvm96GlqQkNDXXEjCybB4lYAgWFBSgpKkFhJIJAiNco0uCKhTKYLpFAiOfU1McJtFBB2E4nWY4A880Xhejqa2t5nwasX78Wrc0taG9vpxX1GNj0LDU1fdCrdw2qqnvbNQJXRzaNlsYGLFn6NmbPep37xQR1G7Zu2471Gzeirr6JljmXWBt1QDrpzelJcXEB861B3/790Zt5FxVFMGbsWEyYMB6TD5xsaVS2xuYGniuxd5KKZ/jeCu259K4l6XTanlV/u05od5FuBWyBWJXgiiohSrAGg0E7rorw+/12rrW1lRVcbL+3b9+OzZs3Y+bMmXjttdewZs0aNNTXEmRRgjNGsCaNChQS2AKc8ioIR9C3b1+MGjUKgwYNwqGHHoqhQ4caGFXZ+ZJk8+/zq1xZNLc0Y87cOXj66aexcOFCbNq0CZs3btphKrmnYXW4L0WA8fDakuIyjBs3DvuOGMGybcOsGTOwfi2vo1RUFqCpKW6tghoUC2EIewK130tFLEa0rhkhcm2VTe8pzmdyRZgsLAoTzCmMGTMGF110EU477RRUVla5KfjuxNcDZhwkyiOVSpmRkALnG4vuIN2SiuhFCxACtCyofguMdXV1KCkpseNKIwD/88mncNddd5nVlHIkmd5EQGTlueLJKYQ5XTqeC3MEmJcqtZWtBWsdo0fti/PPPx+TJ0+2Zn/AgAHo06c35i+chxmzZuH+++/H4reXCCsO+CQEogN8ZU1Tm9nFK/fq/jzO/z0d4tC8Nw8VFAT4bH6MHz8O5aQVlb16I1REhfUG0UEN8fpDCLJlqQ4X08o38jnrqewxxOLtqN22FStXrsSGjeuNBhUVhajMCVPiktIgvv3tK3D22edg8NDhuhs3v7WKei7XgLgtVHeTbgdsWWVtrgURWM1RsvbYg2hbjCBbgMceewwPPvggLV0LAuFCNrVxpnaskScUxsh992WFDmMFlyISKWSlFxvoW9vajAbUUkk2ExAbNmxARyoJPyvXz8tTybgpjqS8vBTHHXssDjroQDz6xON4+bVXkU5k4A2wNLm488TJB2D02P15j2Ja3kqUlVcgyLykN7FEHPVUuIb6ejQ3NGLp4kVYvmQxLacXB0zcH0cdeQT23XcElbWUrcYQ9Bs4EEUllaYvUklXLdO8laAXch7PpLU5jY2b1mEjKVBt7XasWb0S0556AosWLWH+1J/cxYcdNhFf+MIXccJJp1OJScVoGCSNVBK1eGoBXbrXnaRbAVsg1qaXLcsq/qy9LLZ4dO32rXj00cfxpz/9GW++9XbuKi+KSB8GDh6O4048CVOmTEG/fgMQJOVI03Lq2hKrQB/z7iBXTyIeI0UhwBOJqDXHHazYubNn4PUZr+H555611kA82UTd1tzpJQZCTrmGDt8HF174BUw5eirCBHSIFjBCxQkVROCnTriOpiiCuHI8RmXoSKOZCtXa3AhlXV1RhurKchTmOHxbewwFEdIJ/tamdifBa2XoZVsFu3zoqXRqNLTX1tqcQLS9BXPfmIU7f38HZs18FaTysgVmwc87/1xccsk3qKQHIZlMmrEQmPWssuAuReku0m2ArSZRL1dAFLDbCDyB3LEwWbQ1N+ErX/kKnnxymlk0PZQcsnPP/wxOPvU0TCZHVtOucyn+09lrRxFQuoLCrUY14bKu2WSK/2ToZEaNnz897V/485/vxbrVa4ybZuiE+oMhfOGiL+D7V/8QpSVFaE/wYpZZBp6+2U6+qKsMMuwporSUDZDumYzpflkUBEi1WF5jNEzc0NyGRUvfxco1G9GezCLGbXtjG9ro9AYCIRSG6GeQmpSVFmPwoIHYZ/hg9OsbRiH1Qs8QZEbtbR0oLnI6bl599TVc/YMrzQ8oYVlbmlrZOuyLK664Ap/61KfYwkSYqvtKt+TYknyHZtXKd/Hdb30TM2a+Rg6ZRGV1JY459nhc8vVLMfHASdZUt7Sl4SNSvDRvNH7Yuq0etWz+ZQmlJM1UjBDzKy0qQlVlGSpo5UuKI4gU+I3DhkM+go0KFiWlYTseofUU4lctX45nn38R6zZsxbnnno+Jk/ZHnDqQ4D/EHhpaWtHSGsPqdRvRSP66vV73jBrNDhcWGTUpLSnG0L690Zv37d2rBLytRTmy9P+kC6L/Tz09AwveXoo3F7+LBtItX0ExrTXL4C+gwgRo+R1fI51MoL21iZQpyucoxX6j98XwYYNwwISxGNy/F8poB6QoQWZc19CMhx/8K/5w913YtGEd4uTmvXr1wsUXX4yvfvWr6N27t0VxuiPIux2w1dTLcqu5FNddv349fnfHbbj797fRqndg0JCB+PLFl+CLX/oKCkuLaNFYkTRR2+rbsXT5Cix+ZwVWrFpDh2ozLbeH1i5IUKSJ1SSb3AJz1GKxOLcoCkIBDOjbFwP79MLAvjUYNqgfaqpKUVVeQksYItADiBQWWBhZxlnUQi+Txo88fzHmzn8LK1evI5ib4KNVjbHVEQ3x8Z5Kp9F6svaRAtKozRtQwXyH0dqO3GcY9h0xHEP5u3c1nVdRel6gfOcuWInnX3wFS99dyedS9KYIGTY/rVSkIJUtHCLQVR4qfjweJYgTpDakcJk4jjhiMg6euB/GjByB8ogf9CXpk6SxZeMG/PzGG/DC88+iqbGe/kYhLr/sv2m9L0e4KML3mjSlV/uhcruyO5OTbgNscV1xPlEScT7XW7/11lvx3e99l9bVS+uSxT333kNH6GyEIgWIE0Rb6oGnn38Vz738CtIEQMbjJx0hn/YEuFevnJdNdQd/RS0aofN0lWyTeAU+mc54KwLZGAb1rSTQK1FBpRk9eiQmTZwA+lxGcahDBPQ2THv6ObyzfA06vEQO79NMCx0pVvzdgw7xAolHgegdr17DS6WofpYllWhXyBwD+tdgMvPfb+Q+dHaLUEDFEYXZsDGFma/NwPTpL2F7bS3Ke/dFurAYm+taEPIXsiUrIWXK0OENU4m8qKvbCn9AV8ZQVhTAhJHDcOKUI3Do/gMhuKbbqTR0Fm+95de463e3kHuTY/P4977zP/jqJV9DeZ++LK/GH/pYYhoVNoFBetKiNCqQ0brdDOW+q6+++trc791a8kEtkMtqz58/H5dddhktbozWsAP3/Ok2HDHlRBSVl1n39DPTl+Ffz83AzLlvIekNIq3No32IAA6yogpYL2GmZc0wvYJsGU8IKW8Bkp4CS5u1dB42x0W0ehnr2Nm6dStq6+tx+BFHoapXqVXsphbg8Wnz8Pg/n8WazXVIM++2pIdWNYzymgHkxMyfFjYrgNC0Z1n+LCmOFEvHdE60Qt6lYNVOK1nb0IRVa9dhwaJFqK1LoN+QwWZlIyU+An0IKUsJNm9ei+a2VjQn6OSVlVNB+AwZLwqLK9HankBtUwsiFRUoKCtCMelVgu9uxYp3sXzxErQ3pVBTOQCV5T6Lcx937NHIkkbNnzuLz5rFzFlvkHcPwehRo6ifamU0lFYIJqi5c365/+TtdwPpNsCWuJ0voiGy1hdeeCEraQW5pgdnn3s6Lv/OlbTclWDd4LVZK/GXvz2KNes3k/PS1tCxyxKBApTjkgnMChOqK1lVpquyBLmsuWOZLCUttpeWPODh+UwM5cUFpAY+nHji8Zg0aRxpBAi8rfjjfQ9h3kICsLae2Cyw8J7GaqToHUZJC3zqlbGKp5XutNq6iyMd1EQ5jRmLYZMiMb2UOUMgqhNqBbn8nDkLkMlG0K9fDUTx+w/si779hqGxuRlryPGLiqhkzCtNR9fPeyvKk6Yy+mm129tbkKSXGgp5UUTq09rYjPV0fOU0BgIlzKfUyncULXmaoH5r4TwkmM/0l1/E5IMPwYBBg6mIivoQNHp9lE5fOMN3I8/YfZjdQLoNsBW7lnMkUMtplLX+8Y9/bOMhetfU4Oe//jUKisppWXjuzdW4/6HHsXbjdgTYRFdUVSOaIo8mkM06d9aAj9hyAOwjsIU3h6bIMjm15yfQfNyKCwn2RJQFSWD8uLE4+6xTQSOGBDnI3x97Gq/NnEMAFVovYCKZQZxbkHw3SDqQ5L29OaXcAWxnr3urdfGSr+uvLEk41YugFv/32+b3U+3kFNKRW7lqJbbVtqBP3xGoLCNIS8sI8BGoZ0uymX5Doj1u3eRyXj3MP0LKlCHwvAR3nFZdocQSljHId9nS3IpGtgq1dQ0IFVYQ3GV8v8DECRN5bDuWLn4LbXEqGl/FIYcdiVA4YsCWtTaAq/CUbCZNJXYVd/eQnO7t/iJrLVC7VvuWW24xiybAn/Pp8zBo+EiCqpQ8sx2PPvU8Ntc2oLKmP5teD523Zgc0eY8rbHlojWWtdcapFee8nC/HUuu8tjRqt25BlFy5nM36Fz5/PsqKWaFMd/c9j2LGjDmorO5tlRujlbPmmkqkAUrpDpIS0ieJALxrYdpk2gZC+QhwObQeUpNUpoP0K0VAphApq0B1TT8k6QnPfGMOHv3nNCxbS2pWCIwcXorzz/s0hvTvg2S0GT5Ss0igA9l4O5WxnZSlACHmW0kF9wcLsa2uGc3RNIoqatARjGDxu6vxt0f/hW3NdCX4KvykXd+47FvcF6OUD/rEk/+iE7zKOmpcEbCdH7xAL2I3k24DbFdktZcuXYoFCxYQAAEbu3HyKWfQ8QrT/QNefG0u3l62CskOcuWMD+HiEtB4mlMoYHVWgVlLAdrdJA7yHNDTInUCO4ua3r1Rzko+4fgTUFoCNLQBcxaswYxZc1BGwCRJOZLpjIHTKyubG00nZYzGo7x37j7uvlOce3Zk2XKQAnnFtdmsO1hRPmGEqbDxZJaAbECgoIjgD+OFl1/F3x55FO+uSZlDOWZwBBecdy4mj98f0eY6eDJRFIfZDsVakUnGEFXcn61BkEAuKKQj648gjgDaqPhtWR/W1Tbixl/dTf+CpaPtGDxiMC648CK2BK1oam7HW28tMiNiTI7idZHNfX58fneRbgVsRQ1kNV555RXjnYplH3/88eg/aJBV7oIlG/Gv518hqfDb1hxNkltHUFJZZXZZTNoVA28OtCYEpP7y2CgjF9SkENzojqFu2yYMGzoExxwzln+DvDZD/jkDTbxHXWO7xawDtIbqLEnGk2htbadTmyU9CZDXOl3w+eIqj7tFiopsXEqW943H4qQdCtclkKCypFg2dQD16jsAceYZTWRQWlmDuQsX47Y778HCJa10NoHJY6tx9pmnYfiQAfCkYnQ0PSgu8BPojQjTx4hZzD7G5wzQWQ2hhWWP8XmLmJcnVIy33lmJe+9/3gbLKkx64smnwaeuUj7woiVLLHIjYLO4jugH/QKLc+5m0m2ALWvhjgtxR+tJJkyYgDC5n1y/TVsbsWV7Ay1mISu+lw0aWrdpq1lTAdtqyB5ZYFatWM3wqP7WcWdzUpJt87SF+0gnPNyOO3qq1aNi1opRL3t3DXr3GQx/uJgADiOWSLKVyKKsspK0oY91CMVpsRXFcUT3yYlZbt3JEcWdU0xr4zLopBXQwQuFSSEKwjaAykuFqW9sofPoRYhOohRJEZtN2+tw3/0Pki873fOT9q/ByccfTapUgGhrPcJ0FuUjZFNUcj6boibRGOkSW4ZivqMAaUdjWxTrttShuu9g0pJVWL0uBjYUGD9pMsvjlHkj+buGuqrEYh+dYqS7B9gfSdQJo80dG6JNIhqyceNGi4SIgmgY6ZAhQ+xcO7Hz8KNPIFhQguLyajQ1xcyBKy4pNWtnUYdcvvmbehG1l0MapOOZJgiDfnJ3Omuk8KDPpTADRo/cF0MG90MhmUJ9A/DyazPRTKua8QRoReVs+mitw3QSA4jRcZOjp3zl/CmWvBOo3yOOAyvLLbXSc2rTX1o6IUn+rTiyIjYd8ivYPKUzHgK/2JzlLdvrceed90IDEPWqph61H0aPHoEk+XVbUy0G9uuNAtEjXuv3hYzeKHIfj6fpg9BV9YfQZ+AQ69FsbIlia10jqZxu76OC1qiANp7cl+McblREyqhu0UwiN2JyN5LdEti7EllqicZZq7dRA6Cqq6vRp08f8s4AGurTtMwZNvsRi0rICYsTED4fm/c8p2dnUe1pIwenoyYFcux17sVkadnScYSCXkzYfzRK6DDq7OuvL6T1bCXQgoiTx4NgIYS5OWuFqA2wCAzTUp+6yHsBLkA7oiude+wszlGHSqmDSR1NPm46ptCkHytXbcQzT79G5YR1/Z995qno37dKKW1wmOVA2qG9V3SLBVM+Kp/mUCgkmaDJjxKkcSq1XneowGNj0kWRtm3ZgtY2thg5C66ojevIa5ra7ibdBtiyYLKATU1NNsZYnTUaC61NBnHt2rW0UBoYX8g9ge0L0PpmeB0BoIEZetR8lJEKWCVr4+kE08raSYG83Pw8kRWFoLUuL45g3NixIDMwefmVV9mcJxCkU5ei4+XxFxrQBGYX1I44r9cBuDLfGdRmoXNlciI03LS3zTm/swjILsC55cKSujeNL2bOno9nn1/GY8CgfgU484zTURIpoEWNwyelFa0ilekEuKWUZEljpPxqIdJsceJ2Xu9gQP++FtZLMQ/10LoGRqKolJ7O22Xm0O4gzpvvBqIXKmDLYmussETTn2xIJX+vXr3GTI814zyiCnKv0ZYvSt8VNHKMRFc85LcCumLAyCRZbxn07lWFPjUlZpdWrY+ZEgVDhQgVapyGHx0a9G8wkfXU5lhuYTb/Nvm/8+9v9xNEDdzOb4NPF0XYIXaWGToA170Ki8qxvb4NTz7zHJatZGvCM1OOHIv9xoxGpDBIns2SMTvdy/EdnDLoXgK2xcxpmfXO0iLrFN2lVFEl8vNK+g3FmjKnIDYvkREwBdblBvDdS7oNsCUCqCy1RAAuLy+335ItmzfRwjhzHjWOIUNHLEi+m2Ul0aYyBWuANelWpCv2l+qHP4irTmVwWwjWN4YO7o8K0hDJvDlzLRQXUMcLrRwbCXPaRAcEsPe8UtdSd1psd3PTOukFNIMoC+HuzUJ2brycmytOL6qz6d6xJJ1C8mUNLXh++ivWcSTcTZl6OAFZaM+tSI9ruRWuc6M+oitqB1Qu7Z3WwymZKRlPVVaUU+mdAnTuc7i2lLpgNxLnrXYTUdOnuLD22ioqKiyKIHC1trYRhOSfRJljidRZ7lSSQJoPivdIjnMK1IolK0/9lpMUoVM5fNhQs9bSqUVvL8qNV8kgGk0Zr1eXvWCSg6az558fdMuu4gBq572T04eLLKfoiJ+Oc5R+hSZZLFu+xYbrjh7VH0OHDHLytHy1d8GtqwXqNDK0ymm+W2ltiO9R91Xa1pZmG0JQXlqMBP0atWD2bplAlzs9ubuf7J6l2oWIWkgUuxbw9LeoiECrXrsOdeuqslh7imhEwo7T6BGoVaOU3M6kK/AM/ASHxMKKzEstgIanDhk00I5v3drCbQsdVKeb3GMcV9foNb7/q3Ss2vtLJ+hy1jkHmc5N6vIe2SkJfYKCCKlRCZqp4PXNLXjmheesSGpxpkw9ij/5bphY+Tutg/6WFafF5rP6RKj5t8aVFPDdCdSaYbN5w3q+24y9gwA13aV1uZ1J3s/dRroNsAVmiUtF9IIV8pNltXPqrWN1aIKrurWD9PRs9rgNaNAZO9sJIlecUXY8pnSscdESWTo1714CvcAfRHW5F+1tpDsbN/L+Toshqhkp8KE4kEbEF0cw245ANo5ARxz+DqYhYDpBY2DilkO4SpQvZvU6ctyc5XEssDaRBEVBFH1wWiCNaWG7xSMJ/p00cGrLRpvgSbegqpK+AO+58p3lqKUiasTt4eNrWCalZ9Om4bJ8AbpKLZWnw8/Nay1TMBiwmTghcm0aZlrouFE8vkaMGDHC5kDKAEhSVGyB22nl7NBuJbslsJ2XlXMEc5vA5C4HIFGoyeYj8u1G4wkCmU0lHTlVn7e4CI304rMBgkXzq8htDRSywrTGPqtQHSEkeI3GaXcEST0KeT3TZH1Bmz6WTXswfMAQlDCLqkJg3TurEfSE0NrUirC/AyWBBEo6tqHKsxXp+uX8XYfEtnfhbduCikASHW21KOxIEfikURlN96IlZFNvE32lp9wUvdGmzhYNpU1RQZNUsqRoF53SlEfzHEOEdQAd6QTKI3QUva0IZBrQEd2GXiVBFHljCMQ2IF67FIFkI4qCQEt9HZ76xyOIEHQ+3ufSL38KbY0baJn5fHwvnmAh0tkg0okAAp5CJPgOk9F2mzgRIdVSoCNNRG/dVmfve/To/VgPVDK+F0WZgnyvArZwvqMDaveR3RLYuxLjvDluLRGgRUd0XCCPkn7I8mmsc5r2SCZVllhrachAuw6YmuGdLLYgz8rP0Jol0zFkmKCDzbIiJJJSOl7EApWBFcjK1311v9aWBmxavwLJli2oomN50tTJOPrQCTjxmEMxcmgfbF71DgqoUNWlRWip205QpgggDwoIYr8pqqO4am00VctpTxQyZFm4pXVOCkfbbJtaJSas27aB1KsZVWUhcuGszbyZNG40vvlfF+HGa7+HH/3gO/jut6/AFZdfjqOOOBwRxbX5ygb0raLPoCGwLTbKTwD1BAhgfwHz9togqQCd7eqKSvTqVWWtSmNjkwGEeoDiwiK+PLUcLIYupjjTmFU3eS90N5FuA2yJgOAufSCAiW9LQsEQUloghhXvI6A7cp0IeuE7rIkD1PdILlpBNSFvjvOaDFmNRtoluCVRUeWMU25sTqMt2kjnNYai4gJMnXoEbrzxJ7jnnlvxkxuuwje+fgHOOPMUnHX6yfjhVf+FBx+8C4ccciDWr1+DPr2raKUJpgzbEwFaUKVyCNyalqYpYo4j5wBEOLFNvw3ytLKKwNB561vTC8lYFFu3bMZxR0/Bb397Ay79xinYd9Ro7DduGAYPLsF+o/vg0INH89g+oG9rznV1daXFmzO6F42Ds4g82yy+0yzJtMJ4Pt60orLMhsMKu1qXxU/l0oJBZXkRKKc3eAfAZVx2N+lWFluiiaWKSuilqrNGEgppFASRwMpSOveFq9LEBTtF0Y9dPLIcRSKPIIvR2SQSCO4OUgiBu6qq3Kxoln+XVRTj1LNOwU9vugqXff0UDB1RqrbBBv2HaBl7VfoxfEiJOWy9y4BvX3o6rv7+d9HW0kjdSSEebSNfJcANVLwPnTFNBsgVwgGxgMdn4Rnj59rreFFhGIWaG7ltK4qLCvGdb16Oc84+mZwaqK3lvavYojDLtVtTeHd9OxpaNFm3FdEEFYf30KBBObsFhYU24ErPFKeSZugH8OlsKIHKpli1SsRXh8WLFsFDZRg/fjzKKyusmBK9X9fn0bU9wP5fiEAqUexaM6klGgwlYSuKcjb5cuM9tNoCg/vCZZVUiYKNAVS/d1kPApGstTp0nH0mkzQwSzRY/6yzz8Bnzz0aVSVAG28RYeOhMRUz5i7D9FcX4Klpr+HVmYuwYvkGbNgct4FKk8aV4ZuXfwPlZREk4y20tlo2IoG0Zp1I+Fh6NAFaPoADZIXUnDCcjotGtTY1oKQ4jNKSCI6ZehQmjN8X1XpkNlTEI35928O44We34Te33oFf/Po3uPKH1+JP9z+AbXX1CGolHd6jg1ZZi8Nncv9l1VqxqdAQkJjmdFIhq6XIxKze9rx5c9iKpWxZhuJiPrTeHcviAtmtE/XU7m7ilKwbiXrA+vfvb7+3bNlilkMP0aemNyuEFIKAUZiONWAv/sOsiUMBBB4pCPmveDrzEU1QuDBSpAFDdB57lSBCCtJGPK7e0oGZs9fgDw9Ox003/RZ33vUH3PSrX+CZ56bhxz++FnfccRuee+YpOmM0yrx22OAqjN53mHX9dxCJKl46leRdHastReu01gIyf1skxUDuWPKCgiBi7e0oLSrGaaecQn5NBzEG/Oufs/DbW2/BiJGjcOhRU3H62Z/CqLHjbJmHlWvXoS3GFoJl0DMoRy191trWymNyAPm8JNBaeSpD7agsL8awIQNha3jygkWL3jKlq+nXFwWa0UCrIN9Dfo4WGPLnBkXp/e1u0q2ALRCrU8YFtibVpnPx7f59+5JBpJ3lyNSzYgBRJegRCZEu+HYALdlRKRpLLc8/k5YVC9gwTXF6BxRAezSD2XPfxe133oXb7vgDnn7uJazbtM1WePrelT/At7/9Hfzx3ntx7bXX2EquDz7wsAXqakhLDpo0DuUlhQgS3aECRRfEU3nvXKsicYAsgMvRze35t44HiDA5eIMG9UdFic+WNHt5+kxbuEdzPycfNBZHHzUGkyf1Q79BQ1BaWYVwEakSr1P4sraRtINPIaudSNPM6z72bph3UIYgheryUgwcUG7O4oIFb2PLpk181/0wbNgwKqDPwqcqqVdRlQ+2F//n0u2ALX7tdqVr3IiO6R1rTQ61oR3kslp+TBZYTmG+1bYYcd4j6y+JjiieG9TiMxqET13xeYM29lmLP4pNbq1tw5//8iB+/ds7sOyd1bTg/WntihGNd6C0og9KKqpRVV2BAX1L0LdXBKecfAo2bdqAlSvr7S777jMUJaQRBbSSYYUgCSgBW2VzfF2B2imPlZZl194BuNNxUl+7nU7hITqLhvY0Nq1fh5bmFixZtNQoUQMpybxlbXht1hs2/UvzLwsKiwyEm7dsM26vJZI11ttLgKcJ8BQNgRxHL/2KokgI5RHnfby1cAGi9AmGDRtqw4Mletc2nsb+yhP5CU7RdxvpVsCW9RRQxfkECI3yW0QHRzJqn2GIsLkWxyauCU46f6wIddTEFKZ7n0e1SqJT6feH6NzR0SJCworxEtw6Vrut0a6MxrPYtLmWilVCEPdhE0+6ECyBP1SG1Wu34+VX38Cy1ZvJioF1W+M240RLCG/fvsWsdlkpMHqfEbY2n9YGDMgsyiLTajqL0ewsppg50e9UIoVevasIrqRZaz3bkqVLLLry4svT8Z3v/gzf+t7NuPWOu7BpWx2tasAmW/TrR87M9NvreIxW1+XFihbJYGdSCTrNSWQSMUyZcqidk6x49x3D68hRo9CHVKSDShGkQnj8jvrlGhkH0Lk8dyfZ/Ur0ASILJx6sMcLqddSSt/X19XZOUYmiwiAKwwHEE1FziJRes1JkoSTGNYlkt04ccSyjxih7sup0IOfNCnTa6/WoR1AKIHhq6paoiZY20MI6WgA+hLQnhBdem42/PPQYbrz5L7jvwYfwyszZaG3XSMD1tj6fVmotZGsT8Hs7aZDAIQtolORDRKFNbS4wg4Egism39SkOXa7BUHJWU1pXRFzY47fZN67U1zfweZzoh1oDlSNIZPvIlbUcmvHrwQPMJ9i8eRtWrFhmeD3icILdBa5Flbq+v5zIEd2NJFfi7iGaXKCKFedTZEThPlvml+9U2O3bpxcrzIc0AaDZHrIymn0S0kr9rHjB09l2PPYOy6hj3KzyCAzXJEkTJB7mx3urEyXLNM5COuoxJLi9YSQI8lUba/HaG2/ZZOKNW2rpeJZi/cbNVucy0FqjryDIgjJvQsoArS2jdc+6VIV7W4l+y9lLJtK09klbaVVrqVRVV9n7UOslJbQJxckMga0YeQiRSElnrmo9xEnSGhLA5wuxQMKrAJ5ob0X/PjWoKi2wt7Ny1XLMnTeHrQFsMXpdt0swm+xegHZl57e5G4uApmZXog4DRUckq1atYmUTVnyS/UaNtG5hsUCN6XFB64IkHyyOM+kkEIc1ICvMZ0d2VKNGVUgEIB1VHhb5VXJaca3mZPMHq/rBV1TNjU2/r5CICUMj7tau0fgSWmwCu6qsnHQp3Kk0NnGYBXEttlxFZ69/3PupRF6E6aAK3NvIsy05T/bu09eOSekyHVTolJYf4yldSIsdKSxx8qI01DeztWOLZOFQKRbP8LkVYtT+iMMOsmiN5F1SnIa6Jhx44AHoo+XNcqJ35ua3u4tTj91EtPqTQFFUVNQZGVm9ejUaGxvsQfYfMwapOKkHnTNZMW3i5aIjJrmmdFeimLEg26EOiw7FmBVD4N90qgx21q+uyqWV5X8WYeBvRRk08Ko10YHmKP8OFNlvbyBCbp9FfUOLrb6qJr6srNJGBlrfjB3RfQUxWUQncmOQk4UkoB1nl8d43CNN5bn16zfaY2jyeP/+A0i5NGGYZZQi2EAqDQYTgD2dkzCUh4bzasFKhTN9yjfNa0RL6ClXlpVg4sT9zRi0tbbg6aefVMHw2c+cDz+pXVLrkCujrrIbo/z9a3o3E4FUks6F9yZNmmQWXMDWjHW944H9a+ikFfGhWHEZRUSc8Rg2WCr3qI5tzBOZdW427oGIM4DbCDhxUV3njCb0aLCIAVkxEtnxtIFcg+4FbE9Q63T4yXP9iJESBAqKHfTxnIqs8pWVlJEbByy6YGWjpdUAKIUYVRUOuFlOs9Z8XlNE5++URmWxddDHlZpb0vbB0f4DBqF3TR+2CHSU7cHoBPuCpGHk/xlCnHnrvnpzUnADNR1IhRG1spRmBatzZeS+I5xRfdS19evW4uWXpqMo7MERRxymTFl+KbrK1H2k2wDbFbcZnzp1qlWSJvZq5rpTecA+++xDByphzbvGYgvUrlI4ot/5f/Mv5qmOEQGaLJWbwJuz3rTYlsab5qYK1hArAkkgl0LIEyRIPYEQfKESJGg1aeboMHqRFu8leJobVR6thy1KQhBT6axFYfksUqHpZVYmpzpkHWW9zYLn9hpTIkXevq0W77yz3EBWWV2CMfvt56xHItwT+H46lVon0Mai8x6KYUsKggXIqM+df2vBSY2t0VgaxcYnjp9Ax9u597Snp/E8cMYZZ9h8UklhcZHtu5N0K2BbzDoH0rFjx9peyxzU1W23CsvQqg0b3J90hE2ncUmFtQhIWS5RCB7IEogZWWmKctJPrd/nSF7zn1MgVwyIuXs718m6Oz2FmtwQb4/aXgDTeAzimRstI8usGeDKTi6C0qjLXqBSfub8ieLI8jNjx1LzgJVpB9AVm/MFw2hqjWPZO2sQY/4aozJqxAiUFoVN0ZTGz1bCT0WxhVaoESqPnsQbYFnSmqRLpZKzSkVRWYJ0ToYOG2DWWpTuj3ffZRecc+75CJC6xLRyTq4cKkb+3pHdE0K7Z6neRwQ292tWmiJ29NFH2/jsF7Vgef1WlBV50aeqBIWs4CArtSNJMNNkaTkBLd2V9NFS+TLIaPSegEDxZWkxBSQvLV2wEKFwGauev8mVE7yoMFJh9jsZy6K9TWuOhPnS1JzTGrcn9AvpaIxX0AImoighQoxYmLPpoTUtQFt7m0VFtIC7n1QmHPahvbWRFjtD+59Ca0xLOahMolmGYpZJk4qlaGoZ1EaoLfGistcgPPvsDMTa6Z/yEcYQlKURH31V0iAqTFtTO+LNSZQVlmH7hq18Tw6wy6podZm/Ap9hlq2QWubJpDBm/HD0HxiB3uqShQuxbeMWTJwwnoZjInm7H+GiMr538XIqDYsW4MZHoVLwH0M4X6zo024GpW4FbDcqInohznjEEUdYbHfu3DfoDNFKk4L0612F6opSOkZ0IgN+G63mjmbT5jbxJjxAo2UglWXTZks1CFBMFKD1s252Jk1RSTp4zmLbqmhB2qw4QUWggDxU454VYdHUNI03UXlFIXz6LgZF+WsYkkaMaxEdj1ej5EiVfFRCA7Bzb6dMdomJfvpDAaYjXyfYUmkv3nh9md2vqgI49JAD0Vi/jTSH15JmaMx3mk507bbtKKZVl5dQVEJnltogK52KRanQGZsBpK+TCex6JX+8624U0EqfcMJJ5uR6ffpmpFoWp/xK426dYn/sfjDqNsDO78Rwp4fJYssy1m6vw7p1G2hNgxgyqD+GDxtmPWpZVp6afU0QyAfKrqSDANRkgA4CTWMzVF8RkmJ9e0a/FUPXfUWHLL3RCFa4HD8CSuUTX7ZOEOXF1iVIxUomYoiQmqj0+sqXFq3UylRSTInykzXclbjd6aIP7gQLawkItBenT7dBUGrADjn4YNKRQluAsqQowNYhg0QyhnYCWI+t8ldU9uZ1vA/LF6KiZWkI9hnSH+P3czplNm3eiqeeesq+O3Pcccd1fhZPRiT/3XcX6TbAVoUKMHrJLh1RPFvREdXeo/94lBXosUVthg0bQpDRutJqZmnF08m4A1ams1WQ7LHzH53WUh6TFIHgllVT17w+oKSvbknao+202gQ+AatxzbJipitqkwlurUcih00zvXVG4y80gF+htfIKByRt7SkkeBtFP/xsCSTi6p3zMg2FuwaR7qsZ8VpCLUj6tWbtesyZv55KAoLRg6OPPAzZWDPKIiE+d4LF0sqqftS1Ok9aUV5Fa0wuTodYvbMhvp/DJk9EqW5Neeqfj9v7le8ycOBAUzy9a4VYXUPSnaTbAFuiytUmkOul6+WfdNJJdu6RR/7Bcxke10i/3iguUi9aygAWZkU6oLakzEhWjzvbBCSCSmAm5DTsVVZSoT/N/5Oi6CXJYovXWxmYp66V++jyGqMdtG5KI0DJGdMKTGVlpTZORLfWUNI4KZKus15MUxJn5oqTy/uLKY3ClrxG1ttLR1JfAq5rht3rpBOOwoCaasRaavmccRSSZrS1N6GlRVEetj7FFUhlbfIZktEWDB9UgwPGjjBu3VS7CY89+g+Le59wwgk2yEwgf29EqftItwK2LLVAreZbVkTAPpjNsGTb1jryzAaeB/r0rib3LLGPFKU0bsRspGMJd0RA8oTAEh2Q4RSobXoZLbY6NEQYBAxZa0U4JIo/iyBompVNsZIeEHCaDWORBlIQV0lGDBtuTqO6iLZsqUU0rnChz4bGah08GzsircsTi1zkypsvevY4y6FoS2FRCd5ZuQar1jVa+Yb1JjU77EBE2+rIsTOkG1ls27LZlEABEkVq2unE+ugBZlPttNbj0UuDJDNJvP3GG1j85kIbpnDiiSfa9+QVbXI/NS3AdzfpVsCWmIVjZWkvK9mvXz9bGkBwnTFjlvHFqopCDOrfjyBN0vJESUeS/E2rSARorTxbLy8H8KyBitSBqHa+tisrKpDqK16Os0r8MR/FJRwL61oxsReBM80fUjRNcAiHnBGG+jS1evLGjBllECUesaW2Hm3xFLQsmpYbNlqlvnZlZPDcWbqCO0jOL+qhaJ3OtEaTmPH6HNS1OBV55CEHYOiAGoQCVMJ4K6+XA6s3QqOgIbnmFCew7/ABmDRhpM1eb6vbhofuvw9tre244IILOnt0XU7fHfm1pNsA23XaXI7t8myF+w455BBaTOC5p58hANnsFpKO9OuF0uIwf2vMBKkI06rzUGLfneliucVzBWiyZ1pQnmOGmk0uISshWHmO1xuweVi/Owh+lUdbgp6hRsrp25AeWsEMWwrNmBk8oD+bdAKb+GhsjSLG8mkMiayuHE0tQiOT38Vov0fUGuhZdX995Kidlr+D+1lzF2LNujbj7oP6BTFp3EimSdLiNqCyspw+A1sQXi+uX6jhsVTyiRPHoH+fMj5TCg1bNmHaP581IPz3f/+33UsfdNWwBYlGUHZHcWquG4hrQdJCbm6vTTNqDjjgAAPu8uUrsJnefUtrGlOnHIx4rAkFNJvx9lYC0bHYNvAo99jCtvUekme3spmOxWh1qTBporC4pMTW4aZRNKXp3acaQ4YMsq7oWGsrm+kg89RaIQELkYkmqAURJRFQs6kExo/dDxPG9bchtWvXpfD2suXk2PQDvM6Sw4XUwGhLk8W9nfLsrGwS12pLaUQP5KTq09YCt3i2FtT5xa9vQTwu5QfOPucklJSEyOu1Nkga5fQONValuaEFrc0NGDVqKA6ZPMGmlqVibfjljTfZe/nNzb+0+0jcdy1jUlpKB6EbSrcBtisCUL5o1rqoyH5j9seit97Gu++8g7ISWmkap/KyQjpc7RYFcOYS5oCdB26J/D818+oCTGt6Gf9O65MYRMvGjY3kq7BIQVNTvTmUmn/YULsVVZoinqVzlhHf17LFmunNv0VjCMRR+w4nSJw7LVq6DK2xJHwh3sdHpJO2WDOvCcikDB9FBHw9hZRCoTtZfm36fN9L0982BSqhoT3mmCOZJm4LvsdjQBGPN9bVoqy4BAdOGIe+vYotBj7ztZfx9DNPY/SoEbzmuE4Qu1RLe1PUbig7o2Q3FvcFuy9dANcx/T127DgMGDDI1nV+Z+kSeyilmnrkYUjG6EByM0goC4K602oTwU7HCBDSgG6v5vWRXzO1ZmcrwrF4yWKmBUqL/Dj4gAORiEfZpGtxGS/aGusQDvoQo7UXkI1vJ+LIpGKoqS7HpPHj2GIATW3A7Dfm0qqmEAhHLGRnXi7FwozyPrtwEQfCOzZXXHDLUmvTR1ZTtN7Pvvgy1m910k06cBx6VZdi6JB+dn/dadlbb2HEoIE4nDw8aLdO4Zbf3kxnFDj5xFM7vwyhb/uoJZS11t6lWt1NnLfbDcR9uS7AXY4t0RK3+9JqFwRCmDdnDrZva7B2+eiptFwdCfJYKoDsHC/NpyI7hJVnxNnrDP+UpeIWohVftnQ5GppSGqSHqcdMQXG4AA3bt1nvpldr89HihsjPFR82nSMh18ql+9NpHDjAGTY6Z85yrFu/Qd2H/F9LizkWV0rJX+ZsdoYiP4LY1315feeGALY3tmLGG/MRZz6KCOlDpMOHDXKWimgCVixdiuOOOgLlxaRQzOO555/FqzPn4uCDDsbpZ3+az+4QIkVCFBWR4VDUSfTKNSbdSboNsHfVJOqFu07lOWd/yhykma+9htWr3kWYbW11RQgjhg6CJtAaFRGwdZ1MtAFcFtCx2AmN0PeRc9CaagKBKrqkuMxmniyYv8B4cHVFIU447liLsiRsKYQw+XazOamak+jOKSwpimDy5EnmPEZJBV54cTpv5zNFUUQkIceRr17lNz6rWQsfIkY/drFp7UEBPVxUgTkL3sam7fQnmP6E447CkAF97Pfb8xehV3kpjpt6MDrYEsWTLfj5L3/G64Fzz/889hs/QS9Tt7HyqFz571tWvLtJtwG2ACMQ51sP/VYngj7JMYkOkeZC1tXVYeH8uTznRANOOvF41NXWdm3pdxKdSjJv63DREFICRaDR5NXm1nbMnTcPLS1p4+1nnnUQTjj+OKMb69au5rEAkqRACg/qJrpy1L4jsc+wAdCQ5+XLN+JdOqGRIppOWj99xlkhO/u0NcGjEKMzTPajiQGaVtrh2AQ1/87wru10ePV57XkLFxpxiYTC9AX8aK6PY/W77+C0E09AEel9IYn4n+69B3No3Q857EAcMfUYlpv58iKNuxH9kpPqGgxJfuvYXaRbAVtWxPXYJTqml26xWlbMRRd+UTQZ06ZNw6aN6806T5ownhWa677WNdZT6Dy2LLUrGpSvL+Gqadfn57L8rcXdpTiazDBt2tPGRyPM/6wzjsIRhxyCPtVVFreOtel75LxenSfkpYccPBkawqyhq2/MfoN83PkueoIZaPyGs2Y3XUYm0P7foSGuCNAOwdKmpZPT1hK8MnMmZr01h+4otUrhPDqNA/r0pn+wD+geYNWalbj3T/egrCyMz37uQgwcMtDCkXxsE5VTz+IaELcjrLtJtwF2VxGA9PIN6KoDAvtLF19ovX2zXnsVq1euovXpoPPkwaGTJ8NPDuwsIZZiciLOutIFbsf6eUN0xhThQJLA1kCmJNrII7LZABqbk3hh+kxMf2m+dQBpXb7zzzwC//O1C5Bq3YrSgjRKfDH4Y/XwpNswdvRg60RRuZbRWlb3qmS5EkhFm5FNtKGAnF/d6Ck6qprhruWP5RB+kOS3OPotZu3CWs8SpjkuLC3GytXrMXPGHII4iRA5fWVZMY48bDLIxswfeOqJx7F5w2aUlVbivPPOI4hpkXO41bt0ga01W7S8hUKe3XGsiCcWi/0H9mJ3E6KI1knY+MxnLsDj/3wKJ5x8Oh565CHrEFm4uBY3/Oy3CBRVojWeRrCklE13kk05+SP5QgE5hj+gIaRpOpp0rphdpjUGD89pgbMQlULhMTUMX/v6xbTI/S2MpgFSzS1xzHj1Vbz62lzUNTShb5++uOa6KxTNw+sL1uJXv7mNiNFwUx9BTEsYKrYv4vqCxTweQqAgYnxdI/JsFs8HiLUwOd9A4rY4FjXJxsmfm1FIBcs0b8VFnzoV5512CiLhCNLtUfgjhZj+4gs4+9NnW7f8VVdfialTpkAfNNXQ3Pr6WltZS5/ynj17trVU27ZtM+dRzuRVV12FL37xi2hoaLCOIh2TyMAoze4mewiw04i3N6MgHMC/pj2Pc8/9HIIE0Bvz3sagYTVYsymLu/54PxYuXUFwVyBL2tFIcHXQVOmDoKEwuW9KdIIUIUVLGk3An/UiEihAmK2CJ0UOkmjHgP6V+P53L0WfXqZD1ty1tzchpK73jJ/7AtQ2xVFUUWCR6YefnEHgt+HtxUsJJrYA+uSzvlvnL0YiyzS+QqR8+pIAlSnRYlGW/0hosSsrI2is34xU03b0I83Yt18VLvnCZzGgdy8qEalKextOO+MszHx9NgJh3pstUgc3faJD31gvKKAjHIvZYkSaXieeLRC/+eabZsX1Tc377rvPxsDLggvQ6kOQiJu7C/LvLrLnWGxSDE0J0wCjM848B6+88jp+8vNf4Rv//VUbBDTthcX43d33I1zei+zTj/YEaYA3wEoPwUuLQzijta0ZRQSnhjCl2tpRWVKEElKU+q2bsN8+Q/Dps05Cv5pSWuUQ5s1fiNpt6zB58niUFpXRiSyh9SOtIcZrm9MoKlWerHQWTZb1scdfxspV67Bk2UpkfGG0p8jjNZM97UOktBTp6P8O2LUNG1FTWYLq4gKcdsxROGzCaAzuHUa0JYXiEt6Lyf7x2LPYtn07ttAyb9iwnopa4ywNl06hqqIMvat72VgROeGieYoI3XjjjfjnP/9pt7nppptw2WWX2e98S707Wu09CNjkzeTX+oTyXXffg2t/fD36DxqGJ556HtW9S7B+Wxo33XwHVq7fBk9BGfyhUsTJRVK0zBadCPgsspGlZVXkoCjko+VuhT8dR3V5BF/+/Pk4cEK1cex1GzbhW//zdbz4/PM45dRjMG7sOIzaZwL61AzEsJGjabGLoIk2NNBoIxfqXSFFAua/uRwvvTQDy1auR7yDVlPTzzpordUTmUk6lOI/EQK7IEzVjLfinFNOwAlTJ6E3nVet9lpCxhBTdztrWYP0VNmNLfxNAyu6FG1usel0mgepTid3aK47sm/evHlmpbWOy89+9jO2hud2OpMCtGR3pCLd1nnsKkkN6vASJF4vDjv8EIwePRLvLn0bL77wlK3v0a+3H0ccPhkpOm8aj6y5e7LMPpnzFAHe3oHySDWduw5WdhsitNyJ9hYbb3HWmSdi7P7VcMO5F3/lC3jxuecRLPTgqX+9iFtv/x0uvPAL+P4ProZfs8FZ36S1eOfd1XQ4X0RdU4aKAkzcf18ccchkFJDyBOgBZuPtpkDpXM/ofy5ZbFizGhPG7Y9jj5kE6hVizO6evzyK71//e9z6x0fRzlStRHUztwiNNF8V2qhskbIS+6qvl6Bubm42sLrrt8iBdKMjWkpu5MiR5ljqnKiKAL07glriu/rqq6/N/e7GopF5PmiBRy0bXFlVifUb1mLWrNkEVS1OOvlE8sEilFX1wltvLUZbq74VzgqSWaUN9ntDpBJhNNRuRwE9xKLCAOq3b6SlLsTZZ52Ik44bYyGxIlq8qVOnYOHs1+1DTGmip7y6FM0NbZg4+VBc9aPrMWyfgdZL+fKM+bidgF+5YgVeeuF5jB8/Gb2rwiir6I05byxEM5EfjSURIY2JRWPwBf5zgChCUlUexrjRIzBx/ECL39911+N44aXpqGtsteXWbr/7b1iwaB0WL92E9VtasXr1Zmxcvw6bNmzAM089iTtvvx2rVrxr/LmqqsqcQwFbVloLfw4ePBiXX365WWv1AsuAuKBWzFt/706yx1hs9fq10lHTNx+1KM3xxx+Lmv4VmDNzFp55+gmbA9i3IohTTjgGfXtrOCfNFbll2OtDoCMDYplAbUE4mEURm+myiA/HHXMwzjx5vNEPDXT64TVX4615byCong5bIoHN+vZWfOlrl+H719yAo44+GFEqwJtLtuDp56YjUlxiHTIae73snXesnKK0JbSSLjg0WcE6hv4XImvvJWUaM2IQsqI/NM+bN6036xonUAPhQvQbOIgUJEqHej4e+cc/8NBDD+HO39+BO+64Fe+8swzHHXeMrbN9zDHH2HxHAfzRRx/FAw88YGAWqDVIShZdVtylKrsjqCV7DLAl+pyEDV5KJXHAAZNw7NFTbDGmRx66n9Z4swH06KMOxIA+1bRqGYttB+RaptvRWLsBo/ftD0+mDbVbVuHoKQfijFMPt2va2mL4+9/+gjtu/hVRpBkvQRx15PG45se/wLTnZuLS/7oShxx2sEVCNm6L4i9/+wdWrt2AbfXN1kqowydKoIjfatPnqol1BAqKuPfY2Oz/TVUoLu+l4kV8WVSyVdGXORq2bqTjWG+Ds/SZD4G/pakeIf6tpc3U3X/kYYfgS5//HK7+/vfw2fPONx4tENfW1uJ3v/udgVkgPv744zsXKJIlzx8Upd8KDe5usoc4j+TY5MbBoEBCeHnSrIQslq9cjkMOOdRizldf/0N864ofGPjeWlyLBx9+EgvfXkW+GLLF0P2BDMIRL7ZsWU8ncTQu+eqF6FcTIV9OY+YrL+K8T52Nc8/7LD5z/oUYOmQEQsGIfUA/HKHVIpCU76rNHfjLA3/F2nXr0NTaQlCRGnmdTqJrfvB9DBhQbPC96vo/YcGy1fBHqhDNaiKwFrnR8NX359muVcwfw+H+DnaQ70Y34sc/+G/sN3qYOYUrlm/icy7G1tpWNEfj6PAXoHfffnRwe6GsJIz+lcX0O4oRpuamovQpCNgoTb2Wi7v++uttxrrCeFqu+XbSlLPPPtvu1V1kjwG28Gwf1pS5Isz0rZVMNoFf/OIm3PTL2y3NfQ/+DSedcgatEDB7/ma88MIsLF680hyntuh2A/fkyRNw2aWftwmy+rbi4kULcdEXLsATjz+OAf2H0PHLxWv11rjFyWg2bgeefOFZzHv7bWzYstliurZ+d3Ojgfr2224EsWSEQ9tPb34EM+cvg6ewHJ4CTZzNsMhapUnqsWsRsHcFakkw24YqXz2u+fYlGDJ4IMvoMwWSmmijWw3qvS14I9HttARhmK2ZvyPFW8fQ2NCMv/71b7jmmmuMwsgKy0I//PDDRk9c6tFdZI8Btr56J75XQERqtro+7RYIerFt22Z88ctfwvTpczB42BD86+mXUF1dYxRl0eIGPPHkc1i7fhXBHUNNTSUuvfRrKCzwopjgXLFiCQ6eeABuveMWG4eiOEpjUzs2rN+KuvoomhpjWLJkBeYvehttpDWKMLS0t9vMdE2pmjBuDL7wuc+S83swoMpnM1nkr/7ilkfwyhtvIxssQ7ishkqYRMCT/MA4thudkHQFeIgWe0CkFT+5+nL0q640+tTU2GizzYlfUxddoc95tJJ/a5SJl2R8Gx3sN+fN4jMsxb33/hmtbVGjIgK1xmffcMMNOOuss+we+ffvDrLHADueyNCqOIvbxONRWs0gK0TLBwDPPfcCvv6NS1FbV49TT/8UrvnRDRg8ZIBZruYW8tHmJoKrkc34EB7TEg5prFn5Lm74yY8x7fF/4dHHH8Fhhx1JgBZi/botzG86Xn7lDWyrbSDVoAUnhy6oKEVbIobikmJbU3r8+LE4kDy/pqoIbPUtllzIpLKeP/3VQ5i7aDWSviL4tIQagdORjH4kYO/Kahuwi2O4+frvoJiO4tK3FuBfj//DohuiOUFy+hSVMkrHuqWtzZR95TtL8M6ShajfXm/WPRwJW8+o5jqef/75uOSSSzBmzBjLvzvKHgPsRDJLK0zHjr+1Bocm52oVJk3ZErqvu/Y6/PKXjvN3yKFH4q4/3Iv+A2rQ3JpCMKzvmYPWuAnV5WV4kxb42quusrEVWu5XvW033PBTmjofeWgK2+ua0B5NWLSjng7i5u3bUVRajgpayyFDB0EDCIlv0PDbUOuWphiWLVpMh/NA6wW98trfYcXmZsQRgUaj+EIFNjjqo8ay88EtUxzoiGJoFXDzT76DiJ+U654/4AffuoKtgNfeheZZenwhxPmbL4CK6ON78SFNZdJk31w2uO6666jAh9nMf3WhqwV0V4TqbrJHxLFVKbJocVok9Z5pWGiWlRkwPixL58XBB05GgmZz1utv2NzFX998E8EZw9Qph9HCtyEZS1ks+6abfoGLP38R1q5azYw9KC0pxSsvv4Je1b1tJaV+VIaysgiqqktQQsoxcEhvjBs7FAP69cGggWXGYxUu1ODBNFG8YM48HH34oRg1YqgNZ1Vp/jVtOprb4khnfdZT6rH/nNF6HyZdQS3xeLR+SR8ceej+RkOmv/gSpr/wImoqyzBmpFZjLUJhuAB9+vbF4KFDuA3GsMFDcOihh+IrF38ZV/3w+7jlt7dhv/32s3Ei8hHEqbWeiDptFPkQ7+5OskdYbD2AHEctXqNwltU9/9Z3y3UyS8B7g340NdQacH9z663OyDhaVLXwAwb1p/PJ840taG9pxZSpU3Hi8cfjL3/+C9auW2NjqCVHHHkkzjjrdBx06CHoN7AfIsVFBjQtvF4WKUbttlaECIa161Zj86bN+OsDf8YTjzxMqw/86Jqr8e3vfN849pXX/gZL19Uh5omgI1RB7ktIWwjtgy32rkAt8XTEcOZJh+CCcw5DIY//9IfX4E+330yrfTmu+O/LqOgBtJPHZzTtjQANUIEDBSGLnriiEKC4tTtqr5EcXR0wxcVserqh7DFURA6YeLU+phSlA1deXopYe5yeP80nzViC4Ayx0prqa/HIY4/g7nvuxrJly8zpNCHigqFCW/D83E9/GiccfwI2rt+Ae/74B9x22222aqrNa2RelWym9yeHHkPnsLyCHFlfG0jR6pKDbN68BbNmzcQ76pChE1tWGkFrcyuu//GPcPEllyJEoPzwhtvxxqK1SHiLEKnoj5ao5lQSdDLz3Jyx1ztXyw5MUzPsD+eAwE6ChAvOmopzTjoQxSzf1VdehT/cdjOuu+p7+OZ3v0tiz6YjGOalQrLfxo3YCla81t20hqBWviIeOld+Ure5RvDlH+susscA+30l93SJeLzze4r64oE+yqQBPnPmzsbqVWttpvsBB0zGxIkTbcXRQnl6lMbGZhsJ9+abb+GZZ6bhhRdesE82dwqxoiV+07Ta9id5rZZLO+qIKRZRuO9Pf8TcBfPxox9fhyu+813yauAqcux31zdSF4q4FTtLKCBDYJMDWzxbe/FhgZxAJpg9hK8t58u/RQ2kZFmC0QZvtW/DlRefhWNJRVIE4eWX/Rce/cffbQrYpz51jopleaistqd0rfQ8471HyJ4P7A8QAUSj2dxuYnd8sbsEgSIEih8rnfbqsJD10vk1a9Zg4cKFNm2sPdZGq0eHlXTngHEH4EhSlhGD97GB+p+78LOY9cZsXH3dDfjWd7+FGPO/+vo/YOnqWjYSJYRwMdIEbdZLC+rV7J6kgVoLagp+zopVArbGtjjgloVNZ5KkWjzv7UCqeT3u/NE3MG5YXxtqKmf3lVdewRNPPGE9ht0tVPdxiKO+e4GIPwrEGgPhgllglaMkALuglohnKhrg9va5e6VVbFhRg8MPPxyXXnqpjVe+lZz9rt/fhV//+tf40pe+ZA6YHFgtFWb3UXTCOLRjGfVVXvdvV8x5/BATowiHrhNQtR6J0ReFCLMdViZx4u3bt9u3LyU65lKNvU32GmDLq1fng7x97d2RaQKewO4CwAWB9l3BJ5HVlsWWoghg6p3T7zbyUdEQKYF4vqiPlEBhM91LFl05O8DWl8Ny5J6c+qMAT/fSgjxyMg3YvMbvpYKkUzaDR5MJdG91DNnHSik1NTV2rMdi78GimKw2AVlA1OZabQHNrXyBOR/cukZ7OVJKL6sti+5eI9BKUYpo8fW38nXzkALoOh2zfCxXAlucnFTCYbrc5DS+R1Q1BDCVRUsu6G8rIsFN+0/y4kwI1uL2vaorO7OQ4umeaoW07a2y1wBbllWba6ld8ArY2gQGAVEAFEC1udcoraIC7rVKIzqjTSBWGg1Pjbbremf2SUEkjPKKclMEws/ycIGt76DrMyJyDm2jNe/8/T7ilsdtRTS+RddpVv7gAQN43A7bPEWJxk+7Zd8bZa8BtgDhWlLXyrpAlYhja9MxAVbgdcUFvyy2NgFG12vTb6UNBUPWmSMgi1vrC8H6pqPyDGidEru3k5+foDRg58J7LqBlkMWztZa3knbwgLN3um60EqxWFlR6LT+sxS+RTmDwoAG8B2xigEtD3M8FqrXYG2WvAbYA6Vo7Wb/3E9dau2kEWgFGIhBLXCuoc9oCfmfkW5L3kKhTI6DPGBC0NqObVlUc2xV9VWAnS9pB3uza83xakgv1ueJaYH11wa+ikIbIiayuLLdUKqecR9Ekd5FJlwbtbbLXANu10B8EaonOCxiy0BKBye1907n8PHTOBbvE5deSZEzrlUSMjwvD6snTOUFMC7LL6sqB1Hrb7pBQ+/ZNF5HV1j9aqUo9nIFgAD6WzcO8WhrqyLUzGNCvn6WVEik+r3K4XybQs+yNstcA+5OQfCfUVQwplET83cZdEOSiJwVhTTx2rLet+/cefq2eSCYgqAXuJJVAeWuTBdZdIoVhVJbr++zOPXXcejwpo0aNsr1Avjfy7B5gf4yi70y64vJ319o3NTfQatfb7/KKUp6ntSeoLRZNq6tIx040ZCfx2kweAVxdNbLWRDEKqDT9evdCOBSgX+BYbH1XXvfWYvgSV9H2NukB9scsHcYdKDYAqwNV+nQuRavApog+jf6rqChHPB4ziy1LnW9R5TzKWXTFdRzFt92BUmblyduzWvOkqhyRgpABXz2dokb6+pfbUiia47Yee5P0APtjFoE0v+VX75+kgXw4ldaiOLDZ3k4HjbrGFbV4P0u9QwRO1wkM2mqwKSpK3FZwKgx5UFTox9y5cw3I+++/f2daWeweYPfI/1J2dJ2bEFT6do2koaERtXW19jsSoVXtXWXgUze51vIWuPOXE5bh7zA1kLCacmNMHcUhdaGjWVRYgEED+pOv2ykboKX76ytqLhXaW6UH2B+TCIRa9kHAMiaRw3efPn3s7+bmJls8R3Y06APGjRtvowyVXhb1w8aJSAlcsCaTKXNUB/Trj9GjRkK+44qVa/H222/b+fHjxxslSYuX5zcfe5H0APtjEgHIAZJDATI2fzFrtEPA7iDj2Lh+EzLJjK3UtP++I+AlNfFn4ra+idJqSpl1n9NcO93oGhrlVJGoR4AmnXBFOtGGkL8D/WuqMbAX6TzPv7lgoY0TUehQi0qqLBqJKCqyN4K7B9gfkwjQhVrPwCOQEuDQWJQEavr1cXg2sfXow4+iua7J1t8+eP9RGD9iAIo87Qh74giTVnj8BUjTSUykPeTPagHoMPJ3Np1BcaE+/h9DJt6EklAHaioiOOOko5GOAtGWNG6/9RZzGE899VQbfCWurYiMAL43RkZ6gP0xiGDj8zpreTiOmrrt1dUukANHHXWUdbVv37IVc2a+bpN8yyLAEZMnIdnagERbHVrqtyGbjFqEo6ykGAUBP0Echz6EWhj0wpdNINq0BZWlQaavx/9c+iXsO7jI1j+Z9sQjWLpkkQ0FOPDAA212usa+7M3SA+yPTeg40ir7vOrpI9Q1Kk8MgD81k0YxZgH9m9/8H0sdjXbghBMOwDnnnI6qiiL40u0oyLbDE2tAvH4j0N6AqiIfKiKsongjtqxdjnGjhuLA8aPw859cjeEDqBnUmzXvLsf9f76XtKMdp59+Ok4++WSjIy4FEYffG0G+V8+g+TjFfYmy3vpagBy9NK2t3z6DUY+DDjoEDS3tSJBj/+j66/Ffl30N0QSQIiV/e8lqPPT3p9DU1o76hibE6YQWFhahorLSKIVWiDrskMkYN3ofjB5eAqmOePrrr76OH139XcyZO4/3CeKpp6fZ1DaBWi2ELLjoibi28tmbpAfYH5MkbbkHd8GeuH1fXT2JqUQaXtKShx76O7588Vd41oNApAi33fl7nHLqaUwH1DYk6Rx6sGbdBtTXNdqSwgKqAFpOWjGofxWKaKA1UjUbB53ILO6/9248eN+9WLVyOWLROL7+P1fg+ht+apxa3feaAaTudEVPZLn3Np7dA+yPSWJxTULwW9hOY7NDWqiHkiQFEbCjsQSuuuaHeOCBBxEn+Lw+P678wQ9w9LHHYeLYkZ2cUF3j8UQWgZC382teEp3fXtuCVcuX4PlpT+KuO241pRFcb775Z7jgixcjGNoxvc0VF9x7m/QA+2MSLY7j9omIW2vTGCbXUMYT+iJuAv9z+eV4+MGHEKAJ1jdzRo0dizNOPwMXfeYCmwlTQH4cI2CpDQSqrHkr1q5dS4v/IF6fMQNrVi1Ha0sLfMx/9D4DceNPfoIjp0xlfqVoaGhBRYXThW+tBunI3io9wP64JPcWDdAEM42yOW7BoEbpCWjkuwVB1NU34Je/+iUe/NtfSTtqLXGQCM6QPlSUlmHQkGHo3afGuPbSd5ajpanJyVg9Php/ksng+OOPxqEHH4zPffZ89BvYn6c8zLcZVdW9nZS5Th93L8fVHRq7t0gPsD8u0VvUlrPQAnO+NBCoRaUl8Pu8aGhswOuvz8RT057Ciy++iE3rNhqFEd1Qh6VTITL37t6DE089CcOHDcNBkw/EuPFjMbBfX4SMqzg31ZQ0Jwcl33Fz93cPx+6R/0y6vMWuwBZgM1lnnIfArVkzGhi1jjRjy5YteHPBW2hpbkNtfZ2taiXnb+CQwRixz0jrlh82fAgKw2FEiopouN3MO2zhHHNZ1W2Zk12BuQfYPfKfyfsAOzdkpFM0lUvg1mpRzqA7XehBS4vWB3SGqHoIVX1Txx/SrB8nI33aQ+l1Xpu+XWMz1nlQeWmJMln997PQPcDukf9MOqd1iTo44OsKaomwrHHV0fY2G6FXqE+ReXy2vJ4/oGlnTjqJro/FtdBPwunZJMdWXFxg7wpTTStzB1LtzZbalR5gfyxCCArYhiwBSbNibE6MiYGc/9gZ7sVEOq+xszzj8ZtV1hgqOaCyzt4PGHnq5t0pOWD3gNoRe8U98jGIgdoF6g7Y6S+JDafmH+l01jabga4tkUKslTSE5xT0UMhQYWelz6ayNhownUg6oGW+mVQC6WQc+g66J6s4Nk8Q1DZlrAfUndJjsT8WEZDdmTCyFbLYPv6lvSPaO2cE0NwBs9g5kCvoLdFJHbYLLBGPKQ1/SrrilacSqaR9jsOVvR3Ukh5gfywiJGoctvYOdB0qkgMrJZFwHL2Az7HMJvbmdQ0teYJOJc20OYNK0AnOHKgFbnLzrALkPOfN603sYAvg8QXMYd0Baiff9xUpU750nUhsypb73VXc8nxk6XKvT0B6gP2xSdeK3mGt86UTK/kn3wOS9wdCRnMdUykbZOXOqNFEXidq4n4GWvlp002y/LcDSdKZkGvVMx1GcWwkottd6s21OGo5cpdLMb10WvMBrsU2tWag1gQ3fuT6CVre2FI4id1LYvGY3SdAp9eRXWvLx93I9AB7txCBw907oHZm0Ow401XUJmg9kg4imobcehYFbs200ewdL0Gn78ormrIjl5zCyLTrmyGKfacySKWjCBQQqDY2RWm4sWFIyhcAgU/UxdqjCBeGSXkEdB4XoDUtKJelPqVXVJT/ISZNlsud5L5z9n5XYAt9PNQD7D1SXOBp74ChK7BVSVnr4NFIPW4KnVBkpbX+tnoeRWUU9t6Ri3O1LLacS7PsGU0EFh0yd1MZ8A+mTKeIc+VPrBPQWQLf7wvawC6jODmUSImSqTjzShplKtDwRKIypUV/qETKM6N1Callfn/Q7hePxVFU7IDeWcj+vdID7D1WBMIdkHSBLXHg6YBbX/HV7BwXB0rlntde38pJ25fIxDJEVwjQXGLtbP4jFUTRFdEaG0Pi0+hDUoyAH8Hcl4c778nkxKYBT6CW+GjE3TyV0k2bTMepJ7ynG6dUCJIXylq73L8H2HuduPDYIU7F5NvenSVFpGnoqtbaDhcVdYJdIqssIJph5z5JsAdk0QNyUAVyzcuUw5shrfYj1aFVAJkDnUad1111qZbxlqIEQ3JqeSx3E7EUDbISLTGnmMh0+k2d8qaoNJqrqdnyWm3WtfiudMVxD7D3WNkVdAUuByha2kGTDyT6NmSaltkXDFqURaJK1NaJD/6Rw52BW6A0v9BYgqw+j2lWMe8bJw3x+p1F4t3rdUY0WtZaedkkB54UAJWPUyqWixRIM4ZCpB0BUhNdp7IW5sqqv1VElc2ilznpiuMeYO+h4laCA42dxTm3oyfTPnpKpKkTR+eaW2PYvG0THbh2NNc3oZV/d6R9iBSWoLSkzBbBrK6uRHWvMLS6sdlpOpiiE5pNH02lCNAAwgVhA6HOb93SiG2bt6C5ucWWZmunc+jlBcVFxajqXW2z78vL9PEp5sFCZNhyBIO0/EwboMJJETZu3MycgMH9+9pe0gnunAl3LfnHHXvvAfZuIp31vQtgS8SaFWcQBUjSMQsGnHDi4nfW4o25s/HyKy8YODwdim+Tg6f8pAIEnDmCWfTr3wdHHXUEDjn0AJSUa3xKCkFydZIZIyVAgQIhBGMtFsyfj7mvv2EjDwXEouJi48maw6n5mPpwVHWf3pgwcaJ9onrYoBpQN6AIoBRDEF289F389YG/kMKEcNmll6JXZbkdlxi49xRgq+l0Bt47TZQ7D0+D4OXkiIt1nZunuXuaBSIOp68E6Pr8b3ubI0TRNYrtWoRAJoSSf849r3vot3tOafVb+ap8cqQ0o1sWThNhlV6bjqncbl469n6Sf99dic67abR389IRQVp2WYOkNBxVH09iRjyns05PpoZdixLoE+jTX52N+x/8G9paW3HMsVPQr6Y3+vcbhMqK3igtLKX1zGLNqrV49913MX/BXKxduxrjJuyPc88/C4OH96f1DqAxVo/CcAnaCYOFC97Gb35zM4K+AA6YOAn7jBiOoYMG20eaVORQKIjV69Zi9Zo13K/DqzNeRXFxCb785S/jQKavKCaXzj3L2vXb8fMbf8ISd+DO391ix1Uz7ltx1JLqqh3FvmH5MconBmzex0Cqynz++eexji9GKxa5wBZwtm7dagulK0SkdMOHD8fo0aMNJDovICqtQCgRKPJB6YqOuUB35/vlz/3T+XxQubO588U9ptWV3M8wO50fjrjgdAGsMuSfd0XPonsrne6vMumZXUWROFXsiKOWss9dLbcXzaQahaQCevqtda248aZfoLklioMPnowLP3eufa5D12thKdEM0QEVM9oO1NW34pFH/o7X35iFyYcfiC99+fOkFWG7d4r/vvjSDNx22+0YNnQoTjr+BEyeNAk1lUWIxztIUZzSKG/NWpNytcWTmLdgAZ5+5hksWboMX734KzjumGNRpFfF8/PmL8YD9/8FbS3NuO+Pd9p9doBbnoPzfO5zaqiu+/Qfh3ziVGTz5s24+OKL7QObWjxRK/3LMqvSVeGas6f5evpAqFY00iegv/nNb3Yu7iig7Mpi5lvsfGup4wKprLArOiZg6p75aXcFTimB8nRF1+Vf4yqWgKrfEjd9179VDlcxlV4tgSkN81NKVYTiyYoPe+jgpdjsB/isXnPEvIgl2IqECizt/EXv4qofXYf9JxyIr3/tawRpkBbYRyeOgOZ5lVDWUM6jiqHHmj13GW659VZosb/rfnoDqqrL0cFXOXPWbPzx7j9a+X5y3fUYNKAfvNkOFIV9rJM0CpUpJZrUdyZZElIYXSdaNGvOPDz00MNUniQuvODzmDJlosFz4Vvv4oH7/oztNFYPPXCPXf9JAvvjy+lDRJZPANYn2gTY0047DX//+98xc+ZMvPnmm3jsscewfPlyPPnkk3xRD2HRokW46KKLcO+99+KGG27otJDKwxWBXMrgglSAF+j0t8CjilKafGBKlFbAcq2pKy6oBUitNa3VS3WtFE356V5unvmiv5VGe21Kl69oEuWpa/W37i1Ree0agjhN3pzRc/j5HB5ex3P6RLbSdxDs4rda0iElc0lZs249CsJ0Cnv1QUVVGCGCWkNMcq/JIhq8hGXRu5DSAvvvNwrjJ45FfUM9lixeZj2VLS1JvD57Pi1/M755xeUYNXwAr4laxERDaAXqRDTucGdbP5Cg4ZZKUjl5cMK4/XHBBZ9jPm20+tOxrZbPzutKSysQ0+KZwRAVwlHaXNEcBbZf+tc9+vHKJwZscWMBSqJPVrizqF0wDhs2zMAv4OvLtlq8/Hvf+x6uvvpqPProo/ZBfwFDoBUYBBxdKwqi6wV4HZe4FlWg0D3cxWJ0rfLQvUWNBFZXBEZXdN1TTz2F8847D/q8nP4W6HUvbfpbQHXv55ZBz+cqTb7ld4HulkP3lqhsSqdub1fBskSkyqjlhU28tN5M41p/99k0vlsgF9cWNIK8nTPO26lUATBcQGCSRoTJ0pLxGIEax36jRmHcmLFIJsTlaXFnvYnXZ83D4YcdiUMPGM88s4iQexfRE/R7SAmpHZFC0iaCMEKQy3hribZi/hDYwwVB7LvPCBxy+OFYvmINZs2eZ5MmNDRXK7xJOamruxQX1v8/oP2JAVuiSnQr3QWGQKJjqlgtoqjK1nEX+Pr6lZpsAVugkYII0C44JHIs1aTruCu6Rz64BBaBQvcSEJW3NuWp++mYlENfHpCUlZXZ36JGKqNEAJXyqTxSEt1P57TpeomeQ/fReZVLeeicNrclcQGuMilNQjNk6LDZXEZaa5VRFtuEZUvyWRVd0IAiiyfzcL/+A+0rYWpZahudb9LIYotbm4PJvz3qcvGohYmipDiEYIEfRx8zBd/93ndx4omH08qTC899k3QngqOOPNJREGqH1g+MR1tJL1p4bxJ0mu6kZvyQ16RpzZtbGqgAaQOPylNSHMbBBx3KG/rwxuy5vI+WmyD9K46YoljhcqJyuf/+/5RPDNiqUFW4NhcoLjgkAphrjXTM/aqsgC2vXMAWH3fFBZJEaV3QCCz5lEEKpE15CmRSCLccrsXVOeUtQGlBR4n+Vr4CshTEBb8Uyy2b8nLz1P0keg7XQiud89UwxyblK5rS6H4Cub4RGaCJTbOcydSOViSbs+JBptE4j5RMIUWw6NWrNwYPGYYNGzfhWTpwMef2VqFpcgFZaFlZL62u8/ElGhG6nbLsJfo8NQ8tXdLAbSWGDBqG4XQaY3yWTFbvrx1+aklJcSHBKSVME/x8Bualj0JVlhTDRw81xbQdfC/pZAf69umDam7btm/jO2FSglxjTTJuk/KB8qEJ/m3Z8ab/P4vblLqgE5gEAonOCSAuYCQ6L1ApUqK170RVBCoXuP/617/w6quvYv369QY4XXvooYfi+OOPx1BWksS1rDq/ZMkSPP3005gzZ44pgPIXqPSx/1NOOcW+ZKv04vavv/46Fi5caHRo2rRp5vBOnTrVlEyWXJ+ce4ZgmjVrlpVbLY1mkn/xi1+0a6ZPn2731JK+yvP+++83R1llFG+X46zrrrjiClsdNUTOsHjJUrz22muYO+cNxNtaUUj+MHjgAIs0HDblKD5NB5+/yECtSqsuK8apJx6Lvz/6BF549lmsXbESY8mhJ4zdD/36VKOsJAxhnW8Z0bjCpjQcUjrqTVNrEmXlBJ16IInw6qoKZMiZyypKzbh6QwQl75dgGUMsR5ZK4i0II97ajgI5uwS9YxT4DulIqvezlWDv3bsvVjS1YPWa7YbVNl4fYKsoe6VyS+kc06VgnyI/OyR/bEy+5Kf5d8RHDntt7vf/VxHAZKkFyscff9wsplYHdS2vuxfIdU7p9PK07sZzzz2H6667zkCzYMECfOlLXzJwaAFGdRBoLwspoP32t7818Ok7LKIzAu8f/vAHOjgXGHi1GunZZ5+NcePGmTV9lqC4+eabcdBBB1n++pycwCyFErj1kf/Vq1fbAu4jR47E73//e3z605+2smnd63PPPdf2GzZswE033WTPMX/+fKxcudIUTcp40kknmVXXsyhP3Vf30ifrpCy33nYbPnPe+Sikghx7zDE4+8wzrKwL31zI5/mNAf4EKmwBn0XVr020o19NFWoqStjcZ7Bk1UbMX7wST70wHU8+Ox2vzH4TqzbVozXBhIESNMezCEf8aKcrUVhITk+krV9HB/n5ZzBm1AhMOfRACxdmeEINTEadQHwWWV5BWNGRgsII2YbfhrNmsh4qBZWFimGgJf2YPX8l1qxZh/3GjuU9irF8+Qq00J8684zjOwHq7Nli2n87/mbbLV14z+Ze58qO+NEHp/zEwn1uUy0L9vWvf92A+Otf/9qAIDCrmRbnFRgFEtEPAVpWTR0AiozoU28/+MEPLHT3la98xUCt/NxQnvjxfffdh9sIlDvvvNPAKsuo6MrBBx9syiFRS6B7iQrMmDHDIi8qzz333GOtiLirojTf/va3rXNDiiJFk8WXMyvLfOGFFxo4Ja4/IED/5je/wcsvv2yOp9JKsQT83r1745xzzsEXvvAFa32k6FLgP/3pT/juld/DTb/8NT73uQvMIUsk6T/QOwyRNzz6yN/x85//3BTokm/8F99VBpGiEsRJSwrChWiPJtCczOKtFZtQ35owzr1l0yZs2boZ9XX1aCeH15xJdbYcMGkSJk2cQItehaoy4NVZK3D9dT/COWefgUu+eB7oI+6AB/GjT1rrs9lJlkf1ox5HAV2OqzqJBBwZ7ii3Dl57428fwRy2dl+/5Cvo37cv/vzHu9HaUo/f3/5T4/56NuWvzYGxupwEVOWlz2nvkM5y5MS15254cIe4f+9MPnZt//8/iKy1gOSCV9ZVlvLKK680AAio+n3JJZcYwNSMf+Mb38C3vvUtA7MAolCgLOFnP/tZA61EoBbolKfCiALA5MmT8be//c2srIAv8EoJJAK6yuFGRERFjqGVlEUVrxbtEbVQGgFcoFZa/RbFkAWWoomLSyF1XMqp+08icPQcUhx1PumZZdkFCgFbYBeodQ8d1zVqMY477jhrUVSZchDFuV0gnX7mWfifK76J39/9B6zbsB7FpeVERYB83EvrS7+FaavLwjjqwOE48+gx+OI5R+Oyiz+Lb37tIlz25Qtw0WfOwXlnn2oLxD/95BO46+678PgTz6CJPmEoHEGyQ8s6BMjJnS+aWWugjXw6m1GkiPyaVtmr6IygJ6eRTqRgpM0j55A82oCYTjBtBxWEjjvTJKItdEadCLW2zryZj6+Dfo/xfjm++ZD+eOQTA7YrsojaxDfFS/WhTX3QXjxXx7QfM2YMLr30UixduhRf+9rXUFlZaeAVsPR1APFoWTtZaAFEm6sw+tSygP/ggw8agAREAU70R1xZNECg1V6tiECrTqAf//jHZoGlKLLeArrrcApkai1EIwRqF+zalF573V9WWAqk9OpZFfB1H+Wn53S5vxRQacS3Beyvf+0SAkuOm5YidvyOeCJmsWUNKDrjrLPQQn47+405iNO5bGklZ46wxVHIjehqj9GB4zEvPcgSImdgmQ/jRvTGlIPH4YwTp+Lcs0/DdddcSZozFc1NTXielOi11xehuKwChaUV2N7YTMsfJZA1ljtF7LJ1taiHAEfQkkebfSYYOzJ0YBUnpKUUmAN+LwpCpI5sZFKxdott99a33bMpJHkwm4zbx58ENAM2sxGoZXnN+uq3srb/7C5dNvfMvyefGLBVkap4xYUFKIFZlOSqq64yuiHeLI6qZl7UQb2TsnJucy/w6KtYrpMn0AlgylPgEahlIZVOoJQIULpePZdqIY444ghTCt3vlltusc4hNd0qj/iu8hKw3LJKYRRzl0gp9B1F8Ww3nRRE4FVZtFcZVDZ9wUAtjPJRGaQcel5do7K5voZ+a5OzKkX80x//gL/e/xf8idTo4Ycfso6qO++8C3+5735EikuwdNkK2k86a3zeLfUtaI6R67JskbAP5cUBFIdSCHni8Kfj8KUSCHWkURz0oCziQ0UxcP755+As+heiMU9OexqhwgL0HzgEGzZupnJEiVUCiJvKrGdUR5GDKQfICvuJCmX4vpw4u3plFSKk89gURVtzg8W6e1WXIcjjRQV+WyrCbQnMqrvdocr438frR5ZPDNh6URIBQBWtlydgSFwQSVTpLmfWMZ1Tcy/wbt++3a6RtZYoL20CidK5YBIFkQVVet1LdEPjU+RYynlUvop+SKkUrZAyqRdULYBAqvzd+ygvAV/5Cpi6h45LgSSiHSqz0ugatRBqKXTcVTLREsWrlYfA7wJHiikao/s2NTXYMAJFXES3VHb5GtrksF381UtwwOSDSU98aGqL41e/uRW/v+dezJq3HM3tzC9J2iBuLtNJCuEngEJEV5jmUp0qm7e1oIzgHjVyX/Sqqca69Rvh4+vv068v1m/chI2btsAWrw8phk6+q2leNgiLD9kZGHeOaXShpo8pkqFaTbLq1EK18BkGDBiA4iKl60CEzqbQm9wRweSfzNBmyLtwN0LD96FNqXObfttGe60f/6Z8YsCWJRMgVPECi0CgCpYIaKp0V2TVJeK6Aq32ulb81AW5HtYFoBu6kyi97iUA6TodFx+WsojGXH755fjZz36GX/7ylwZmOZmqjGuuuca69F1RHrqH7qV7qPVQaM79SKgrLgXS3gW7Wgddp2cV4FUm/ZaoPFIQKUNtba3RLzmpX734q7jxJz8lJboWN/zkx7jyez/Aj665jr9vpFP5OXz7O9/BOZ86i84cWy8Ca+OmbVi1biO8QVGSgHFt6xlRrwvLq/mHNtSUmBAN7tvbub+ctVK+C8WpNX933332sW7812bOxrqt22x1lA4iXiw641GdsBVkPtaV7yXv19QxL/P3h6y1aE90YOOWesxdsNDCe4cefpgtWB9lqxBXvQadgVZKaxvxnJEDyrwVCXEY9466/7jkEwO2KlAiMAsA+VooYOpvFxjq7VM6hdwEGBeoU6ZMwezZs20hdInAIYssxdAmwMkCig+LayuUJvog0ApcApWApnRSLlnMI4880nizyqB8dU7WVWmlbJs2bbJ7idKITig/lVXgdJXMBbXKo0iOzmuT1dazuK2KqwA6p/tJUXReClZS4ihxU3MT7ZfTIunZJOtJFS655Bt47oVXQGPNawpR3asGK1au4jUptESziGXohmUVsfBzCxBEdAgFSILaNZj0D2nQo+TZ9Yi1NEHLBk45YjwmjBuDGXyva9ZtsXBggtckdK3cO4HQF+Jv5cl70Jhk/USuFIx5tjLTTdu2YxH9oSRpzAGTJ9q9BPLmljb4WB/yAwRqmYNOgPMZlXeam/L8923yB8snBmxVvCpWltNt7gUeHRModcwFuDaBSlZSv13wKB6sAVMKp+k6pZc1FZj1W6L4tsJ3soIChjjyL37xC4t/u1RASqZ8BUT9VjrRB93DPe86hQrVqXyKZysurY4h5SeKoRZBovPKS86lQphuN7yer4nOmv5Wnspf1+nZdY3yllLdfvvtpsR6jgDNnZxIiaz82nVr8cADD2AR/YvhdEBJi9HcmjF/Qc/w2KOPYUttPTJ8/oQ/jARBGKdlTbBm09wyfC1q+dsIas2e2bZ1C7ZsXIfDCEAfkdavFDhm6hF8lnL87o9/wbQXXrWRe9QPAprKIIvP6zvYVMiaC8z6m/6qdQAtXrkODzz0KFraY7j8m98C9dOAGwyzlQ2EEI3TGeXfArW77WTBc8f4OkxcgqJeUC//0Ax8bf+ufGIdNBLXyqknTpbzzDPP7LTkquwPElkzjc0W8K699lpzInWNACTHThZeURPxZjl4ChUKWLLc6mBRJ4eAKJCpDLq/gKTIy1//+lcDia4RbdE5xa9lffW3S3cURpTlllOn+LPWtRadUA+oQpSKfX/qU5+ysij9hAkTLB6vkKWuFdfXO9Az6Hn07Nr09113/d7uVVPTy/6u3V5nvarP0Te483d34Lrrf4JJB0wiCDwEtxfF5dVYs3Ydue16rFy1En0GDIMnVEyOzHfF9yXe6w6KMgARlS++9Dr++cRjKC8twaknn4hhg/vaWI9BA6oxaNgYzJm3wGLxqawXFZU1VG7SDaKQrxgxthRaX0fAFhC31cfxt4f/ib/+7e9oaG7FhV/4IiYeMMqss4Abbc/ijblv8O8Aphw7la1Xlq0Bt1gHwZ5BNJa2aE6MWzSWRHu01brn26PtaGH9VJSXmS+bsmUeaAiZp+S9tt39e2fwf2IdNKosWSw1zzfeeKMd+/73v29WSecEsg8SgU2AERAEqn/84x/msGgkoKyrLLnChPqOuKygGyIU8EUnBDyBW2AXpxaQ5ay5zqVaA3Wb6x4SRUvU0SPqoWOKr8vxFH156aWXDHRy+uTcKXyncshJFF1S543uLy4vGiLnVEqsHk8piY5JVGH6LWfxH489YtGR+to6KuMAns1g67at2GfESJx86mk44aRTeG3AaIIMmMD65uLVmPbM81j49iKU9aomVRqPsXwHRcURAjnJLYVUIo44wfL2W29h49o1SNHJnHrkUXyWE21gFJMZNRcKpr+2CK+xxVu2ZBGVrALHHj3VxsEnUwkM6NMfjS3NVg/rNmzEjJmzsGHjFpv4oPmXo0btx+c7g61QsY3+e2dFLf2YX6CpsYnv5EgSGR6kQ6ugiKRzPDb/1hiWTCpqSqY1S6T8l379G9yrcyhhBqwgNzn4o3bQfOITDSTqtpbIsroioH2Q6OH0UgUMiSyqrhGwpBwuxXHzlALpuECpFyUKoIiDgCQLr72sqYCv+LLr3LnXuc6jrLIoiSy1rhGdkeVXfrqf8s93fEWbpCCy0FJccXlxd5VbcXuJrpMoD5VN16dJP1atWoFmAkEdReHCkFGVstIKUxJ3aL7ULk6LFyyQ0wWs3tiAxUuX4ZmXXsUmOn9NjXWIaJx2RRkttgftrS1oa21G3z41OGDceEyk4g8fNhi9KovNxsXibAMCzJtFUv7b61M0AK9i1msz+G7X8WDaohvF5Bh6F1ojUB1HJaQuJ1A5+vQbgFeY/vVZM3DApANw4kkn4KAJI7BydR3+/sjfsYn+jnL2kpTng9kVHRNYfR7FyGmd/U4k6jvf+jb3JWapFcd2bfZuCWwBRGBRZUoECgFWFfthwNa17nWiErL++lvXKQ8BUcdc0Ci9eKxaAimEjss6y+IrvSsu8GXdBVxZdIkbnlOeuofy/9WvfmU8WlRE+brXqsWRKK0cVymXQovq+BG9kChvKZHEvU57lUvl07jl9ngMkQJFEWiPNcqfIqCXVWgirM9izeot1DiNBJ8tGKDFZxq9ucaYBje1oaWxwaJKDfW1NiKwD/2UQQMGorWpAQPZUlWUOuNN0sxe57103nxBOYp8ZlpvnRMX11tcvHSNzYDRmOttbD3KyqtQQooQDheihAoXKdLYEb1rsEW8i9TtWYs8ffnLX0JppIhKE4fmb3YwQXGRQOrU8U7Att98Ck+aZXJmDyX4PqrYCqZscSCnbyKUG9S92wFb4MgHm0RgUsXmW7z3E4FR1lTXalNeApu0W5ZPoFIaAdLl7a6Fd62wK/rbBbHyUjkENF0vZ0/HdE5lNWvKe2mvThR17ohifOYzn7H0ei6lV1o5gKJJjzzyiIFf9MS17O4mkSKoXC7Q20gVArkFIzUeOhprQ5AVqQ+idhVZbsWRE8ksHTTSGtaepmipk8S4tEgxRV3ZjrXj/chhC5lWojvG6dDp+VWekILcOsY8VJwodVR52ZqTbvpEBgUhHxqbWi3sV1lZYvka386hh7qBRx//J4YNG4rxY/fjO03zGidv5cPb5dEQin67BeReCqJlJTT7XqIVr/R+1OpInKNKupsB+8Pkwyy2rK3ohgCkCnH5swApybeISqv83HMufdExgXFX4oJXVlSia3UvifJVKyHl+OEPf2gDrTTuQ5xbyiNl0Dn1Zkpprr/+euvG1zFX6XRv5WeVlQO4xI7xb1WPLTPG2pfVcr4IxqPqvua1+hBqkJZSEiX6AqECXue365p5z7KiEEGg59/xfGrCNZMlmdFgJk3woPLyuAvGHGYMWwoLytnUb7d0rU0tDsXjcZVZ36oMEfG6Z1NLO/delJaEzfnzahw3+XFFmfOdyQyBqXetQVQqvyTfUncuCGh7puc9kmk+O6mInkKjC3W90SkqfrF19iip7p4v7t//R8AW8Fwrob1ElexW9vsBzhUBIx+44rI6ln9cv11a4FIKHVPeAq5A6x53xQW0xE0rESBliZW3lEi/1cQrqiKLrGjIvHnzrCwKBYoHi6sL0OpIcmmGuylft5wS15l2ga0xIEE6S0rhlIDvSHQkV550PAF/QcjCYOFCtUia3EtFsCV6ZZ0zLEubOYzFbMVcG6e1/NQBI0vvfLWswwEbJUEguXWhOZMCfEtLK8I0BKI5znvR93IIYp4sKlaY1OOUne9RV4rSqNMok6bi8YfGnITDVDp6uO1t7fxdyOfjMwjAOwE7t5cwbTSRtBGDMkJ6dwWh4E5K5sp7ge3Kjncr2W0s9u4uAoQ2AUFglEJo7x7Lpzr5Sur+zj+2K3ErYedUeZWo++d+dq1ER5y0un7XFfrea6jGuV87y0ftLum8npbXsca7Ap3uq+M0Xh+QreF+F8Vxr/mw99dVeoD9H4gALTC7m8Ati+7KrsD871ZMV9E99mbpAfb/kQjskl2BWtID7P+d/Lvvb1dtWo/8B6IXvytQ5x/vkU9OeoD9EcWlHx9mObuCukf+b6QH2B9RXCcxn1fnS1fL3APq/1vpAfZHFIXqFLbT/sNA2wPq/3vpAfZHFBfQ+duupAfUu4f0REV6ZI+UHovdI3uk9AC7R/ZI6QF2j+yBAvw/mii2Vr4QwT4AAAAASUVORK5CYII=;imageBorder=default;dashed=1;" vertex="1" parent="mZAhdl8hGZGRWwnMFbeF-77">
          <mxGeometry x="31" y="75.43" width="81.03" height="76.13" as="geometry" />
        </mxCell>
        <mxCell id="mZAhdl8hGZGRWwnMFbeF-76" value="&lt;span style=&quot;color: rgb(0, 0, 0); font-family: &amp;quot;Architects Daughter&amp;quot;; font-size: 15px; font-style: normal; font-variant-ligatures: normal; font-variant-caps: normal; font-weight: 700; letter-spacing: normal; orphans: 2; text-align: center; text-indent: 0px; text-transform: none; widows: 2; word-spacing: 0px; -webkit-text-stroke-width: 0px; white-space: nowrap; background-color: rgb(251, 251, 251); text-decoration-thickness: initial; text-decoration-style: initial; text-decoration-color: initial; display: inline !important; float: none;&quot;&gt;Save to database&lt;/span&gt;" style="text;whiteSpace=wrap;html=1;fontFamily=Architects Daughter;fontSource=https%3A%2F%2Ffonts.googleapis.com%2Fcss%3Ffamily%3DArchitects%2BDaughter;" vertex="1" parent="mZAhdl8hGZGRWwnMFbeF-77">
          <mxGeometry width="137" height="40" as="geometry" />
        </mxCell>
        <mxCell id="mZAhdl8hGZGRWwnMFbeF-78" style="edgeStyle=orthogonalEdgeStyle;rounded=0;sketch=1;hachureGap=4;jiggle=2;curveFitting=1;orthogonalLoop=1;jettySize=auto;html=1;exitX=0.5;exitY=0;exitDx=0;exitDy=0;entryX=0.5;entryY=1;entryDx=0;entryDy=0;fontFamily=Architects Daughter;fontSource=https%3A%2F%2Ffonts.googleapis.com%2Fcss%3Ffamily%3DArchitects%2BDaughter;" edge="1" parent="1" source="mZAhdl8hGZGRWwnMFbeF-60" target="mZAhdl8hGZGRWwnMFbeF-72">
          <mxGeometry relative="1" as="geometry" />
        </mxCell>
        <mxCell id="mZAhdl8hGZGRWwnMFbeF-79" style="edgeStyle=orthogonalEdgeStyle;rounded=0;sketch=1;hachureGap=4;jiggle=2;curveFitting=1;orthogonalLoop=1;jettySize=auto;html=1;exitX=0.5;exitY=0;exitDx=0;exitDy=0;entryX=0.643;entryY=0.987;entryDx=0;entryDy=0;entryPerimeter=0;fontFamily=Architects Daughter;fontSource=https%3A%2F%2Ffonts.googleapis.com%2Fcss%3Ffamily%3DArchitects%2BDaughter;" edge="1" parent="1" source="mZAhdl8hGZGRWwnMFbeF-72" target="mZAhdl8hGZGRWwnMFbeF-65">
          <mxGeometry relative="1" as="geometry" />
        </mxCell>
        <mxCell id="mZAhdl8hGZGRWwnMFbeF-66" value="&lt;span style=&quot;color: rgb(0, 0, 0); font-family: &amp;quot;Architects Daughter&amp;quot;; font-style: normal; font-variant-ligatures: normal; font-variant-caps: normal; font-weight: 700; letter-spacing: normal; orphans: 2; text-align: center; text-indent: 0px; text-transform: none; widows: 2; word-spacing: 0px; -webkit-text-stroke-width: 0px; white-space: nowrap; background-color: rgb(251, 251, 251); text-decoration-thickness: initial; text-decoration-style: initial; text-decoration-color: initial; float: none; display: inline !important;&quot;&gt;&lt;font style=&quot;font-size: 15px;&quot;&gt;Visualization&lt;/font&gt;&lt;/span&gt;" style="text;whiteSpace=wrap;html=1;fontFamily=Architects Daughter;fontSource=https%3A%2F%2Ffonts.googleapis.com%2Fcss%3Ffamily%3DArchitects%2BDaughter;" vertex="1" parent="1">
          <mxGeometry x="1852.9952941176473" y="-74" width="65" height="36" as="geometry" />
        </mxCell>
        <mxCell id="mZAhdl8hGZGRWwnMFbeF-80" value="" style="group" vertex="1" connectable="0" parent="1">
          <mxGeometry x="1818" y="-38" width="158" height="170" as="geometry" />
        </mxCell>
        <mxCell id="mZAhdl8hGZGRWwnMFbeF-65" value="" style="rounded=0;whiteSpace=wrap;html=1;sketch=1;hachureGap=4;jiggle=2;curveFitting=1;fontFamily=Architects Daughter;fontSource=https%3A%2F%2Ffonts.googleapis.com%2Fcss%3Ffamily%3DArchitects%2BDaughter;direction=south;" vertex="1" parent="mZAhdl8hGZGRWwnMFbeF-80">
          <mxGeometry width="158" height="170" as="geometry" />
        </mxCell>
        <mxCell id="mZAhdl8hGZGRWwnMFbeF-64" value="" style="shape=image;verticalLabelPosition=bottom;labelBackgroundColor=default;verticalAlign=top;aspect=fixed;imageAspect=0;image=data:image/png,iVBORw0KGgoAAAANSUhEUgAAAIwAAACdCAYAAABmSpAAAAAAAXNSR0IArs4c6QAAAARnQU1BAACxjwv8YQUAAAAJcEhZcwAADsMAAA7DAcdvqGQAABYNSURBVHhe7Z0HkBvFs4db57ONbWxjkskZivzImYI/OfPIqQgmU0A9cipD8cg5hyKbTBELipyLnKvI8AwUycbGxsbmbN/Zd6c3X2tHt1qvpB2ddFqh+ahhV7OzQdu/6e6ZXZ0zs2bNyorHk5CWYOnxJMILxuOEF4zHCS8YjxNeMB4nvGA8TnjBeJzwgvE44QXjccILxuOEF4zHCS8YjxNeMB4nvGA8TnjBeJzwgvE44QXjccILxuOEF4zHCS8YjxNeMB4nvGA8TnjBeJzwgvE44QXjccILxuOEF4zHCf/b6grIdkyTronvSHbm+KCmyrTMK5lFNpfWYUsEFenBC8aR7uljZfbH/yPd0z6QjHQFtcXp7jQ32fhxvcndpmSCzyV2zWYzkmkdIIP+84y0zL9RUJsOvGAcyHbNljmfny+dP16rRq82WWOJsJA4x6D/niyZ/kOCmvrjcxgXutule/wDVReLCsV4HxWL8UCKWRp9ypzxHwYV6cALxgVj2ezsScGH3tNtBEIhXiGYAgK/3zm9euerBl4wrlQhgCMOchuOpflMWCxVOH4t8YLpIzTsUAg9IYGUSn7TiBdMjQmLBHGoWGye0oB4wdQQzU8MiKaAImHHtk8zXjA1wHqU/HwLAikikjDR0Vcaw5UXTBXI5yemkMzmPycwOO0sGROqdH8jNrtMG14wvUSNGoiDol4CEYSEUArdj/0Dr6R1KRSKxQvGkahRo8YtZmzqw97EYofVtqQdLxhHMGo4bNi6YljvER0Z6aSdDTsJvVEa8IKpgGhyWgryEtrr0pS8gBpIJGG8YCqgrEeJiMHWaSFnKbF/2vGCqRLFREC9liApbnS8YByJTq5pLhJ4Dbu06/Zzo4afOLxgXDHGJ1m1RcVgBWHXw8URwpYmw0ZsacQLxhHrQeKKbu+loTU57seKOVYFgqs1XjAOaO+fkxNFsaLtrIiCz6WwQrPoPsGx1IOlDC8YR8hLuowh40rn7Fyx4omKoRi0syFOhZZCz2Jprnd6238SmXCzWX4fVJShc5bpUvQpU4w1s/yXNYoIg4V5lzKgY9JUaf91vIaUFhNaWvoHG4qgQ20jlDi6jDebZ6MxMniN/YKa+tM8HmbW/4n8dLjIzE+N8duSlRbjJsRYTTp0PdPSbfTTz5SWXDHbWjJd0tJq6oIyaNEFZcjyi5m2LTnPwe4G9ThB17QeSMNbEbGkleYRzISLg5VeoEmM8SbdRkCUIgxYcD6RIcPUQ1hIZHWmNxBO0nCVNppDMN0mtHSMNSt2CFIBhB0VSRJLG+/S2j8/qo7mKJUMt9NCcwiGbp1bCa07oHGF/ZJamtuaUYGQDOsp2dVRKGlMfpsnJLnS1W6K8UwUl0RD403O0vr/XhidEJY2vGDCaI4SxA5nd2DciD4PMGEr8GKVOLMw3sOkGc1RTMkydAllq+WwQyEd8sTsl0Kj9wYvGE00TPjRHMVx6NLFaAmRRVwJIcwIaWZ3piK9oEEdYXkPkwJsjoFVMLR6hYSWsfviTVRkpffrLnPYcMixh0YoRLa00lyCUWMTerBK4B2SojkK+/TkKLGoEMsoxaACQa8siWocPpJbJzhMn9NcglGBEHYcurBaE4HhicqgL8BwbM5RBsQQTOSpR4kRRxo9TZOFpASGDKM5ihFKKY8CanUElez43WjQ7JLQGaUKn/RGsbEhn6MUsajGElNUUD1CyZq6qAj0kIE4yFHK6S/NNI9gusr0fqyolsSykWTCoiJhe9Am0i5rj6Ejp57z6TMk8zGao8ShpwhKGmkewXT2GLAAa0mbp5Tq/ioUK6wesqY+q8dARIXb1LtQlVIBuNLcIYlurCIp0/XVa9BmbtEhllJCSzK9X+BRzFJf00zhYwFoGsHwBw0LIEfRp88lun5eUAhl7nZZmxSXQL1LCTh0WCAuP5KrB83lYfAS+lCRhLYI2t2t1yj0PLmE1oQfk7mqWIpSXIQF3gSMUOwpbf1cbVJEcwkmSeixJUQ+R9HQhEfB45TAtO+cbUQVOV1YBHMJIvAwWh8UHVlpbXpoPg9TqtDNIyYqyFEiQipF5xxzvCBaqcewGosqIPyZ9ej2lNE4L4FjrFnfBR8cMblKdtz/mjzBGDEOQlT7RHOOQs9ROuyUZsI3U6Xtr3YZPjAr/VpNBR7E3unAmxQTh2qUYr7y0P+MkSEpegk8/YLh9cp/3hKZ/mpQUSEZY7UyQ49s25cibWNzlnKdFQ7IdvwtMmCYTPx2mrSNM4IZHggmTIxg8ELRBDmNgkl/SGr7yAjmDXOl/XtXEoxTM4NXFhm4iFlzFwveKNs506wQiv6hIthiMKfW0U9YKGXEklbSLZiutuDl7T4CLzRgJCu5zwkgGc7Onm5EYq4VwYDJeTRJNtgkNiY96kmdIvVpJtWC6TYG6ObHZH2F8Q6ZlvKhq4DZJgTpU/B4q0fFwGf7S0l+wMBmmzrxw7e0k24Pozc73hBVAetRtKsHRi9xutw8TJdkjTfJtk/WkgR7GkRC6LF6jMtZCihxLfUi/TlMLaBL6zCZ4XLhvEqWHATrRtARE6Opjqm5pQM66qkgR0FgaaO5BJNPGihFLBiTbGQRiOYoM4Ka3hGjx4ahOQSTDzmIocebFCM7Z4Yxqgk9RjzZjilGLAil760813A8Bfw7BWOTBrxIXihFsG2Z76Eopj2hB7HEeJxaYy/Jh6RaY0WiISeYzi8F7cSWGooi4aH18o0+7TKN/HsEo7kJYkEkJSxkvQ5FrcN+CEY35rZXEw4ZrJZCLyUQS1KB1YPGFgx3mAeD+SfIlBIQcvQPAlmvYsUVtlCVBVMGBMIISoXSADSeYNRfc5fxEBidO13kbmtbQpNp180sbLRtsf2CZQXk5mp6DhD+GzFgL5+iQimj8bTROIKx4UZLxApRtI0RSbYj1zb6Z8ZKwRBa38RzJ8tPHW2JQXVkig0/SUiboBpDMHqHA7GUHPGYbXZUpCJJOsXPMW2pjCy/SqDEiEW9idmkXyNeS0VxbV9r0i8YG1LKofkJngHPYtsjsFJgDdqwtKU8iMOGHbxKdo45RhGvAuolkh16LtL2fKkBBFPiTtvcRD0P7WzbJNYp5q3i6nJoftLZJZl+LZLJZHJCKfd7pwpAYPrOuvkavXiHqyY0VtKLeGxo0iSWkMMj3yR31QoKAyMWgx4vdEwVXhn465hGNCqWYuBtSgk9gl6CuSwrFGYItL76Wuw1DSAY7iZhiUQXo5LIBgLRZTkjYzjuvC2BIfNxImqVYHsEzVEQAsv4Jj2g44SvSDBSso+4rFAslTywrDWNIRj9d+6saJLC3aaERWKWeU9CXYzlQ1U2BFFULCXylAL00KXbIob876wTHjYNNEZIyg+Lk9xZBIIVIqhlot4kRNYMpylh+HmtGj/30ZWZEY8BNuw0mlAsDSAYjFbqzlqLUkJWUG9CYf+IgLSObaY+y+iKh47sRzEjICOUkjlKMThmjCeylxHOTxqVxvAwseSMW1gM1jr5ukLj5bbhsbCc9VxhKrBoXiishwpQbQ7Z6EKxNKhgiokBrxBTb9HQZrdXwYJd5jiUEqdUSm1rMBpMMNz5UNgBG3KiYceijwhs2KFNOHHmONGSALwJQmlCGkAwGMZ2YcRhlvkSEU+YvEhKCSSOYvUGG3pKNFF0WJ1bneUysGsA0i8Ynea3XgThhEsE9SZBqSbRHKUI+pggKGVFlYSYr1hvGiQkcfdtiUHnaMhP2E6XLuZVHEkoFMiJxJagspdo/0gZjSEYjBBnBfU6zJ3gUXhjOupZ3C2nDxUpSZJZgz6I1Nlf93MVA6HoezTVO2TVaKykV42JcZhkIz+xXgV4TMB6uCREj2kKPyPhHHiLIndGZ38pVihVQr+aKQgljY8ELA0gmMDwmpfQ7awwwvA5WpcAFYc5rv5ILXgjT9+nMcRoIR92WFYJPZw5l32mlHYaxMPYvCTc9TCaLY7wDrB9s66bkFa+S2ftH9pNcjptV76hisSUUoO9tNEggokatMK7i2UIO/rvBZjunGA0ZcOPnrIl2RPocqA9ffCIF2sQoVjSLRjsgwfI31lbHLC9vbPNWIm8J9n+NlcpCD8JQpE9XRRbn39C3aCkWjAtpkdTzC3OVbhgH+CQk3S5/SY6LxTHXEV1bYvFHIL6RslRytEgIckBLEMSi2dS70TukwAdolPMegVC4bQqjphd7bZ/A6kWTLcxHCUx/AUoF5GAWjtIKNRFuIHX0N2KiOXfRro9TCkDaNgw1iI3sSXJTBtoqDIiUaHQ/ZPDae2pm0EgUdKf9EZRT2CMTF6iQ+KEWA9SgRex6K7B6fWzm9b+FaRaMJlMq2TsUFa7NQmsEYmOdhJiBRYuFSQUuiuH6muvMmBQsJIO0u1hWoeJ9B+ZCx060cYsrIOH0LgRWLpC2NU1/NC2GsJimmjI8psHn9JBuj1MS6tkh+4r2X5DjdUShh8EYvOTXg5NVCiVaq0Xp1aRmvx9xHZXS78hI4LadNAYfzqefGXKUyLtH+XWa0j3zBnS+deU3jglZfrkjEyZlJXhFfzZsZahC8mQ/zpUBq+wpWRaBwS16aBx/q0BTypIdw7jSR1eMB4nahaS2tvb5fvvv5fJkwv/WvbAgQNl6NChssQSS8h8880n/fo1wN9LrzEdHR3yww8/yJ9//indPMoOmGeeeWTYsGGywAILyEILLST9+/cPtvQwZcoUefvtt2W55ZaTVVddteb3s2aC+e677+Tggw+Wr776KqgpZI899pD99ttPtt9+e70xzQwd66ijjpKPP/44qOmhpaVFNttsMxk1apTstttuMnjw4GBLjjFjxshxxx2n2y+77DIVWC2pWUjq7OxULwPXXnut3HvvvXLXXXfJlVdeKRtssIE89dRTcsopp8grr7yibZsZvn9XFxOKIldddZXeK8rtt98uBxxwgLz11lty1llnybvvvqtt6kmf5DA777yz7L333upRjj76aHn88cdlhx12kPHjx6uIpk+fHrT07LXXXnqvKAceeKBcfvnlcuSRR8rEiRPl5ptvDlrVjz4RDH+tCddKfB0wYIDG47PPPltaW1vlpZdeknHjxgUte5gzZ45MnTpVfv/9d/nll19k0qRJMmPGjIIYD7RDcNOmTQtqCiE/YNvMmbyzWwjvveAF//77b20XhTpyhAkTJmjhPMW8YVtbmx6H7RSunetmab1HEviO3Ct7v8hfCNvcQ+5VvanbKIkbseyyy+o6YgjzzTffyA033CCHHnqorL/++rLyyivLrrvuKueee668+uqr+VAHxH/c9THHHKNGC4PhXnjhBfVqHC/K7Nmz5eGHH9b84dNPPw1qc3zyySdyxRVXyEEHHSRbb721bLfddporPPDAA3NdL1xzzTV6nG+//VZefPFFvXaS0GOPPVbGju3dPxKGeOhcDBLqTd0EQ6+zvX748OG6BOL1iSeeKKNHj9aRw5577qk3fZFFFpFbb71Vtz355JNBa9EkEOM+/fTTugxDj3/++eflmWeekeuvv17++eefYEsOBPbggw/Ks88+K/POO29QKyqy448/XgWz+OKLyxFHHKHhFI9x5plnynXXXTeXR3vnnXf0OJzrjDPOkK+//lqTVZZ//PFH0ModRP/ll1+qJ0W89aZugqHXcSNXXHFFWXTRRbWOOH3TTTfJ+++/r0J5/fXXNYZfdNFFcvfdd8sll1wiv/76q5x88snqumHppZeWJZdcUtcZMYT566+/dLQGiOfzzz/XdQvH+Oijj2SrrbbSYT78/PPPeg0Y6cYbb9SEHZGedtpp6o3WWGMNueWWW+SLL77Q9lFoz/XQ9qGHHpKXX35ZNtpoo2CrG3So2267Ta6++mpZa6211FPWmz4RDLmAGb7rDcBwn332mSZ1xOjDDjtM5p9/fs0nmE9AJPT2O+64Q70K60OGDNE2hxxyiA7HySUIAcAxSKDhp59+0uNbyH/wOgw143IARmj03C222ELPwzW88cYbeg077bSTXhtzRsx/MH+EqAhLhLInnngiOEohiy22mFxwwQU6EiTs8nnQoOSvKKy++uransL+CJXvj2jxdvWmTwTDSIhegovH1WMgDIDx8STMw+B66d30+hNOOGGu+QbgBq6wwgoqkrDxd9xxR12SoBLGLHgJEmw8EgYgt0C4FkIbxsDLkYwjbK4BuDZCWLgQwhDQggsuOFfOY8FbbbjhhsEnd/BGW265Zb6Qw5Gzcd/wsOH8rR70yT/hhJsGejEhhAkobszuu+8uSy21lG6j1/7222+6vuaaa+oyDozLcRAG+2Boej5GQiBMfq233nraFlEtv/zy6oG4BvIOQtTaa6+tiet7772nIYbkFBCtnZl+5JFH1NNEIczhKZkSiIPz9Qauk3tkYZTF92BIjVflfpHg14s+8TAkgh9++KG8+eab8thjj+mIBdduxQIkwTYppRcXg96NSCA8XD388MPVkAgCT4CnIhfCgHilXXbZRW8+1wFMgtFbuQZ7HQzZrQeiLR4rWghtJLPMjdQCvvuIESPyhSl/vhshEs+Kly42hdAX9IlgVlllFfUaq622mg6lCS0ME8NgCMIUWOHEQV6Cobl54dyAEEIdXgbvwagFD8S58EjkPwiJxBdRIFrqt9lmm/xxuAYrRkIos9HFCvNIfQX3haE934X8rZh36wvqNkqKwk2x8zIkv3GQoPJsCkHR48LQM4n5JNSEtkcffVSPxywzkISS/JKj/PjjjzrcJX/ZZJNNdDsgYowCH3zwgS7TAt6NDoCo4/K7viI1gmEkQn7CnAxhyw6Hw5C32GSTuZEohB0S19dee029ABNdhCPAizBjynHvu+8+vfmEIly+BdEySsEg99xzT+wEXT3gOp577jkNReRfjLzqRWoEQ8+ht+MJuEHkOIQVOypg3uO8887T5b777ptPbMNgbDzNnXfeqWGHZJhRkoURDK8Q3H///SosJuPCoZEZ1Y033ljWXXddnUHmWY6dNANyJjzYqaeeWrMHgXg+pgJsYTLQPqRl2H/hhRfGvubQV6RGMDBy5Ei59NJLZeGFF9aQsO2222rih3dgFMTNY0jOZF40B4JllllGBYf7BkZh4XbrrLOOJrbM1XDz7fxNGI7BawIk1wjWhjKugZxn00031Ym76Hs+luizriSwj03gEfHmm2+eL/vss48+rOV7IBqup570Gz169PnBelWxw2TyBG4CyyQgllGjRqmnoGczecdM8EorrSTnnHOOTs2HvUYYElbyG0ZIGP6kk04qGHHRMzEMyTFPhTFGHJxv//331/PwPew1EL5IPs8//3xdhsWI5+MzIrVhMCnMQ5HM0mEY5uMpbcHrnn766XLxxRfr4CEK35e8DHExZxPXkapJTV8CZ17DPnmtBATDyAYjY3g7iioH+xVz2xyL60JchMFy0JZrYFnuGghzSa+xUfG/GvA4kaocxpN+vGA8TnjBeJzwgvE44QXjccILxuOEF4zHCS8YjxNeMB4nvGA8TnjBeJzwgvE44QXjccILxuOEF4zHCS8YjxNeMB4nvGA8TnjBeBwQ+X/HPXc/pxyBNgAAAABJRU5ErkJggg==;dashed=1;imageBorder=default;" vertex="1" parent="mZAhdl8hGZGRWwnMFbeF-80">
          <mxGeometry x="26.389999999999773" y="19.870129870129873" width="105.22" height="118" as="geometry" />
        </mxCell>
      </root>
    </mxGraphModel>
  </diagram>
</mxfile>
